<svg xmlns="http://www.w3.org/2000/svg" width="512" height="512" viewBox="0 0 512 512">
  <defs>
    <filter id="gr"><feTurbulence type="fractalNoise" baseFrequency="0.075" numOctaves="1" result="n"/><feColorMatrix type="saturate" values="0.25"/></filter>
  </defs>
  <rect width="100%" height="100%" fill="white"/>
  <rect x="0" y="0" width="56.888888888888886" height="56.888888888888886" rx="0" fill="hsl(358,75%,42%)"/><rect x="56.888888888888886" y="0" width="56.888888888888886" height="56.888888888888886" rx="0" fill="hsl(218,75%,52%)"/><rect x="113.77777777777777" y="0" width="56.888888888888886" height="56.888888888888886" rx="0" fill="hsl(218,75%,52%)"/><rect x="170.66666666666666" y="0" width="56.888888888888886" height="56.888888888888886" rx="6" fill="hsl(358,75%,42%)"/><rect x="227.55555555555554" y="0" width="56.888888888888886" height="56.888888888888886" rx="0" fill="hsl(78,65%,62%)"/><rect x="284.44444444444446" y="0" width="56.888888888888886" height="56.888888888888886" rx="0" fill="hsl(358,75%,42%)"/><rect x="341.3333333333333" y="0" width="56.888888888888886" height="56.888888888888886" rx="0" fill="hsl(218,75%,52%)"/><rect x="398.2222222222222" y="0" width="56.888888888888886" height="56.888888888888886" rx="0" fill="hsl(358,75%,42%)"/><rect x="455.1111111111111" y="0" width="56.888888888888886" height="56.888888888888886" rx="6" fill="hsl(218,75%,52%)"/><rect x="0" y="56.888888888888886" width="56.888888888888886" height="56.888888888888886" rx="0" fill="hsl(78,65%,62%)"/><rect x="56.888888888888886" y="56.888888888888886" width="56.888888888888886" height="56.888888888888886" rx="0" fill="hsl(358,75%,42%)"/><rect x="113.77777777777777" y="56.888888888888886" width="56.888888888888886" height="56.888888888888886" rx="0" fill="hsl(78,65%,62%)"/><rect x="170.66666666666666" y="56.888888888888886" width="56.888888888888886" height="56.888888888888886" rx="6" fill="hsl(358,75%,42%)"/><rect x="227.55555555555554" y="56.888888888888886" width="56.888888888888886" height="56.888888888888886" rx="0" fill="hsl(218,75%,52%)"/><rect x="284.44444444444446" y="56.888888888888886" width="56.888888888888886" height="56.888888888888886" rx="0" fill="hsl(358,75%,42%)"/><rect x="341.3333333333333" y="56.888888888888886" width="56.888888888888886" height="56.888888888888886" rx="0" fill="hsl(218,75%,52%)"/><rect x="398.2222222222222" y="56.888888888888886" width="56.888888888888886" height="56.888888888888886" rx="0" fill="hsl(218,75%,52%)"/><rect x="455.1111111111111" y="56.888888888888886" width="56.888888888888886" height="56.888888888888886" rx="0" fill="hsl(218,75%,52%)"/><rect x="0" y="113.77777777777777" width="56.888888888888886" height="56.888888888888886" rx="0" fill="hsl(358,75%,42%)"/><rect x="56.888888888888886" y="113.77777777777777" width="56.888888888888886" height="56.888888888888886" rx="0" fill="hsl(358,75%,42%)"/><rect x="113.77777777777777" y="113.77777777777777" width="56.888888888888886" height="56.888888888888886" rx="0" fill="hsl(358,75%,42%)"/><rect x="170.66666666666666" y="113.77777777777777" width="56.888888888888886" height="56.888888888888886" rx="0" fill="hsl(78,65%,62%)"/><rect x="227.55555555555554" y="113.77777777777777" width="56.888888888888886" height="56.888888888888886" rx="0" fill="hsl(358,75%,42%)"/><rect x="284.44444444444446" y="113.77777777777777" width="56.888888888888886" height="56.888888888888886" rx="0" fill="hsl(358,75%,42%)"/><rect x="341.3333333333333" y="113.77777777777777" width="56.888888888888886" height="56.888888888888886" rx="0" fill="hsl(78,65%,62%)"/><rect x="398.2222222222222" y="113.77777777777777" width="56.888888888888886" height="56.888888888888886" rx="6" fill="hsl(78,65%,62%)"/><rect x="455.1111111111111" y="113.77777777777777" width="56.888888888888886" height="56.888888888888886" rx="0" fill="hsl(78,65%,62%)"/><rect x="0" y="170.66666666666666" width="56.888888888888886" height="56.888888888888886" rx="0" fill="hsl(218,75%,52%)"/><rect x="56.888888888888886" y="170.66666666666666" width="56.888888888888886" height="56.888888888888886" rx="0" fill="hsl(218,75%,52%)"/><rect x="113.77777777777777" y="170.66666666666666" width="56.888888888888886" height="56.888888888888886" rx="0" fill="hsl(218,75%,52%)"/><rect x="170.66666666666666" y="170.66666666666666" width="56.888888888888886" height="56.888888888888886" rx="6" fill="hsl(358,75%,42%)"/><rect x="227.55555555555554" y="170.66666666666666" width="56.888888888888886" height="56.888888888888886" rx="0" fill="hsl(78,65%,62%)"/><rect x="284.44444444444446" y="170.66666666666666" width="56.888888888888886" height="56.888888888888886" rx="0" fill="hsl(218,75%,52%)"/><rect x="341.3333333333333" y="170.66666666666666" width="56.888888888888886" height="56.888888888888886" rx="0" fill="hsl(358,75%,42%)"/><rect x="398.2222222222222" y="170.66666666666666" width="56.888888888888886" height="56.888888888888886" rx="0" fill="hsl(358,75%,42%)"/><rect x="455.1111111111111" y="170.66666666666666" width="56.888888888888886" height="56.888888888888886" rx="6" fill="hsl(218,75%,52%)"/><rect x="0" y="227.55555555555554" width="56.888888888888886" height="56.888888888888886" rx="0" fill="hsl(358,75%,42%)"/><rect x="56.888888888888886" y="227.55555555555554" width="56.888888888888886" height="56.888888888888886" rx="0" fill="hsl(218,75%,52%)"/><rect x="113.77777777777777" y="227.55555555555554" width="56.888888888888886" height="56.888888888888886" rx="0" fill="hsl(78,65%,62%)"/><rect x="170.66666666666666" y="227.55555555555554" width="56.888888888888886" height="56.888888888888886" rx="0" fill="hsl(358,75%,42%)"/><rect x="227.55555555555554" y="227.55555555555554" width="56.888888888888886" height="56.888888888888886" rx="0" fill="hsl(78,65%,62%)"/><rect x="284.44444444444446" y="227.55555555555554" width="56.888888888888886" height="56.888888888888886" rx="0" fill="hsl(358,75%,42%)"/><rect x="341.3333333333333" y="227.55555555555554" width="56.888888888888886" height="56.888888888888886" rx="0" fill="hsl(218,75%,52%)"/><rect x="398.2222222222222" y="227.55555555555554" width="56.888888888888886" height="56.888888888888886" rx="0" fill="hsl(218,75%,52%)"/><rect x="455.1111111111111" y="227.55555555555554" width="56.888888888888886" height="56.888888888888886" rx="6" fill="hsl(358,75%,42%)"/><rect x="0" y="284.44444444444446" width="56.888888888888886" height="56.888888888888886" rx="0" fill="hsl(78,65%,62%)"/><rect x="56.888888888888886" y="284.44444444444446" width="56.888888888888886" height="56.888888888888886" rx="0" fill="hsl(78,65%,62%)"/><rect x="113.77777777777777" y="284.44444444444446" width="56.888888888888886" height="56.888888888888886" rx="0" fill="hsl(218,75%,52%)"/><rect x="170.66666666666666" y="284.44444444444446" width="56.888888888888886" height="56.888888888888886" rx="0" fill="hsl(78,65%,62%)"/><rect x="227.55555555555554" y="284.44444444444446" width="56.888888888888886" height="56.888888888888886" rx="0" fill="hsl(78,65%,62%)"/><rect x="284.44444444444446" y="284.44444444444446" width="56.888888888888886" height="56.888888888888886" rx="6" fill="hsl(358,75%,42%)"/><rect x="341.3333333333333" y="284.44444444444446" width="56.888888888888886" height="56.888888888888886" rx="6" fill="hsl(218,75%,52%)"/><rect x="398.2222222222222" y="284.44444444444446" width="56.888888888888886" height="56.888888888888886" rx="0" fill="hsl(358,75%,42%)"/><rect x="455.1111111111111" y="284.44444444444446" width="56.888888888888886" height="56.888888888888886" rx="0" fill="hsl(218,75%,52%)"/><rect x="0" y="341.3333333333333" width="56.888888888888886" height="56.888888888888886" rx="0" fill="hsl(78,65%,62%)"/><rect x="56.888888888888886" y="341.3333333333333" width="56.888888888888886" height="56.888888888888886" rx="0" fill="hsl(358,75%,42%)"/><rect x="113.77777777777777" y="341.3333333333333" width="56.888888888888886" height="56.888888888888886" rx="0" fill="hsl(358,75%,42%)"/><rect x="170.66666666666666" y="341.3333333333333" width="56.888888888888886" height="56.888888888888886" rx="0" fill="hsl(358,75%,42%)"/><rect x="227.55555555555554" y="341.3333333333333" width="56.888888888888886" height="56.888888888888886" rx="0" fill="hsl(358,75%,42%)"/><rect x="284.44444444444446" y="341.3333333333333" width="56.888888888888886" height="56.888888888888886" rx="0" fill="hsl(78,65%,62%)"/><rect x="341.3333333333333" y="341.3333333333333" width="56.888888888888886" height="56.888888888888886" rx="0" fill="hsl(358,75%,42%)"/><rect x="398.2222222222222" y="341.3333333333333" width="56.888888888888886" height="56.888888888888886" rx="0" fill="hsl(78,65%,62%)"/><rect x="455.1111111111111" y="341.3333333333333" width="56.888888888888886" height="56.888888888888886" rx="0" fill="hsl(218,75%,52%)"/><rect x="0" y="398.2222222222222" width="56.888888888888886" height="56.888888888888886" rx="0" fill="hsl(358,75%,42%)"/><rect x="56.888888888888886" y="398.2222222222222" width="56.888888888888886" height="56.888888888888886" rx="0" fill="hsl(218,75%,52%)"/><rect x="113.77777777777777" y="398.2222222222222" width="56.888888888888886" height="56.888888888888886" rx="0" fill="hsl(218,75%,52%)"/><rect x="170.66666666666666" y="398.2222222222222" width="56.888888888888886" height="56.888888888888886" rx="0" fill="hsl(218,75%,52%)"/><rect x="227.55555555555554" y="398.2222222222222" width="56.888888888888886" height="56.888888888888886" rx="0" fill="hsl(78,65%,62%)"/><rect x="284.44444444444446" y="398.2222222222222" width="56.888888888888886" height="56.888888888888886" rx="0" fill="hsl(358,75%,42%)"/><rect x="341.3333333333333" y="398.2222222222222" width="56.888888888888886" height="56.888888888888886" rx="6" fill="hsl(218,75%,52%)"/><rect x="398.2222222222222" y="398.2222222222222" width="56.888888888888886" height="56.888888888888886" rx="0" fill="hsl(78,65%,62%)"/><rect x="455.1111111111111" y="398.2222222222222" width="56.888888888888886" height="56.888888888888886" rx="0" fill="hsl(358,75%,42%)"/><rect x="0" y="455.1111111111111" width="56.888888888888886" height="56.888888888888886" rx="0" fill="hsl(358,75%,42%)"/><rect x="56.888888888888886" y="455.1111111111111" width="56.888888888888886" height="56.888888888888886" rx="0" fill="hsl(218,75%,52%)"/><rect x="113.77777777777777" y="455.1111111111111" width="56.888888888888886" height="56.888888888888886" rx="0" fill="hsl(218,75%,52%)"/><rect x="170.66666666666666" y="455.1111111111111" width="56.888888888888886" height="56.888888888888886" rx="0" fill="hsl(218,75%,52%)"/><rect x="227.55555555555554" y="455.1111111111111" width="56.888888888888886" height="56.888888888888886" rx="0" fill="hsl(218,75%,52%)"/><rect x="284.44444444444446" y="455.1111111111111" width="56.888888888888886" height="56.888888888888886" rx="0" fill="hsl(218,75%,52%)"/><rect x="341.3333333333333" y="455.1111111111111" width="56.888888888888886" height="56.888888888888886" rx="0" fill="hsl(218,75%,52%)"/><rect x="398.2222222222222" y="455.1111111111111" width="56.888888888888886" height="56.888888888888886" rx="0" fill="hsl(78,65%,62%)"/><rect x="455.1111111111111" y="455.1111111111111" width="56.888888888888886" height="56.888888888888886" rx="0" fill="hsl(78,65%,62%)"/>
  </svg>