<svg xmlns="http://www.w3.org/2000/svg" width="512" height="512" viewBox="0 0 512 512">
  <defs>
    <filter id="gr"><feTurbulence type="fractalNoise" baseFrequency="0.075" numOctaves="1" result="n"/><feColorMatrix type="saturate" values="0.25"/></filter>
  </defs>
  <rect width="100%" height="100%" fill="white"/>
  <rect x="0" y="0" width="34.13333333333333" height="34.13333333333333" rx="0" fill="hsl(61,56%,75%)"/><rect x="34.13333333333333" y="0" width="34.13333333333333" height="34.13333333333333" rx="0" fill="hsl(61,56%,75%)"/><rect x="68.26666666666667" y="0" width="34.13333333333333" height="34.13333333333333" rx="0" fill="hsl(341,66%,55%)"/><rect x="102.4" y="0" width="34.13333333333333" height="34.13333333333333" rx="0" fill="hsl(201,66%,65%)"/><rect x="136.53333333333333" y="0" width="34.13333333333333" height="34.13333333333333" rx="0" fill="hsl(201,66%,65%)"/><rect x="170.66666666666666" y="0" width="34.13333333333333" height="34.13333333333333" rx="0" fill="hsl(201,66%,65%)"/><rect x="204.8" y="0" width="34.13333333333333" height="34.13333333333333" rx="0" fill="hsl(341,66%,55%)"/><rect x="238.93333333333334" y="0" width="34.13333333333333" height="34.13333333333333" rx="0" fill="hsl(201,66%,65%)"/><rect x="273.06666666666666" y="0" width="34.13333333333333" height="34.13333333333333" rx="0" fill="hsl(201,66%,65%)"/><rect x="307.2" y="0" width="34.13333333333333" height="34.13333333333333" rx="0" fill="hsl(61,56%,75%)"/><rect x="341.3333333333333" y="0" width="34.13333333333333" height="34.13333333333333" rx="0" fill="hsl(61,56%,75%)"/><rect x="375.46666666666664" y="0" width="34.13333333333333" height="34.13333333333333" rx="0" fill="hsl(341,66%,55%)"/><rect x="409.6" y="0" width="34.13333333333333" height="34.13333333333333" rx="0" fill="hsl(61,56%,75%)"/><rect x="443.73333333333335" y="0" width="34.13333333333333" height="34.13333333333333" rx="0" fill="hsl(341,66%,55%)"/><rect x="477.8666666666667" y="0" width="34.13333333333333" height="34.13333333333333" rx="0" fill="hsl(341,66%,55%)"/><rect x="0" y="34.13333333333333" width="34.13333333333333" height="34.13333333333333" rx="0" fill="hsl(341,66%,55%)"/><rect x="34.13333333333333" y="34.13333333333333" width="34.13333333333333" height="34.13333333333333" rx="0" fill="hsl(61,56%,75%)"/><rect x="68.26666666666667" y="34.13333333333333" width="34.13333333333333" height="34.13333333333333" rx="0" fill="hsl(341,66%,55%)"/><rect x="102.4" y="34.13333333333333" width="34.13333333333333" height="34.13333333333333" rx="0" fill="hsl(341,66%,55%)"/><rect x="136.53333333333333" y="34.13333333333333" width="34.13333333333333" height="34.13333333333333" rx="0" fill="hsl(341,66%,55%)"/><rect x="170.66666666666666" y="34.13333333333333" width="34.13333333333333" height="34.13333333333333" rx="0" fill="hsl(341,66%,55%)"/><rect x="204.8" y="34.13333333333333" width="34.13333333333333" height="34.13333333333333" rx="0" fill="hsl(61,56%,75%)"/><rect x="238.93333333333334" y="34.13333333333333" width="34.13333333333333" height="34.13333333333333" rx="0" fill="hsl(201,66%,65%)"/><rect x="273.06666666666666" y="34.13333333333333" width="34.13333333333333" height="34.13333333333333" rx="0" fill="hsl(341,66%,55%)"/><rect x="307.2" y="34.13333333333333" width="34.13333333333333" height="34.13333333333333" rx="0" fill="hsl(61,56%,75%)"/><rect x="341.3333333333333" y="34.13333333333333" width="34.13333333333333" height="34.13333333333333" rx="0" fill="hsl(61,56%,75%)"/><rect x="375.46666666666664" y="34.13333333333333" width="34.13333333333333" height="34.13333333333333" rx="0" fill="hsl(201,66%,65%)"/><rect x="409.6" y="34.13333333333333" width="34.13333333333333" height="34.13333333333333" rx="0" fill="hsl(201,66%,65%)"/><rect x="443.73333333333335" y="34.13333333333333" width="34.13333333333333" height="34.13333333333333" rx="0" fill="hsl(201,66%,65%)"/><rect x="477.8666666666667" y="34.13333333333333" width="34.13333333333333" height="34.13333333333333" rx="0" fill="hsl(61,56%,75%)"/><rect x="0" y="68.26666666666667" width="34.13333333333333" height="34.13333333333333" rx="0" fill="hsl(201,66%,65%)"/><rect x="34.13333333333333" y="68.26666666666667" width="34.13333333333333" height="34.13333333333333" rx="0" fill="hsl(341,66%,55%)"/><rect x="68.26666666666667" y="68.26666666666667" width="34.13333333333333" height="34.13333333333333" rx="0" fill="hsl(61,56%,75%)"/><rect x="102.4" y="68.26666666666667" width="34.13333333333333" height="34.13333333333333" rx="0" fill="hsl(201,66%,65%)"/><rect x="136.53333333333333" y="68.26666666666667" width="34.13333333333333" height="34.13333333333333" rx="0" fill="hsl(61,56%,75%)"/><rect x="170.66666666666666" y="68.26666666666667" width="34.13333333333333" height="34.13333333333333" rx="0" fill="hsl(61,56%,75%)"/><rect x="204.8" y="68.26666666666667" width="34.13333333333333" height="34.13333333333333" rx="0" fill="hsl(201,66%,65%)"/><rect x="238.93333333333334" y="68.26666666666667" width="34.13333333333333" height="34.13333333333333" rx="0" fill="hsl(201,66%,65%)"/><rect x="273.06666666666666" y="68.26666666666667" width="34.13333333333333" height="34.13333333333333" rx="0" fill="hsl(341,66%,55%)"/><rect x="307.2" y="68.26666666666667" width="34.13333333333333" height="34.13333333333333" rx="0" fill="hsl(201,66%,65%)"/><rect x="341.3333333333333" y="68.26666666666667" width="34.13333333333333" height="34.13333333333333" rx="0" fill="hsl(61,56%,75%)"/><rect x="375.46666666666664" y="68.26666666666667" width="34.13333333333333" height="34.13333333333333" rx="0" fill="hsl(61,56%,75%)"/><rect x="409.6" y="68.26666666666667" width="34.13333333333333" height="34.13333333333333" rx="0" fill="hsl(201,66%,65%)"/><rect x="443.73333333333335" y="68.26666666666667" width="34.13333333333333" height="34.13333333333333" rx="0" fill="hsl(201,66%,65%)"/><rect x="477.8666666666667" y="68.26666666666667" width="34.13333333333333" height="34.13333333333333" rx="6" fill="hsl(341,66%,55%)"/><rect x="0" y="102.4" width="34.13333333333333" height="34.13333333333333" rx="0" fill="hsl(61,56%,75%)"/><rect x="34.13333333333333" y="102.4" width="34.13333333333333" height="34.13333333333333" rx="0" fill="hsl(201,66%,65%)"/><rect x="68.26666666666667" y="102.4" width="34.13333333333333" height="34.13333333333333" rx="0" fill="hsl(201,66%,65%)"/><rect x="102.4" y="102.4" width="34.13333333333333" height="34.13333333333333" rx="0" fill="hsl(201,66%,65%)"/><rect x="136.53333333333333" y="102.4" width="34.13333333333333" height="34.13333333333333" rx="0" fill="hsl(61,56%,75%)"/><rect x="170.66666666666666" y="102.4" width="34.13333333333333" height="34.13333333333333" rx="0" fill="hsl(201,66%,65%)"/><rect x="204.8" y="102.4" width="34.13333333333333" height="34.13333333333333" rx="0" fill="hsl(61,56%,75%)"/><rect x="238.93333333333334" y="102.4" width="34.13333333333333" height="34.13333333333333" rx="0" fill="hsl(61,56%,75%)"/><rect x="273.06666666666666" y="102.4" width="34.13333333333333" height="34.13333333333333" rx="0" fill="hsl(341,66%,55%)"/><rect x="307.2" y="102.4" width="34.13333333333333" height="34.13333333333333" rx="0" fill="hsl(61,56%,75%)"/><rect x="341.3333333333333" y="102.4" width="34.13333333333333" height="34.13333333333333" rx="6" fill="hsl(341,66%,55%)"/><rect x="375.46666666666664" y="102.4" width="34.13333333333333" height="34.13333333333333" rx="0" fill="hsl(341,66%,55%)"/><rect x="409.6" y="102.4" width="34.13333333333333" height="34.13333333333333" rx="0" fill="hsl(341,66%,55%)"/><rect x="443.73333333333335" y="102.4" width="34.13333333333333" height="34.13333333333333" rx="0" fill="hsl(61,56%,75%)"/><rect x="477.8666666666667" y="102.4" width="34.13333333333333" height="34.13333333333333" rx="0" fill="hsl(61,56%,75%)"/><rect x="0" y="136.53333333333333" width="34.13333333333333" height="34.13333333333333" rx="0" fill="hsl(201,66%,65%)"/><rect x="34.13333333333333" y="136.53333333333333" width="34.13333333333333" height="34.13333333333333" rx="0" fill="hsl(341,66%,55%)"/><rect x="68.26666666666667" y="136.53333333333333" width="34.13333333333333" height="34.13333333333333" rx="0" fill="hsl(61,56%,75%)"/><rect x="102.4" y="136.53333333333333" width="34.13333333333333" height="34.13333333333333" rx="6" fill="hsl(341,66%,55%)"/><rect x="136.53333333333333" y="136.53333333333333" width="34.13333333333333" height="34.13333333333333" rx="0" fill="hsl(201,66%,65%)"/><rect x="170.66666666666666" y="136.53333333333333" width="34.13333333333333" height="34.13333333333333" rx="0" fill="hsl(61,56%,75%)"/><rect x="204.8" y="136.53333333333333" width="34.13333333333333" height="34.13333333333333" rx="0" fill="hsl(201,66%,65%)"/><rect x="238.93333333333334" y="136.53333333333333" width="34.13333333333333" height="34.13333333333333" rx="0" fill="hsl(61,56%,75%)"/><rect x="273.06666666666666" y="136.53333333333333" width="34.13333333333333" height="34.13333333333333" rx="0" fill="hsl(201,66%,65%)"/><rect x="307.2" y="136.53333333333333" width="34.13333333333333" height="34.13333333333333" rx="0" fill="hsl(61,56%,75%)"/><rect x="341.3333333333333" y="136.53333333333333" width="34.13333333333333" height="34.13333333333333" rx="0" fill="hsl(61,56%,75%)"/><rect x="375.46666666666664" y="136.53333333333333" width="34.13333333333333" height="34.13333333333333" rx="0" fill="hsl(61,56%,75%)"/><rect x="409.6" y="136.53333333333333" width="34.13333333333333" height="34.13333333333333" rx="0" fill="hsl(61,56%,75%)"/><rect x="443.73333333333335" y="136.53333333333333" width="34.13333333333333" height="34.13333333333333" rx="0" fill="hsl(201,66%,65%)"/><rect x="477.8666666666667" y="136.53333333333333" width="34.13333333333333" height="34.13333333333333" rx="0" fill="hsl(201,66%,65%)"/><rect x="0" y="170.66666666666666" width="34.13333333333333" height="34.13333333333333" rx="6" fill="hsl(341,66%,55%)"/><rect x="34.13333333333333" y="170.66666666666666" width="34.13333333333333" height="34.13333333333333" rx="0" fill="hsl(201,66%,65%)"/><rect x="68.26666666666667" y="170.66666666666666" width="34.13333333333333" height="34.13333333333333" rx="0" fill="hsl(201,66%,65%)"/><rect x="102.4" y="170.66666666666666" width="34.13333333333333" height="34.13333333333333" rx="0" fill="hsl(341,66%,55%)"/><rect x="136.53333333333333" y="170.66666666666666" width="34.13333333333333" height="34.13333333333333" rx="0" fill="hsl(61,56%,75%)"/><rect x="170.66666666666666" y="170.66666666666666" width="34.13333333333333" height="34.13333333333333" rx="0" fill="hsl(201,66%,65%)"/><rect x="204.8" y="170.66666666666666" width="34.13333333333333" height="34.13333333333333" rx="0" fill="hsl(61,56%,75%)"/><rect x="238.93333333333334" y="170.66666666666666" width="34.13333333333333" height="34.13333333333333" rx="0" fill="hsl(341,66%,55%)"/><rect x="273.06666666666666" y="170.66666666666666" width="34.13333333333333" height="34.13333333333333" rx="0" fill="hsl(341,66%,55%)"/><rect x="307.2" y="170.66666666666666" width="34.13333333333333" height="34.13333333333333" rx="0" fill="hsl(201,66%,65%)"/><rect x="341.3333333333333" y="170.66666666666666" width="34.13333333333333" height="34.13333333333333" rx="0" fill="hsl(61,56%,75%)"/><rect x="375.46666666666664" y="170.66666666666666" width="34.13333333333333" height="34.13333333333333" rx="0" fill="hsl(341,66%,55%)"/><rect x="409.6" y="170.66666666666666" width="34.13333333333333" height="34.13333333333333" rx="0" fill="hsl(61,56%,75%)"/><rect x="443.73333333333335" y="170.66666666666666" width="34.13333333333333" height="34.13333333333333" rx="0" fill="hsl(201,66%,65%)"/><rect x="477.8666666666667" y="170.66666666666666" width="34.13333333333333" height="34.13333333333333" rx="0" fill="hsl(341,66%,55%)"/><rect x="0" y="204.8" width="34.13333333333333" height="34.13333333333333" rx="0" fill="hsl(341,66%,55%)"/><rect x="34.13333333333333" y="204.8" width="34.13333333333333" height="34.13333333333333" rx="0" fill="hsl(61,56%,75%)"/><rect x="68.26666666666667" y="204.8" width="34.13333333333333" height="34.13333333333333" rx="0" fill="hsl(61,56%,75%)"/><rect x="102.4" y="204.8" width="34.13333333333333" height="34.13333333333333" rx="0" fill="hsl(61,56%,75%)"/><rect x="136.53333333333333" y="204.8" width="34.13333333333333" height="34.13333333333333" rx="0" fill="hsl(201,66%,65%)"/><rect x="170.66666666666666" y="204.8" width="34.13333333333333" height="34.13333333333333" rx="0" fill="hsl(61,56%,75%)"/><rect x="204.8" y="204.8" width="34.13333333333333" height="34.13333333333333" rx="0" fill="hsl(201,66%,65%)"/><rect x="238.93333333333334" y="204.8" width="34.13333333333333" height="34.13333333333333" rx="0" fill="hsl(61,56%,75%)"/><rect x="273.06666666666666" y="204.8" width="34.13333333333333" height="34.13333333333333" rx="0" fill="hsl(201,66%,65%)"/><rect x="307.2" y="204.8" width="34.13333333333333" height="34.13333333333333" rx="0" fill="hsl(341,66%,55%)"/><rect x="341.3333333333333" y="204.8" width="34.13333333333333" height="34.13333333333333" rx="0" fill="hsl(61,56%,75%)"/><rect x="375.46666666666664" y="204.8" width="34.13333333333333" height="34.13333333333333" rx="0" fill="hsl(201,66%,65%)"/><rect x="409.6" y="204.8" width="34.13333333333333" height="34.13333333333333" rx="0" fill="hsl(61,56%,75%)"/><rect x="443.73333333333335" y="204.8" width="34.13333333333333" height="34.13333333333333" rx="0" fill="hsl(61,56%,75%)"/><rect x="477.8666666666667" y="204.8" width="34.13333333333333" height="34.13333333333333" rx="0" fill="hsl(341,66%,55%)"/><rect x="0" y="238.93333333333334" width="34.13333333333333" height="34.13333333333333" rx="0" fill="hsl(341,66%,55%)"/><rect x="34.13333333333333" y="238.93333333333334" width="34.13333333333333" height="34.13333333333333" rx="0" fill="hsl(61,56%,75%)"/><rect x="68.26666666666667" y="238.93333333333334" width="34.13333333333333" height="34.13333333333333" rx="0" fill="hsl(201,66%,65%)"/><rect x="102.4" y="238.93333333333334" width="34.13333333333333" height="34.13333333333333" rx="0" fill="hsl(61,56%,75%)"/><rect x="136.53333333333333" y="238.93333333333334" width="34.13333333333333" height="34.13333333333333" rx="0" fill="hsl(61,56%,75%)"/><rect x="170.66666666666666" y="238.93333333333334" width="34.13333333333333" height="34.13333333333333" rx="0" fill="hsl(61,56%,75%)"/><rect x="204.8" y="238.93333333333334" width="34.13333333333333" height="34.13333333333333" rx="0" fill="hsl(341,66%,55%)"/><rect x="238.93333333333334" y="238.93333333333334" width="34.13333333333333" height="34.13333333333333" rx="6" fill="hsl(61,56%,75%)"/><rect x="273.06666666666666" y="238.93333333333334" width="34.13333333333333" height="34.13333333333333" rx="0" fill="hsl(341,66%,55%)"/><rect x="307.2" y="238.93333333333334" width="34.13333333333333" height="34.13333333333333" rx="0" fill="hsl(61,56%,75%)"/><rect x="341.3333333333333" y="238.93333333333334" width="34.13333333333333" height="34.13333333333333" rx="0" fill="hsl(201,66%,65%)"/><rect x="375.46666666666664" y="238.93333333333334" width="34.13333333333333" height="34.13333333333333" rx="0" fill="hsl(341,66%,55%)"/><rect x="409.6" y="238.93333333333334" width="34.13333333333333" height="34.13333333333333" rx="0" fill="hsl(201,66%,65%)"/><rect x="443.73333333333335" y="238.93333333333334" width="34.13333333333333" height="34.13333333333333" rx="0" fill="hsl(61,56%,75%)"/><rect x="477.8666666666667" y="238.93333333333334" width="34.13333333333333" height="34.13333333333333" rx="6" fill="hsl(61,56%,75%)"/><rect x="0" y="273.06666666666666" width="34.13333333333333" height="34.13333333333333" rx="0" fill="hsl(201,66%,65%)"/><rect x="34.13333333333333" y="273.06666666666666" width="34.13333333333333" height="34.13333333333333" rx="0" fill="hsl(61,56%,75%)"/><rect x="68.26666666666667" y="273.06666666666666" width="34.13333333333333" height="34.13333333333333" rx="0" fill="hsl(201,66%,65%)"/><rect x="102.4" y="273.06666666666666" width="34.13333333333333" height="34.13333333333333" rx="0" fill="hsl(201,66%,65%)"/><rect x="136.53333333333333" y="273.06666666666666" width="34.13333333333333" height="34.13333333333333" rx="0" fill="hsl(61,56%,75%)"/><rect x="170.66666666666666" y="273.06666666666666" width="34.13333333333333" height="34.13333333333333" rx="0" fill="hsl(61,56%,75%)"/><rect x="204.8" y="273.06666666666666" width="34.13333333333333" height="34.13333333333333" rx="0" fill="hsl(341,66%,55%)"/><rect x="238.93333333333334" y="273.06666666666666" width="34.13333333333333" height="34.13333333333333" rx="0" fill="hsl(61,56%,75%)"/><rect x="273.06666666666666" y="273.06666666666666" width="34.13333333333333" height="34.13333333333333" rx="0" fill="hsl(61,56%,75%)"/><rect x="307.2" y="273.06666666666666" width="34.13333333333333" height="34.13333333333333" rx="0" fill="hsl(61,56%,75%)"/><rect x="341.3333333333333" y="273.06666666666666" width="34.13333333333333" height="34.13333333333333" rx="0" fill="hsl(61,56%,75%)"/><rect x="375.46666666666664" y="273.06666666666666" width="34.13333333333333" height="34.13333333333333" rx="0" fill="hsl(201,66%,65%)"/><rect x="409.6" y="273.06666666666666" width="34.13333333333333" height="34.13333333333333" rx="0" fill="hsl(61,56%,75%)"/><rect x="443.73333333333335" y="273.06666666666666" width="34.13333333333333" height="34.13333333333333" rx="0" fill="hsl(341,66%,55%)"/><rect x="477.8666666666667" y="273.06666666666666" width="34.13333333333333" height="34.13333333333333" rx="0" fill="hsl(61,56%,75%)"/><rect x="0" y="307.2" width="34.13333333333333" height="34.13333333333333" rx="6" fill="hsl(341,66%,55%)"/><rect x="34.13333333333333" y="307.2" width="34.13333333333333" height="34.13333333333333" rx="0" fill="hsl(341,66%,55%)"/><rect x="68.26666666666667" y="307.2" width="34.13333333333333" height="34.13333333333333" rx="0" fill="hsl(61,56%,75%)"/><rect x="102.4" y="307.2" width="34.13333333333333" height="34.13333333333333" rx="0" fill="hsl(61,56%,75%)"/><rect x="136.53333333333333" y="307.2" width="34.13333333333333" height="34.13333333333333" rx="6" fill="hsl(341,66%,55%)"/><rect x="170.66666666666666" y="307.2" width="34.13333333333333" height="34.13333333333333" rx="0" fill="hsl(201,66%,65%)"/><rect x="204.8" y="307.2" width="34.13333333333333" height="34.13333333333333" rx="6" fill="hsl(61,56%,75%)"/><rect x="238.93333333333334" y="307.2" width="34.13333333333333" height="34.13333333333333" rx="0" fill="hsl(201,66%,65%)"/><rect x="273.06666666666666" y="307.2" width="34.13333333333333" height="34.13333333333333" rx="0" fill="hsl(201,66%,65%)"/><rect x="307.2" y="307.2" width="34.13333333333333" height="34.13333333333333" rx="0" fill="hsl(201,66%,65%)"/><rect x="341.3333333333333" y="307.2" width="34.13333333333333" height="34.13333333333333" rx="0" fill="hsl(201,66%,65%)"/><rect x="375.46666666666664" y="307.2" width="34.13333333333333" height="34.13333333333333" rx="0" fill="hsl(201,66%,65%)"/><rect x="409.6" y="307.2" width="34.13333333333333" height="34.13333333333333" rx="0" fill="hsl(61,56%,75%)"/><rect x="443.73333333333335" y="307.2" width="34.13333333333333" height="34.13333333333333" rx="0" fill="hsl(61,56%,75%)"/><rect x="477.8666666666667" y="307.2" width="34.13333333333333" height="34.13333333333333" rx="0" fill="hsl(61,56%,75%)"/><rect x="0" y="341.3333333333333" width="34.13333333333333" height="34.13333333333333" rx="0" fill="hsl(61,56%,75%)"/><rect x="34.13333333333333" y="341.3333333333333" width="34.13333333333333" height="34.13333333333333" rx="6" fill="hsl(61,56%,75%)"/><rect x="68.26666666666667" y="341.3333333333333" width="34.13333333333333" height="34.13333333333333" rx="0" fill="hsl(341,66%,55%)"/><rect x="102.4" y="341.3333333333333" width="34.13333333333333" height="34.13333333333333" rx="0" fill="hsl(61,56%,75%)"/><rect x="136.53333333333333" y="341.3333333333333" width="34.13333333333333" height="34.13333333333333" rx="6" fill="hsl(201,66%,65%)"/><rect x="170.66666666666666" y="341.3333333333333" width="34.13333333333333" height="34.13333333333333" rx="0" fill="hsl(201,66%,65%)"/><rect x="204.8" y="341.3333333333333" width="34.13333333333333" height="34.13333333333333" rx="0" fill="hsl(201,66%,65%)"/><rect x="238.93333333333334" y="341.3333333333333" width="34.13333333333333" height="34.13333333333333" rx="6" fill="hsl(201,66%,65%)"/><rect x="273.06666666666666" y="341.3333333333333" width="34.13333333333333" height="34.13333333333333" rx="6" fill="hsl(201,66%,65%)"/><rect x="307.2" y="341.3333333333333" width="34.13333333333333" height="34.13333333333333" rx="0" fill="hsl(61,56%,75%)"/><rect x="341.3333333333333" y="341.3333333333333" width="34.13333333333333" height="34.13333333333333" rx="0" fill="hsl(341,66%,55%)"/><rect x="375.46666666666664" y="341.3333333333333" width="34.13333333333333" height="34.13333333333333" rx="6" fill="hsl(61,56%,75%)"/><rect x="409.6" y="341.3333333333333" width="34.13333333333333" height="34.13333333333333" rx="6" fill="hsl(201,66%,65%)"/><rect x="443.73333333333335" y="341.3333333333333" width="34.13333333333333" height="34.13333333333333" rx="0" fill="hsl(341,66%,55%)"/><rect x="477.8666666666667" y="341.3333333333333" width="34.13333333333333" height="34.13333333333333" rx="0" fill="hsl(341,66%,55%)"/><rect x="0" y="375.46666666666664" width="34.13333333333333" height="34.13333333333333" rx="0" fill="hsl(201,66%,65%)"/><rect x="34.13333333333333" y="375.46666666666664" width="34.13333333333333" height="34.13333333333333" rx="0" fill="hsl(201,66%,65%)"/><rect x="68.26666666666667" y="375.46666666666664" width="34.13333333333333" height="34.13333333333333" rx="0" fill="hsl(201,66%,65%)"/><rect x="102.4" y="375.46666666666664" width="34.13333333333333" height="34.13333333333333" rx="0" fill="hsl(201,66%,65%)"/><rect x="136.53333333333333" y="375.46666666666664" width="34.13333333333333" height="34.13333333333333" rx="0" fill="hsl(201,66%,65%)"/><rect x="170.66666666666666" y="375.46666666666664" width="34.13333333333333" height="34.13333333333333" rx="6" fill="hsl(201,66%,65%)"/><rect x="204.8" y="375.46666666666664" width="34.13333333333333" height="34.13333333333333" rx="0" fill="hsl(61,56%,75%)"/><rect x="238.93333333333334" y="375.46666666666664" width="34.13333333333333" height="34.13333333333333" rx="0" fill="hsl(341,66%,55%)"/><rect x="273.06666666666666" y="375.46666666666664" width="34.13333333333333" height="34.13333333333333" rx="0" fill="hsl(341,66%,55%)"/><rect x="307.2" y="375.46666666666664" width="34.13333333333333" height="34.13333333333333" rx="0" fill="hsl(201,66%,65%)"/><rect x="341.3333333333333" y="375.46666666666664" width="34.13333333333333" height="34.13333333333333" rx="0" fill="hsl(341,66%,55%)"/><rect x="375.46666666666664" y="375.46666666666664" width="34.13333333333333" height="34.13333333333333" rx="0" fill="hsl(341,66%,55%)"/><rect x="409.6" y="375.46666666666664" width="34.13333333333333" height="34.13333333333333" rx="0" fill="hsl(341,66%,55%)"/><rect x="443.73333333333335" y="375.46666666666664" width="34.13333333333333" height="34.13333333333333" rx="0" fill="hsl(341,66%,55%)"/><rect x="477.8666666666667" y="375.46666666666664" width="34.13333333333333" height="34.13333333333333" rx="0" fill="hsl(341,66%,55%)"/><rect x="0" y="409.6" width="34.13333333333333" height="34.13333333333333" rx="0" fill="hsl(341,66%,55%)"/><rect x="34.13333333333333" y="409.6" width="34.13333333333333" height="34.13333333333333" rx="0" fill="hsl(201,66%,65%)"/><rect x="68.26666666666667" y="409.6" width="34.13333333333333" height="34.13333333333333" rx="0" fill="hsl(61,56%,75%)"/><rect x="102.4" y="409.6" width="34.13333333333333" height="34.13333333333333" rx="0" fill="hsl(61,56%,75%)"/><rect x="136.53333333333333" y="409.6" width="34.13333333333333" height="34.13333333333333" rx="0" fill="hsl(61,56%,75%)"/><rect x="170.66666666666666" y="409.6" width="34.13333333333333" height="34.13333333333333" rx="0" fill="hsl(61,56%,75%)"/><rect x="204.8" y="409.6" width="34.13333333333333" height="34.13333333333333" rx="0" fill="hsl(61,56%,75%)"/><rect x="238.93333333333334" y="409.6" width="34.13333333333333" height="34.13333333333333" rx="0" fill="hsl(341,66%,55%)"/><rect x="273.06666666666666" y="409.6" width="34.13333333333333" height="34.13333333333333" rx="0" fill="hsl(61,56%,75%)"/><rect x="307.2" y="409.6" width="34.13333333333333" height="34.13333333333333" rx="0" fill="hsl(201,66%,65%)"/><rect x="341.3333333333333" y="409.6" width="34.13333333333333" height="34.13333333333333" rx="0" fill="hsl(61,56%,75%)"/><rect x="375.46666666666664" y="409.6" width="34.13333333333333" height="34.13333333333333" rx="6" fill="hsl(201,66%,65%)"/><rect x="409.6" y="409.6" width="34.13333333333333" height="34.13333333333333" rx="0" fill="hsl(341,66%,55%)"/><rect x="443.73333333333335" y="409.6" width="34.13333333333333" height="34.13333333333333" rx="0" fill="hsl(61,56%,75%)"/><rect x="477.8666666666667" y="409.6" width="34.13333333333333" height="34.13333333333333" rx="0" fill="hsl(201,66%,65%)"/><rect x="0" y="443.73333333333335" width="34.13333333333333" height="34.13333333333333" rx="0" fill="hsl(341,66%,55%)"/><rect x="34.13333333333333" y="443.73333333333335" width="34.13333333333333" height="34.13333333333333" rx="0" fill="hsl(61,56%,75%)"/><rect x="68.26666666666667" y="443.73333333333335" width="34.13333333333333" height="34.13333333333333" rx="0" fill="hsl(61,56%,75%)"/><rect x="102.4" y="443.73333333333335" width="34.13333333333333" height="34.13333333333333" rx="0" fill="hsl(201,66%,65%)"/><rect x="136.53333333333333" y="443.73333333333335" width="34.13333333333333" height="34.13333333333333" rx="0" fill="hsl(341,66%,55%)"/><rect x="170.66666666666666" y="443.73333333333335" width="34.13333333333333" height="34.13333333333333" rx="0" fill="hsl(61,56%,75%)"/><rect x="204.8" y="443.73333333333335" width="34.13333333333333" height="34.13333333333333" rx="0" fill="hsl(201,66%,65%)"/><rect x="238.93333333333334" y="443.73333333333335" width="34.13333333333333" height="34.13333333333333" rx="0" fill="hsl(341,66%,55%)"/><rect x="273.06666666666666" y="443.73333333333335" width="34.13333333333333" height="34.13333333333333" rx="0" fill="hsl(201,66%,65%)"/><rect x="307.2" y="443.73333333333335" width="34.13333333333333" height="34.13333333333333" rx="6" fill="hsl(61,56%,75%)"/><rect x="341.3333333333333" y="443.73333333333335" width="34.13333333333333" height="34.13333333333333" rx="0" fill="hsl(341,66%,55%)"/><rect x="375.46666666666664" y="443.73333333333335" width="34.13333333333333" height="34.13333333333333" rx="0" fill="hsl(61,56%,75%)"/><rect x="409.6" y="443.73333333333335" width="34.13333333333333" height="34.13333333333333" rx="0" fill="hsl(61,56%,75%)"/><rect x="443.73333333333335" y="443.73333333333335" width="34.13333333333333" height="34.13333333333333" rx="6" fill="hsl(201,66%,65%)"/><rect x="477.8666666666667" y="443.73333333333335" width="34.13333333333333" height="34.13333333333333" rx="0" fill="hsl(61,56%,75%)"/><rect x="0" y="477.8666666666667" width="34.13333333333333" height="34.13333333333333" rx="6" fill="hsl(61,56%,75%)"/><rect x="34.13333333333333" y="477.8666666666667" width="34.13333333333333" height="34.13333333333333" rx="0" fill="hsl(201,66%,65%)"/><rect x="68.26666666666667" y="477.8666666666667" width="34.13333333333333" height="34.13333333333333" rx="0" fill="hsl(61,56%,75%)"/><rect x="102.4" y="477.8666666666667" width="34.13333333333333" height="34.13333333333333" rx="0" fill="hsl(61,56%,75%)"/><rect x="136.53333333333333" y="477.8666666666667" width="34.13333333333333" height="34.13333333333333" rx="0" fill="hsl(201,66%,65%)"/><rect x="170.66666666666666" y="477.8666666666667" width="34.13333333333333" height="34.13333333333333" rx="0" fill="hsl(201,66%,65%)"/><rect x="204.8" y="477.8666666666667" width="34.13333333333333" height="34.13333333333333" rx="0" fill="hsl(341,66%,55%)"/><rect x="238.93333333333334" y="477.8666666666667" width="34.13333333333333" height="34.13333333333333" rx="0" fill="hsl(341,66%,55%)"/><rect x="273.06666666666666" y="477.8666666666667" width="34.13333333333333" height="34.13333333333333" rx="0" fill="hsl(61,56%,75%)"/><rect x="307.2" y="477.8666666666667" width="34.13333333333333" height="34.13333333333333" rx="0" fill="hsl(201,66%,65%)"/><rect x="341.3333333333333" y="477.8666666666667" width="34.13333333333333" height="34.13333333333333" rx="0" fill="hsl(341,66%,55%)"/><rect x="375.46666666666664" y="477.8666666666667" width="34.13333333333333" height="34.13333333333333" rx="0" fill="hsl(201,66%,65%)"/><rect x="409.6" y="477.8666666666667" width="34.13333333333333" height="34.13333333333333" rx="0" fill="hsl(61,56%,75%)"/><rect x="443.73333333333335" y="477.8666666666667" width="34.13333333333333" height="34.13333333333333" rx="0" fill="hsl(61,56%,75%)"/><rect x="477.8666666666667" y="477.8666666666667" width="34.13333333333333" height="34.13333333333333" rx="0" fill="hsl(61,56%,75%)"/>
  </svg>