<svg xmlns="http://www.w3.org/2000/svg" width="512" height="512" viewBox="0 0 512 512">
  <defs>
    <filter id="gr"><feTurbulence type="fractalNoise" baseFrequency="0.035" numOctaves="1" result="n"/><feColorMatrix type="saturate" values="0.25"/></filter>
  </defs>
  <rect width="100%" height="100%" fill="white"/>
  <rect x="0" y="0" width="28.444444444444443" height="28.444444444444443" rx="0" fill="hsl(73,69%,55%)"/><rect x="28.444444444444443" y="0" width="28.444444444444443" height="28.444444444444443" rx="6" fill="hsl(293,69%,65%)"/><rect x="56.888888888888886" y="0" width="28.444444444444443" height="28.444444444444443" rx="0" fill="hsl(73,69%,55%)"/><rect x="85.33333333333333" y="0" width="28.444444444444443" height="28.444444444444443" rx="0" fill="hsl(153,59%,75%)"/><rect x="113.77777777777777" y="0" width="28.444444444444443" height="28.444444444444443" rx="0" fill="hsl(73,69%,55%)"/><rect x="142.22222222222223" y="0" width="28.444444444444443" height="28.444444444444443" rx="0" fill="hsl(293,69%,65%)"/><rect x="170.66666666666666" y="0" width="28.444444444444443" height="28.444444444444443" rx="0" fill="hsl(73,69%,55%)"/><rect x="199.1111111111111" y="0" width="28.444444444444443" height="28.444444444444443" rx="0" fill="hsl(153,59%,75%)"/><rect x="227.55555555555554" y="0" width="28.444444444444443" height="28.444444444444443" rx="0" fill="hsl(73,69%,55%)"/><rect x="256" y="0" width="28.444444444444443" height="28.444444444444443" rx="0" fill="hsl(153,59%,75%)"/><rect x="284.44444444444446" y="0" width="28.444444444444443" height="28.444444444444443" rx="6" fill="hsl(153,59%,75%)"/><rect x="312.88888888888886" y="0" width="28.444444444444443" height="28.444444444444443" rx="0" fill="hsl(293,69%,65%)"/><rect x="341.3333333333333" y="0" width="28.444444444444443" height="28.444444444444443" rx="0" fill="hsl(153,59%,75%)"/><rect x="369.77777777777777" y="0" width="28.444444444444443" height="28.444444444444443" rx="0" fill="hsl(153,59%,75%)"/><rect x="398.2222222222222" y="0" width="28.444444444444443" height="28.444444444444443" rx="0" fill="hsl(73,69%,55%)"/><rect x="426.66666666666663" y="0" width="28.444444444444443" height="28.444444444444443" rx="0" fill="hsl(293,69%,65%)"/><rect x="455.1111111111111" y="0" width="28.444444444444443" height="28.444444444444443" rx="0" fill="hsl(153,59%,75%)"/><rect x="483.55555555555554" y="0" width="28.444444444444443" height="28.444444444444443" rx="0" fill="hsl(73,69%,55%)"/><rect x="0" y="28.444444444444443" width="28.444444444444443" height="28.444444444444443" rx="0" fill="hsl(153,59%,75%)"/><rect x="28.444444444444443" y="28.444444444444443" width="28.444444444444443" height="28.444444444444443" rx="0" fill="hsl(73,69%,55%)"/><rect x="56.888888888888886" y="28.444444444444443" width="28.444444444444443" height="28.444444444444443" rx="0" fill="hsl(293,69%,65%)"/><rect x="85.33333333333333" y="28.444444444444443" width="28.444444444444443" height="28.444444444444443" rx="0" fill="hsl(293,69%,65%)"/><rect x="113.77777777777777" y="28.444444444444443" width="28.444444444444443" height="28.444444444444443" rx="0" fill="hsl(73,69%,55%)"/><rect x="142.22222222222223" y="28.444444444444443" width="28.444444444444443" height="28.444444444444443" rx="0" fill="hsl(73,69%,55%)"/><rect x="170.66666666666666" y="28.444444444444443" width="28.444444444444443" height="28.444444444444443" rx="6" fill="hsl(153,59%,75%)"/><rect x="199.1111111111111" y="28.444444444444443" width="28.444444444444443" height="28.444444444444443" rx="0" fill="hsl(153,59%,75%)"/><rect x="227.55555555555554" y="28.444444444444443" width="28.444444444444443" height="28.444444444444443" rx="0" fill="hsl(293,69%,65%)"/><rect x="256" y="28.444444444444443" width="28.444444444444443" height="28.444444444444443" rx="0" fill="hsl(73,69%,55%)"/><rect x="284.44444444444446" y="28.444444444444443" width="28.444444444444443" height="28.444444444444443" rx="0" fill="hsl(153,59%,75%)"/><rect x="312.88888888888886" y="28.444444444444443" width="28.444444444444443" height="28.444444444444443" rx="0" fill="hsl(153,59%,75%)"/><rect x="341.3333333333333" y="28.444444444444443" width="28.444444444444443" height="28.444444444444443" rx="0" fill="hsl(293,69%,65%)"/><rect x="369.77777777777777" y="28.444444444444443" width="28.444444444444443" height="28.444444444444443" rx="0" fill="hsl(153,59%,75%)"/><rect x="398.2222222222222" y="28.444444444444443" width="28.444444444444443" height="28.444444444444443" rx="0" fill="hsl(293,69%,65%)"/><rect x="426.66666666666663" y="28.444444444444443" width="28.444444444444443" height="28.444444444444443" rx="0" fill="hsl(153,59%,75%)"/><rect x="455.1111111111111" y="28.444444444444443" width="28.444444444444443" height="28.444444444444443" rx="0" fill="hsl(153,59%,75%)"/><rect x="483.55555555555554" y="28.444444444444443" width="28.444444444444443" height="28.444444444444443" rx="0" fill="hsl(153,59%,75%)"/><rect x="0" y="56.888888888888886" width="28.444444444444443" height="28.444444444444443" rx="0" fill="hsl(73,69%,55%)"/><rect x="28.444444444444443" y="56.888888888888886" width="28.444444444444443" height="28.444444444444443" rx="0" fill="hsl(293,69%,65%)"/><rect x="56.888888888888886" y="56.888888888888886" width="28.444444444444443" height="28.444444444444443" rx="0" fill="hsl(73,69%,55%)"/><rect x="85.33333333333333" y="56.888888888888886" width="28.444444444444443" height="28.444444444444443" rx="0" fill="hsl(293,69%,65%)"/><rect x="113.77777777777777" y="56.888888888888886" width="28.444444444444443" height="28.444444444444443" rx="0" fill="hsl(293,69%,65%)"/><rect x="142.22222222222223" y="56.888888888888886" width="28.444444444444443" height="28.444444444444443" rx="0" fill="hsl(153,59%,75%)"/><rect x="170.66666666666666" y="56.888888888888886" width="28.444444444444443" height="28.444444444444443" rx="0" fill="hsl(73,69%,55%)"/><rect x="199.1111111111111" y="56.888888888888886" width="28.444444444444443" height="28.444444444444443" rx="0" fill="hsl(153,59%,75%)"/><rect x="227.55555555555554" y="56.888888888888886" width="28.444444444444443" height="28.444444444444443" rx="0" fill="hsl(293,69%,65%)"/><rect x="256" y="56.888888888888886" width="28.444444444444443" height="28.444444444444443" rx="0" fill="hsl(153,59%,75%)"/><rect x="284.44444444444446" y="56.888888888888886" width="28.444444444444443" height="28.444444444444443" rx="0" fill="hsl(73,69%,55%)"/><rect x="312.88888888888886" y="56.888888888888886" width="28.444444444444443" height="28.444444444444443" rx="6" fill="hsl(153,59%,75%)"/><rect x="341.3333333333333" y="56.888888888888886" width="28.444444444444443" height="28.444444444444443" rx="0" fill="hsl(293,69%,65%)"/><rect x="369.77777777777777" y="56.888888888888886" width="28.444444444444443" height="28.444444444444443" rx="0" fill="hsl(73,69%,55%)"/><rect x="398.2222222222222" y="56.888888888888886" width="28.444444444444443" height="28.444444444444443" rx="0" fill="hsl(293,69%,65%)"/><rect x="426.66666666666663" y="56.888888888888886" width="28.444444444444443" height="28.444444444444443" rx="0" fill="hsl(153,59%,75%)"/><rect x="455.1111111111111" y="56.888888888888886" width="28.444444444444443" height="28.444444444444443" rx="0" fill="hsl(73,69%,55%)"/><rect x="483.55555555555554" y="56.888888888888886" width="28.444444444444443" height="28.444444444444443" rx="0" fill="hsl(73,69%,55%)"/><rect x="0" y="85.33333333333333" width="28.444444444444443" height="28.444444444444443" rx="0" fill="hsl(153,59%,75%)"/><rect x="28.444444444444443" y="85.33333333333333" width="28.444444444444443" height="28.444444444444443" rx="0" fill="hsl(73,69%,55%)"/><rect x="56.888888888888886" y="85.33333333333333" width="28.444444444444443" height="28.444444444444443" rx="0" fill="hsl(293,69%,65%)"/><rect x="85.33333333333333" y="85.33333333333333" width="28.444444444444443" height="28.444444444444443" rx="0" fill="hsl(153,59%,75%)"/><rect x="113.77777777777777" y="85.33333333333333" width="28.444444444444443" height="28.444444444444443" rx="0" fill="hsl(73,69%,55%)"/><rect x="142.22222222222223" y="85.33333333333333" width="28.444444444444443" height="28.444444444444443" rx="0" fill="hsl(293,69%,65%)"/><rect x="170.66666666666666" y="85.33333333333333" width="28.444444444444443" height="28.444444444444443" rx="0" fill="hsl(73,69%,55%)"/><rect x="199.1111111111111" y="85.33333333333333" width="28.444444444444443" height="28.444444444444443" rx="0" fill="hsl(293,69%,65%)"/><rect x="227.55555555555554" y="85.33333333333333" width="28.444444444444443" height="28.444444444444443" rx="0" fill="hsl(73,69%,55%)"/><rect x="256" y="85.33333333333333" width="28.444444444444443" height="28.444444444444443" rx="6" fill="hsl(73,69%,55%)"/><rect x="284.44444444444446" y="85.33333333333333" width="28.444444444444443" height="28.444444444444443" rx="0" fill="hsl(153,59%,75%)"/><rect x="312.88888888888886" y="85.33333333333333" width="28.444444444444443" height="28.444444444444443" rx="0" fill="hsl(73,69%,55%)"/><rect x="341.3333333333333" y="85.33333333333333" width="28.444444444444443" height="28.444444444444443" rx="0" fill="hsl(73,69%,55%)"/><rect x="369.77777777777777" y="85.33333333333333" width="28.444444444444443" height="28.444444444444443" rx="0" fill="hsl(153,59%,75%)"/><rect x="398.2222222222222" y="85.33333333333333" width="28.444444444444443" height="28.444444444444443" rx="0" fill="hsl(293,69%,65%)"/><rect x="426.66666666666663" y="85.33333333333333" width="28.444444444444443" height="28.444444444444443" rx="0" fill="hsl(153,59%,75%)"/><rect x="455.1111111111111" y="85.33333333333333" width="28.444444444444443" height="28.444444444444443" rx="0" fill="hsl(153,59%,75%)"/><rect x="483.55555555555554" y="85.33333333333333" width="28.444444444444443" height="28.444444444444443" rx="0" fill="hsl(293,69%,65%)"/><rect x="0" y="113.77777777777777" width="28.444444444444443" height="28.444444444444443" rx="0" fill="hsl(73,69%,55%)"/><rect x="28.444444444444443" y="113.77777777777777" width="28.444444444444443" height="28.444444444444443" rx="0" fill="hsl(153,59%,75%)"/><rect x="56.888888888888886" y="113.77777777777777" width="28.444444444444443" height="28.444444444444443" rx="0" fill="hsl(73,69%,55%)"/><rect x="85.33333333333333" y="113.77777777777777" width="28.444444444444443" height="28.444444444444443" rx="0" fill="hsl(153,59%,75%)"/><rect x="113.77777777777777" y="113.77777777777777" width="28.444444444444443" height="28.444444444444443" rx="0" fill="hsl(293,69%,65%)"/><rect x="142.22222222222223" y="113.77777777777777" width="28.444444444444443" height="28.444444444444443" rx="0" fill="hsl(293,69%,65%)"/><rect x="170.66666666666666" y="113.77777777777777" width="28.444444444444443" height="28.444444444444443" rx="0" fill="hsl(153,59%,75%)"/><rect x="199.1111111111111" y="113.77777777777777" width="28.444444444444443" height="28.444444444444443" rx="0" fill="hsl(73,69%,55%)"/><rect x="227.55555555555554" y="113.77777777777777" width="28.444444444444443" height="28.444444444444443" rx="0" fill="hsl(73,69%,55%)"/><rect x="256" y="113.77777777777777" width="28.444444444444443" height="28.444444444444443" rx="0" fill="hsl(293,69%,65%)"/><rect x="284.44444444444446" y="113.77777777777777" width="28.444444444444443" height="28.444444444444443" rx="0" fill="hsl(73,69%,55%)"/><rect x="312.88888888888886" y="113.77777777777777" width="28.444444444444443" height="28.444444444444443" rx="6" fill="hsl(73,69%,55%)"/><rect x="341.3333333333333" y="113.77777777777777" width="28.444444444444443" height="28.444444444444443" rx="0" fill="hsl(73,69%,55%)"/><rect x="369.77777777777777" y="113.77777777777777" width="28.444444444444443" height="28.444444444444443" rx="0" fill="hsl(153,59%,75%)"/><rect x="398.2222222222222" y="113.77777777777777" width="28.444444444444443" height="28.444444444444443" rx="0" fill="hsl(73,69%,55%)"/><rect x="426.66666666666663" y="113.77777777777777" width="28.444444444444443" height="28.444444444444443" rx="0" fill="hsl(293,69%,65%)"/><rect x="455.1111111111111" y="113.77777777777777" width="28.444444444444443" height="28.444444444444443" rx="0" fill="hsl(293,69%,65%)"/><rect x="483.55555555555554" y="113.77777777777777" width="28.444444444444443" height="28.444444444444443" rx="0" fill="hsl(73,69%,55%)"/><rect x="0" y="142.22222222222223" width="28.444444444444443" height="28.444444444444443" rx="0" fill="hsl(73,69%,55%)"/><rect x="28.444444444444443" y="142.22222222222223" width="28.444444444444443" height="28.444444444444443" rx="0" fill="hsl(153,59%,75%)"/><rect x="56.888888888888886" y="142.22222222222223" width="28.444444444444443" height="28.444444444444443" rx="0" fill="hsl(153,59%,75%)"/><rect x="85.33333333333333" y="142.22222222222223" width="28.444444444444443" height="28.444444444444443" rx="0" fill="hsl(153,59%,75%)"/><rect x="113.77777777777777" y="142.22222222222223" width="28.444444444444443" height="28.444444444444443" rx="0" fill="hsl(293,69%,65%)"/><rect x="142.22222222222223" y="142.22222222222223" width="28.444444444444443" height="28.444444444444443" rx="6" fill="hsl(73,69%,55%)"/><rect x="170.66666666666666" y="142.22222222222223" width="28.444444444444443" height="28.444444444444443" rx="0" fill="hsl(153,59%,75%)"/><rect x="199.1111111111111" y="142.22222222222223" width="28.444444444444443" height="28.444444444444443" rx="6" fill="hsl(153,59%,75%)"/><rect x="227.55555555555554" y="142.22222222222223" width="28.444444444444443" height="28.444444444444443" rx="0" fill="hsl(293,69%,65%)"/><rect x="256" y="142.22222222222223" width="28.444444444444443" height="28.444444444444443" rx="0" fill="hsl(153,59%,75%)"/><rect x="284.44444444444446" y="142.22222222222223" width="28.444444444444443" height="28.444444444444443" rx="0" fill="hsl(293,69%,65%)"/><rect x="312.88888888888886" y="142.22222222222223" width="28.444444444444443" height="28.444444444444443" rx="0" fill="hsl(153,59%,75%)"/><rect x="341.3333333333333" y="142.22222222222223" width="28.444444444444443" height="28.444444444444443" rx="0" fill="hsl(73,69%,55%)"/><rect x="369.77777777777777" y="142.22222222222223" width="28.444444444444443" height="28.444444444444443" rx="0" fill="hsl(293,69%,65%)"/><rect x="398.2222222222222" y="142.22222222222223" width="28.444444444444443" height="28.444444444444443" rx="0" fill="hsl(73,69%,55%)"/><rect x="426.66666666666663" y="142.22222222222223" width="28.444444444444443" height="28.444444444444443" rx="0" fill="hsl(73,69%,55%)"/><rect x="455.1111111111111" y="142.22222222222223" width="28.444444444444443" height="28.444444444444443" rx="0" fill="hsl(293,69%,65%)"/><rect x="483.55555555555554" y="142.22222222222223" width="28.444444444444443" height="28.444444444444443" rx="0" fill="hsl(293,69%,65%)"/><rect x="0" y="170.66666666666666" width="28.444444444444443" height="28.444444444444443" rx="0" fill="hsl(73,69%,55%)"/><rect x="28.444444444444443" y="170.66666666666666" width="28.444444444444443" height="28.444444444444443" rx="0" fill="hsl(153,59%,75%)"/><rect x="56.888888888888886" y="170.66666666666666" width="28.444444444444443" height="28.444444444444443" rx="0" fill="hsl(73,69%,55%)"/><rect x="85.33333333333333" y="170.66666666666666" width="28.444444444444443" height="28.444444444444443" rx="0" fill="hsl(153,59%,75%)"/><rect x="113.77777777777777" y="170.66666666666666" width="28.444444444444443" height="28.444444444444443" rx="0" fill="hsl(153,59%,75%)"/><rect x="142.22222222222223" y="170.66666666666666" width="28.444444444444443" height="28.444444444444443" rx="0" fill="hsl(73,69%,55%)"/><rect x="170.66666666666666" y="170.66666666666666" width="28.444444444444443" height="28.444444444444443" rx="0" fill="hsl(153,59%,75%)"/><rect x="199.1111111111111" y="170.66666666666666" width="28.444444444444443" height="28.444444444444443" rx="0" fill="hsl(153,59%,75%)"/><rect x="227.55555555555554" y="170.66666666666666" width="28.444444444444443" height="28.444444444444443" rx="0" fill="hsl(293,69%,65%)"/><rect x="256" y="170.66666666666666" width="28.444444444444443" height="28.444444444444443" rx="0" fill="hsl(153,59%,75%)"/><rect x="284.44444444444446" y="170.66666666666666" width="28.444444444444443" height="28.444444444444443" rx="0" fill="hsl(153,59%,75%)"/><rect x="312.88888888888886" y="170.66666666666666" width="28.444444444444443" height="28.444444444444443" rx="0" fill="hsl(73,69%,55%)"/><rect x="341.3333333333333" y="170.66666666666666" width="28.444444444444443" height="28.444444444444443" rx="0" fill="hsl(153,59%,75%)"/><rect x="369.77777777777777" y="170.66666666666666" width="28.444444444444443" height="28.444444444444443" rx="0" fill="hsl(153,59%,75%)"/><rect x="398.2222222222222" y="170.66666666666666" width="28.444444444444443" height="28.444444444444443" rx="6" fill="hsl(153,59%,75%)"/><rect x="426.66666666666663" y="170.66666666666666" width="28.444444444444443" height="28.444444444444443" rx="0" fill="hsl(153,59%,75%)"/><rect x="455.1111111111111" y="170.66666666666666" width="28.444444444444443" height="28.444444444444443" rx="0" fill="hsl(293,69%,65%)"/><rect x="483.55555555555554" y="170.66666666666666" width="28.444444444444443" height="28.444444444444443" rx="0" fill="hsl(153,59%,75%)"/><rect x="0" y="199.1111111111111" width="28.444444444444443" height="28.444444444444443" rx="0" fill="hsl(293,69%,65%)"/><rect x="28.444444444444443" y="199.1111111111111" width="28.444444444444443" height="28.444444444444443" rx="0" fill="hsl(153,59%,75%)"/><rect x="56.888888888888886" y="199.1111111111111" width="28.444444444444443" height="28.444444444444443" rx="0" fill="hsl(73,69%,55%)"/><rect x="85.33333333333333" y="199.1111111111111" width="28.444444444444443" height="28.444444444444443" rx="0" fill="hsl(73,69%,55%)"/><rect x="113.77777777777777" y="199.1111111111111" width="28.444444444444443" height="28.444444444444443" rx="0" fill="hsl(73,69%,55%)"/><rect x="142.22222222222223" y="199.1111111111111" width="28.444444444444443" height="28.444444444444443" rx="0" fill="hsl(73,69%,55%)"/><rect x="170.66666666666666" y="199.1111111111111" width="28.444444444444443" height="28.444444444444443" rx="6" fill="hsl(153,59%,75%)"/><rect x="199.1111111111111" y="199.1111111111111" width="28.444444444444443" height="28.444444444444443" rx="0" fill="hsl(293,69%,65%)"/><rect x="227.55555555555554" y="199.1111111111111" width="28.444444444444443" height="28.444444444444443" rx="0" fill="hsl(73,69%,55%)"/><rect x="256" y="199.1111111111111" width="28.444444444444443" height="28.444444444444443" rx="0" fill="hsl(73,69%,55%)"/><rect x="284.44444444444446" y="199.1111111111111" width="28.444444444444443" height="28.444444444444443" rx="6" fill="hsl(293,69%,65%)"/><rect x="312.88888888888886" y="199.1111111111111" width="28.444444444444443" height="28.444444444444443" rx="0" fill="hsl(73,69%,55%)"/><rect x="341.3333333333333" y="199.1111111111111" width="28.444444444444443" height="28.444444444444443" rx="0" fill="hsl(73,69%,55%)"/><rect x="369.77777777777777" y="199.1111111111111" width="28.444444444444443" height="28.444444444444443" rx="0" fill="hsl(153,59%,75%)"/><rect x="398.2222222222222" y="199.1111111111111" width="28.444444444444443" height="28.444444444444443" rx="0" fill="hsl(73,69%,55%)"/><rect x="426.66666666666663" y="199.1111111111111" width="28.444444444444443" height="28.444444444444443" rx="0" fill="hsl(153,59%,75%)"/><rect x="455.1111111111111" y="199.1111111111111" width="28.444444444444443" height="28.444444444444443" rx="0" fill="hsl(73,69%,55%)"/><rect x="483.55555555555554" y="199.1111111111111" width="28.444444444444443" height="28.444444444444443" rx="0" fill="hsl(73,69%,55%)"/><rect x="0" y="227.55555555555554" width="28.444444444444443" height="28.444444444444443" rx="0" fill="hsl(293,69%,65%)"/><rect x="28.444444444444443" y="227.55555555555554" width="28.444444444444443" height="28.444444444444443" rx="0" fill="hsl(293,69%,65%)"/><rect x="56.888888888888886" y="227.55555555555554" width="28.444444444444443" height="28.444444444444443" rx="6" fill="hsl(153,59%,75%)"/><rect x="85.33333333333333" y="227.55555555555554" width="28.444444444444443" height="28.444444444444443" rx="6" fill="hsl(293,69%,65%)"/><rect x="113.77777777777777" y="227.55555555555554" width="28.444444444444443" height="28.444444444444443" rx="0" fill="hsl(73,69%,55%)"/><rect x="142.22222222222223" y="227.55555555555554" width="28.444444444444443" height="28.444444444444443" rx="0" fill="hsl(153,59%,75%)"/><rect x="170.66666666666666" y="227.55555555555554" width="28.444444444444443" height="28.444444444444443" rx="0" fill="hsl(293,69%,65%)"/><rect x="199.1111111111111" y="227.55555555555554" width="28.444444444444443" height="28.444444444444443" rx="0" fill="hsl(153,59%,75%)"/><rect x="227.55555555555554" y="227.55555555555554" width="28.444444444444443" height="28.444444444444443" rx="0" fill="hsl(73,69%,55%)"/><rect x="256" y="227.55555555555554" width="28.444444444444443" height="28.444444444444443" rx="0" fill="hsl(293,69%,65%)"/><rect x="284.44444444444446" y="227.55555555555554" width="28.444444444444443" height="28.444444444444443" rx="0" fill="hsl(153,59%,75%)"/><rect x="312.88888888888886" y="227.55555555555554" width="28.444444444444443" height="28.444444444444443" rx="0" fill="hsl(153,59%,75%)"/><rect x="341.3333333333333" y="227.55555555555554" width="28.444444444444443" height="28.444444444444443" rx="0" fill="hsl(153,59%,75%)"/><rect x="369.77777777777777" y="227.55555555555554" width="28.444444444444443" height="28.444444444444443" rx="0" fill="hsl(153,59%,75%)"/><rect x="398.2222222222222" y="227.55555555555554" width="28.444444444444443" height="28.444444444444443" rx="0" fill="hsl(73,69%,55%)"/><rect x="426.66666666666663" y="227.55555555555554" width="28.444444444444443" height="28.444444444444443" rx="0" fill="hsl(293,69%,65%)"/><rect x="455.1111111111111" y="227.55555555555554" width="28.444444444444443" height="28.444444444444443" rx="0" fill="hsl(153,59%,75%)"/><rect x="483.55555555555554" y="227.55555555555554" width="28.444444444444443" height="28.444444444444443" rx="0" fill="hsl(73,69%,55%)"/><rect x="0" y="256" width="28.444444444444443" height="28.444444444444443" rx="0" fill="hsl(293,69%,65%)"/><rect x="28.444444444444443" y="256" width="28.444444444444443" height="28.444444444444443" rx="0" fill="hsl(293,69%,65%)"/><rect x="56.888888888888886" y="256" width="28.444444444444443" height="28.444444444444443" rx="0" fill="hsl(153,59%,75%)"/><rect x="85.33333333333333" y="256" width="28.444444444444443" height="28.444444444444443" rx="0" fill="hsl(293,69%,65%)"/><rect x="113.77777777777777" y="256" width="28.444444444444443" height="28.444444444444443" rx="0" fill="hsl(73,69%,55%)"/><rect x="142.22222222222223" y="256" width="28.444444444444443" height="28.444444444444443" rx="0" fill="hsl(153,59%,75%)"/><rect x="170.66666666666666" y="256" width="28.444444444444443" height="28.444444444444443" rx="0" fill="hsl(293,69%,65%)"/><rect x="199.1111111111111" y="256" width="28.444444444444443" height="28.444444444444443" rx="0" fill="hsl(73,69%,55%)"/><rect x="227.55555555555554" y="256" width="28.444444444444443" height="28.444444444444443" rx="0" fill="hsl(73,69%,55%)"/><rect x="256" y="256" width="28.444444444444443" height="28.444444444444443" rx="0" fill="hsl(153,59%,75%)"/><rect x="284.44444444444446" y="256" width="28.444444444444443" height="28.444444444444443" rx="0" fill="hsl(293,69%,65%)"/><rect x="312.88888888888886" y="256" width="28.444444444444443" height="28.444444444444443" rx="0" fill="hsl(153,59%,75%)"/><rect x="341.3333333333333" y="256" width="28.444444444444443" height="28.444444444444443" rx="0" fill="hsl(293,69%,65%)"/><rect x="369.77777777777777" y="256" width="28.444444444444443" height="28.444444444444443" rx="0" fill="hsl(153,59%,75%)"/><rect x="398.2222222222222" y="256" width="28.444444444444443" height="28.444444444444443" rx="6" fill="hsl(153,59%,75%)"/><rect x="426.66666666666663" y="256" width="28.444444444444443" height="28.444444444444443" rx="0" fill="hsl(73,69%,55%)"/><rect x="455.1111111111111" y="256" width="28.444444444444443" height="28.444444444444443" rx="0" fill="hsl(153,59%,75%)"/><rect x="483.55555555555554" y="256" width="28.444444444444443" height="28.444444444444443" rx="0" fill="hsl(73,69%,55%)"/><rect x="0" y="284.44444444444446" width="28.444444444444443" height="28.444444444444443" rx="0" fill="hsl(293,69%,65%)"/><rect x="28.444444444444443" y="284.44444444444446" width="28.444444444444443" height="28.444444444444443" rx="0" fill="hsl(293,69%,65%)"/><rect x="56.888888888888886" y="284.44444444444446" width="28.444444444444443" height="28.444444444444443" rx="0" fill="hsl(73,69%,55%)"/><rect x="85.33333333333333" y="284.44444444444446" width="28.444444444444443" height="28.444444444444443" rx="0" fill="hsl(293,69%,65%)"/><rect x="113.77777777777777" y="284.44444444444446" width="28.444444444444443" height="28.444444444444443" rx="0" fill="hsl(153,59%,75%)"/><rect x="142.22222222222223" y="284.44444444444446" width="28.444444444444443" height="28.444444444444443" rx="0" fill="hsl(73,69%,55%)"/><rect x="170.66666666666666" y="284.44444444444446" width="28.444444444444443" height="28.444444444444443" rx="0" fill="hsl(73,69%,55%)"/><rect x="199.1111111111111" y="284.44444444444446" width="28.444444444444443" height="28.444444444444443" rx="0" fill="hsl(73,69%,55%)"/><rect x="227.55555555555554" y="284.44444444444446" width="28.444444444444443" height="28.444444444444443" rx="0" fill="hsl(293,69%,65%)"/><rect x="256" y="284.44444444444446" width="28.444444444444443" height="28.444444444444443" rx="0" fill="hsl(153,59%,75%)"/><rect x="284.44444444444446" y="284.44444444444446" width="28.444444444444443" height="28.444444444444443" rx="0" fill="hsl(153,59%,75%)"/><rect x="312.88888888888886" y="284.44444444444446" width="28.444444444444443" height="28.444444444444443" rx="0" fill="hsl(73,69%,55%)"/><rect x="341.3333333333333" y="284.44444444444446" width="28.444444444444443" height="28.444444444444443" rx="6" fill="hsl(153,59%,75%)"/><rect x="369.77777777777777" y="284.44444444444446" width="28.444444444444443" height="28.444444444444443" rx="6" fill="hsl(293,69%,65%)"/><rect x="398.2222222222222" y="284.44444444444446" width="28.444444444444443" height="28.444444444444443" rx="0" fill="hsl(293,69%,65%)"/><rect x="426.66666666666663" y="284.44444444444446" width="28.444444444444443" height="28.444444444444443" rx="0" fill="hsl(153,59%,75%)"/><rect x="455.1111111111111" y="284.44444444444446" width="28.444444444444443" height="28.444444444444443" rx="6" fill="hsl(293,69%,65%)"/><rect x="483.55555555555554" y="284.44444444444446" width="28.444444444444443" height="28.444444444444443" rx="0" fill="hsl(293,69%,65%)"/><rect x="0" y="312.88888888888886" width="28.444444444444443" height="28.444444444444443" rx="0" fill="hsl(153,59%,75%)"/><rect x="28.444444444444443" y="312.88888888888886" width="28.444444444444443" height="28.444444444444443" rx="6" fill="hsl(73,69%,55%)"/><rect x="56.888888888888886" y="312.88888888888886" width="28.444444444444443" height="28.444444444444443" rx="0" fill="hsl(153,59%,75%)"/><rect x="85.33333333333333" y="312.88888888888886" width="28.444444444444443" height="28.444444444444443" rx="0" fill="hsl(293,69%,65%)"/><rect x="113.77777777777777" y="312.88888888888886" width="28.444444444444443" height="28.444444444444443" rx="0" fill="hsl(293,69%,65%)"/><rect x="142.22222222222223" y="312.88888888888886" width="28.444444444444443" height="28.444444444444443" rx="0" fill="hsl(153,59%,75%)"/><rect x="170.66666666666666" y="312.88888888888886" width="28.444444444444443" height="28.444444444444443" rx="0" fill="hsl(293,69%,65%)"/><rect x="199.1111111111111" y="312.88888888888886" width="28.444444444444443" height="28.444444444444443" rx="0" fill="hsl(293,69%,65%)"/><rect x="227.55555555555554" y="312.88888888888886" width="28.444444444444443" height="28.444444444444443" rx="0" fill="hsl(153,59%,75%)"/><rect x="256" y="312.88888888888886" width="28.444444444444443" height="28.444444444444443" rx="0" fill="hsl(73,69%,55%)"/><rect x="284.44444444444446" y="312.88888888888886" width="28.444444444444443" height="28.444444444444443" rx="0" fill="hsl(73,69%,55%)"/><rect x="312.88888888888886" y="312.88888888888886" width="28.444444444444443" height="28.444444444444443" rx="0" fill="hsl(293,69%,65%)"/><rect x="341.3333333333333" y="312.88888888888886" width="28.444444444444443" height="28.444444444444443" rx="0" fill="hsl(293,69%,65%)"/><rect x="369.77777777777777" y="312.88888888888886" width="28.444444444444443" height="28.444444444444443" rx="0" fill="hsl(73,69%,55%)"/><rect x="398.2222222222222" y="312.88888888888886" width="28.444444444444443" height="28.444444444444443" rx="0" fill="hsl(293,69%,65%)"/><rect x="426.66666666666663" y="312.88888888888886" width="28.444444444444443" height="28.444444444444443" rx="0" fill="hsl(293,69%,65%)"/><rect x="455.1111111111111" y="312.88888888888886" width="28.444444444444443" height="28.444444444444443" rx="0" fill="hsl(293,69%,65%)"/><rect x="483.55555555555554" y="312.88888888888886" width="28.444444444444443" height="28.444444444444443" rx="0" fill="hsl(293,69%,65%)"/><rect x="0" y="341.3333333333333" width="28.444444444444443" height="28.444444444444443" rx="0" fill="hsl(73,69%,55%)"/><rect x="28.444444444444443" y="341.3333333333333" width="28.444444444444443" height="28.444444444444443" rx="0" fill="hsl(293,69%,65%)"/><rect x="56.888888888888886" y="341.3333333333333" width="28.444444444444443" height="28.444444444444443" rx="0" fill="hsl(153,59%,75%)"/><rect x="85.33333333333333" y="341.3333333333333" width="28.444444444444443" height="28.444444444444443" rx="0" fill="hsl(153,59%,75%)"/><rect x="113.77777777777777" y="341.3333333333333" width="28.444444444444443" height="28.444444444444443" rx="0" fill="hsl(293,69%,65%)"/><rect x="142.22222222222223" y="341.3333333333333" width="28.444444444444443" height="28.444444444444443" rx="0" fill="hsl(153,59%,75%)"/><rect x="170.66666666666666" y="341.3333333333333" width="28.444444444444443" height="28.444444444444443" rx="0" fill="hsl(153,59%,75%)"/><rect x="199.1111111111111" y="341.3333333333333" width="28.444444444444443" height="28.444444444444443" rx="0" fill="hsl(153,59%,75%)"/><rect x="227.55555555555554" y="341.3333333333333" width="28.444444444444443" height="28.444444444444443" rx="0" fill="hsl(73,69%,55%)"/><rect x="256" y="341.3333333333333" width="28.444444444444443" height="28.444444444444443" rx="0" fill="hsl(73,69%,55%)"/><rect x="284.44444444444446" y="341.3333333333333" width="28.444444444444443" height="28.444444444444443" rx="0" fill="hsl(153,59%,75%)"/><rect x="312.88888888888886" y="341.3333333333333" width="28.444444444444443" height="28.444444444444443" rx="0" fill="hsl(293,69%,65%)"/><rect x="341.3333333333333" y="341.3333333333333" width="28.444444444444443" height="28.444444444444443" rx="0" fill="hsl(293,69%,65%)"/><rect x="369.77777777777777" y="341.3333333333333" width="28.444444444444443" height="28.444444444444443" rx="0" fill="hsl(293,69%,65%)"/><rect x="398.2222222222222" y="341.3333333333333" width="28.444444444444443" height="28.444444444444443" rx="0" fill="hsl(153,59%,75%)"/><rect x="426.66666666666663" y="341.3333333333333" width="28.444444444444443" height="28.444444444444443" rx="0" fill="hsl(153,59%,75%)"/><rect x="455.1111111111111" y="341.3333333333333" width="28.444444444444443" height="28.444444444444443" rx="0" fill="hsl(293,69%,65%)"/><rect x="483.55555555555554" y="341.3333333333333" width="28.444444444444443" height="28.444444444444443" rx="0" fill="hsl(293,69%,65%)"/><rect x="0" y="369.77777777777777" width="28.444444444444443" height="28.444444444444443" rx="0" fill="hsl(73,69%,55%)"/><rect x="28.444444444444443" y="369.77777777777777" width="28.444444444444443" height="28.444444444444443" rx="0" fill="hsl(153,59%,75%)"/><rect x="56.888888888888886" y="369.77777777777777" width="28.444444444444443" height="28.444444444444443" rx="0" fill="hsl(153,59%,75%)"/><rect x="85.33333333333333" y="369.77777777777777" width="28.444444444444443" height="28.444444444444443" rx="0" fill="hsl(293,69%,65%)"/><rect x="113.77777777777777" y="369.77777777777777" width="28.444444444444443" height="28.444444444444443" rx="0" fill="hsl(153,59%,75%)"/><rect x="142.22222222222223" y="369.77777777777777" width="28.444444444444443" height="28.444444444444443" rx="0" fill="hsl(73,69%,55%)"/><rect x="170.66666666666666" y="369.77777777777777" width="28.444444444444443" height="28.444444444444443" rx="0" fill="hsl(293,69%,65%)"/><rect x="199.1111111111111" y="369.77777777777777" width="28.444444444444443" height="28.444444444444443" rx="0" fill="hsl(73,69%,55%)"/><rect x="227.55555555555554" y="369.77777777777777" width="28.444444444444443" height="28.444444444444443" rx="0" fill="hsl(73,69%,55%)"/><rect x="256" y="369.77777777777777" width="28.444444444444443" height="28.444444444444443" rx="0" fill="hsl(73,69%,55%)"/><rect x="284.44444444444446" y="369.77777777777777" width="28.444444444444443" height="28.444444444444443" rx="0" fill="hsl(293,69%,65%)"/><rect x="312.88888888888886" y="369.77777777777777" width="28.444444444444443" height="28.444444444444443" rx="0" fill="hsl(153,59%,75%)"/><rect x="341.3333333333333" y="369.77777777777777" width="28.444444444444443" height="28.444444444444443" rx="0" fill="hsl(73,69%,55%)"/><rect x="369.77777777777777" y="369.77777777777777" width="28.444444444444443" height="28.444444444444443" rx="0" fill="hsl(293,69%,65%)"/><rect x="398.2222222222222" y="369.77777777777777" width="28.444444444444443" height="28.444444444444443" rx="0" fill="hsl(73,69%,55%)"/><rect x="426.66666666666663" y="369.77777777777777" width="28.444444444444443" height="28.444444444444443" rx="6" fill="hsl(153,59%,75%)"/><rect x="455.1111111111111" y="369.77777777777777" width="28.444444444444443" height="28.444444444444443" rx="0" fill="hsl(153,59%,75%)"/><rect x="483.55555555555554" y="369.77777777777777" width="28.444444444444443" height="28.444444444444443" rx="0" fill="hsl(293,69%,65%)"/><rect x="0" y="398.2222222222222" width="28.444444444444443" height="28.444444444444443" rx="0" fill="hsl(153,59%,75%)"/><rect x="28.444444444444443" y="398.2222222222222" width="28.444444444444443" height="28.444444444444443" rx="0" fill="hsl(293,69%,65%)"/><rect x="56.888888888888886" y="398.2222222222222" width="28.444444444444443" height="28.444444444444443" rx="0" fill="hsl(73,69%,55%)"/><rect x="85.33333333333333" y="398.2222222222222" width="28.444444444444443" height="28.444444444444443" rx="0" fill="hsl(293,69%,65%)"/><rect x="113.77777777777777" y="398.2222222222222" width="28.444444444444443" height="28.444444444444443" rx="0" fill="hsl(153,59%,75%)"/><rect x="142.22222222222223" y="398.2222222222222" width="28.444444444444443" height="28.444444444444443" rx="0" fill="hsl(293,69%,65%)"/><rect x="170.66666666666666" y="398.2222222222222" width="28.444444444444443" height="28.444444444444443" rx="0" fill="hsl(153,59%,75%)"/><rect x="199.1111111111111" y="398.2222222222222" width="28.444444444444443" height="28.444444444444443" rx="0" fill="hsl(73,69%,55%)"/><rect x="227.55555555555554" y="398.2222222222222" width="28.444444444444443" height="28.444444444444443" rx="0" fill="hsl(153,59%,75%)"/><rect x="256" y="398.2222222222222" width="28.444444444444443" height="28.444444444444443" rx="6" fill="hsl(293,69%,65%)"/><rect x="284.44444444444446" y="398.2222222222222" width="28.444444444444443" height="28.444444444444443" rx="0" fill="hsl(73,69%,55%)"/><rect x="312.88888888888886" y="398.2222222222222" width="28.444444444444443" height="28.444444444444443" rx="0" fill="hsl(293,69%,65%)"/><rect x="341.3333333333333" y="398.2222222222222" width="28.444444444444443" height="28.444444444444443" rx="0" fill="hsl(293,69%,65%)"/><rect x="369.77777777777777" y="398.2222222222222" width="28.444444444444443" height="28.444444444444443" rx="0" fill="hsl(293,69%,65%)"/><rect x="398.2222222222222" y="398.2222222222222" width="28.444444444444443" height="28.444444444444443" rx="0" fill="hsl(293,69%,65%)"/><rect x="426.66666666666663" y="398.2222222222222" width="28.444444444444443" height="28.444444444444443" rx="0" fill="hsl(293,69%,65%)"/><rect x="455.1111111111111" y="398.2222222222222" width="28.444444444444443" height="28.444444444444443" rx="0" fill="hsl(73,69%,55%)"/><rect x="483.55555555555554" y="398.2222222222222" width="28.444444444444443" height="28.444444444444443" rx="0" fill="hsl(73,69%,55%)"/><rect x="0" y="426.66666666666663" width="28.444444444444443" height="28.444444444444443" rx="0" fill="hsl(153,59%,75%)"/><rect x="28.444444444444443" y="426.66666666666663" width="28.444444444444443" height="28.444444444444443" rx="0" fill="hsl(73,69%,55%)"/><rect x="56.888888888888886" y="426.66666666666663" width="28.444444444444443" height="28.444444444444443" rx="0" fill="hsl(153,59%,75%)"/><rect x="85.33333333333333" y="426.66666666666663" width="28.444444444444443" height="28.444444444444443" rx="0" fill="hsl(153,59%,75%)"/><rect x="113.77777777777777" y="426.66666666666663" width="28.444444444444443" height="28.444444444444443" rx="0" fill="hsl(73,69%,55%)"/><rect x="142.22222222222223" y="426.66666666666663" width="28.444444444444443" height="28.444444444444443" rx="0" fill="hsl(293,69%,65%)"/><rect x="170.66666666666666" y="426.66666666666663" width="28.444444444444443" height="28.444444444444443" rx="0" fill="hsl(293,69%,65%)"/><rect x="199.1111111111111" y="426.66666666666663" width="28.444444444444443" height="28.444444444444443" rx="0" fill="hsl(73,69%,55%)"/><rect x="227.55555555555554" y="426.66666666666663" width="28.444444444444443" height="28.444444444444443" rx="0" fill="hsl(153,59%,75%)"/><rect x="256" y="426.66666666666663" width="28.444444444444443" height="28.444444444444443" rx="0" fill="hsl(73,69%,55%)"/><rect x="284.44444444444446" y="426.66666666666663" width="28.444444444444443" height="28.444444444444443" rx="0" fill="hsl(153,59%,75%)"/><rect x="312.88888888888886" y="426.66666666666663" width="28.444444444444443" height="28.444444444444443" rx="0" fill="hsl(73,69%,55%)"/><rect x="341.3333333333333" y="426.66666666666663" width="28.444444444444443" height="28.444444444444443" rx="0" fill="hsl(293,69%,65%)"/><rect x="369.77777777777777" y="426.66666666666663" width="28.444444444444443" height="28.444444444444443" rx="0" fill="hsl(153,59%,75%)"/><rect x="398.2222222222222" y="426.66666666666663" width="28.444444444444443" height="28.444444444444443" rx="0" fill="hsl(293,69%,65%)"/><rect x="426.66666666666663" y="426.66666666666663" width="28.444444444444443" height="28.444444444444443" rx="0" fill="hsl(73,69%,55%)"/><rect x="455.1111111111111" y="426.66666666666663" width="28.444444444444443" height="28.444444444444443" rx="0" fill="hsl(73,69%,55%)"/><rect x="483.55555555555554" y="426.66666666666663" width="28.444444444444443" height="28.444444444444443" rx="0" fill="hsl(293,69%,65%)"/><rect x="0" y="455.1111111111111" width="28.444444444444443" height="28.444444444444443" rx="0" fill="hsl(73,69%,55%)"/><rect x="28.444444444444443" y="455.1111111111111" width="28.444444444444443" height="28.444444444444443" rx="0" fill="hsl(73,69%,55%)"/><rect x="56.888888888888886" y="455.1111111111111" width="28.444444444444443" height="28.444444444444443" rx="6" fill="hsl(293,69%,65%)"/><rect x="85.33333333333333" y="455.1111111111111" width="28.444444444444443" height="28.444444444444443" rx="0" fill="hsl(153,59%,75%)"/><rect x="113.77777777777777" y="455.1111111111111" width="28.444444444444443" height="28.444444444444443" rx="0" fill="hsl(73,69%,55%)"/><rect x="142.22222222222223" y="455.1111111111111" width="28.444444444444443" height="28.444444444444443" rx="0" fill="hsl(293,69%,65%)"/><rect x="170.66666666666666" y="455.1111111111111" width="28.444444444444443" height="28.444444444444443" rx="0" fill="hsl(153,59%,75%)"/><rect x="199.1111111111111" y="455.1111111111111" width="28.444444444444443" height="28.444444444444443" rx="0" fill="hsl(153,59%,75%)"/><rect x="227.55555555555554" y="455.1111111111111" width="28.444444444444443" height="28.444444444444443" rx="0" fill="hsl(293,69%,65%)"/><rect x="256" y="455.1111111111111" width="28.444444444444443" height="28.444444444444443" rx="0" fill="hsl(293,69%,65%)"/><rect x="284.44444444444446" y="455.1111111111111" width="28.444444444444443" height="28.444444444444443" rx="0" fill="hsl(293,69%,65%)"/><rect x="312.88888888888886" y="455.1111111111111" width="28.444444444444443" height="28.444444444444443" rx="0" fill="hsl(293,69%,65%)"/><rect x="341.3333333333333" y="455.1111111111111" width="28.444444444444443" height="28.444444444444443" rx="6" fill="hsl(293,69%,65%)"/><rect x="369.77777777777777" y="455.1111111111111" width="28.444444444444443" height="28.444444444444443" rx="6" fill="hsl(73,69%,55%)"/><rect x="398.2222222222222" y="455.1111111111111" width="28.444444444444443" height="28.444444444444443" rx="0" fill="hsl(293,69%,65%)"/><rect x="426.66666666666663" y="455.1111111111111" width="28.444444444444443" height="28.444444444444443" rx="0" fill="hsl(153,59%,75%)"/><rect x="455.1111111111111" y="455.1111111111111" width="28.444444444444443" height="28.444444444444443" rx="0" fill="hsl(73,69%,55%)"/><rect x="483.55555555555554" y="455.1111111111111" width="28.444444444444443" height="28.444444444444443" rx="0" fill="hsl(153,59%,75%)"/><rect x="0" y="483.55555555555554" width="28.444444444444443" height="28.444444444444443" rx="0" fill="hsl(73,69%,55%)"/><rect x="28.444444444444443" y="483.55555555555554" width="28.444444444444443" height="28.444444444444443" rx="0" fill="hsl(73,69%,55%)"/><rect x="56.888888888888886" y="483.55555555555554" width="28.444444444444443" height="28.444444444444443" rx="0" fill="hsl(153,59%,75%)"/><rect x="85.33333333333333" y="483.55555555555554" width="28.444444444444443" height="28.444444444444443" rx="0" fill="hsl(293,69%,65%)"/><rect x="113.77777777777777" y="483.55555555555554" width="28.444444444444443" height="28.444444444444443" rx="0" fill="hsl(293,69%,65%)"/><rect x="142.22222222222223" y="483.55555555555554" width="28.444444444444443" height="28.444444444444443" rx="0" fill="hsl(73,69%,55%)"/><rect x="170.66666666666666" y="483.55555555555554" width="28.444444444444443" height="28.444444444444443" rx="0" fill="hsl(73,69%,55%)"/><rect x="199.1111111111111" y="483.55555555555554" width="28.444444444444443" height="28.444444444444443" rx="0" fill="hsl(73,69%,55%)"/><rect x="227.55555555555554" y="483.55555555555554" width="28.444444444444443" height="28.444444444444443" rx="0" fill="hsl(293,69%,65%)"/><rect x="256" y="483.55555555555554" width="28.444444444444443" height="28.444444444444443" rx="0" fill="hsl(153,59%,75%)"/><rect x="284.44444444444446" y="483.55555555555554" width="28.444444444444443" height="28.444444444444443" rx="0" fill="hsl(73,69%,55%)"/><rect x="312.88888888888886" y="483.55555555555554" width="28.444444444444443" height="28.444444444444443" rx="0" fill="hsl(73,69%,55%)"/><rect x="341.3333333333333" y="483.55555555555554" width="28.444444444444443" height="28.444444444444443" rx="0" fill="hsl(293,69%,65%)"/><rect x="369.77777777777777" y="483.55555555555554" width="28.444444444444443" height="28.444444444444443" rx="0" fill="hsl(153,59%,75%)"/><rect x="398.2222222222222" y="483.55555555555554" width="28.444444444444443" height="28.444444444444443" rx="0" fill="hsl(293,69%,65%)"/><rect x="426.66666666666663" y="483.55555555555554" width="28.444444444444443" height="28.444444444444443" rx="0" fill="hsl(153,59%,75%)"/><rect x="455.1111111111111" y="483.55555555555554" width="28.444444444444443" height="28.444444444444443" rx="0" fill="hsl(153,59%,75%)"/><rect x="483.55555555555554" y="483.55555555555554" width="28.444444444444443" height="28.444444444444443" rx="0" fill="hsl(73,69%,55%)"/>
  </svg>