<svg xmlns="http://www.w3.org/2000/svg" width="512" height="512" viewBox="0 0 512 512">
  <defs>
    <filter id="gr"><feTurbulence type="fractalNoise" baseFrequency="0.06" numOctaves="1" result="n"/><feColorMatrix type="saturate" values="0.25"/></filter>
  </defs>
  <rect width="100%" height="100%" fill="white"/>
  <rect x="0" y="0" width="25.6" height="25.6" rx="6" fill="hsl(252,73%,56%)"/><rect x="25.6" y="0" width="25.6" height="25.6" rx="6" fill="hsl(112,73%,66%)"/><rect x="51.2" y="0" width="25.6" height="25.6" rx="0" fill="hsl(332,63%,76%)"/><rect x="76.80000000000001" y="0" width="25.6" height="25.6" rx="0" fill="hsl(112,73%,66%)"/><rect x="102.4" y="0" width="25.6" height="25.6" rx="0" fill="hsl(252,73%,56%)"/><rect x="128" y="0" width="25.6" height="25.6" rx="0" fill="hsl(252,73%,56%)"/><rect x="153.60000000000002" y="0" width="25.6" height="25.6" rx="0" fill="hsl(252,73%,56%)"/><rect x="179.20000000000002" y="0" width="25.6" height="25.6" rx="0" fill="hsl(332,63%,76%)"/><rect x="204.8" y="0" width="25.6" height="25.6" rx="0" fill="hsl(112,73%,66%)"/><rect x="230.4" y="0" width="25.6" height="25.6" rx="6" fill="hsl(252,73%,56%)"/><rect x="256" y="0" width="25.6" height="25.6" rx="0" fill="hsl(252,73%,56%)"/><rect x="281.6" y="0" width="25.6" height="25.6" rx="0" fill="hsl(112,73%,66%)"/><rect x="307.20000000000005" y="0" width="25.6" height="25.6" rx="0" fill="hsl(252,73%,56%)"/><rect x="332.8" y="0" width="25.6" height="25.6" rx="0" fill="hsl(252,73%,56%)"/><rect x="358.40000000000003" y="0" width="25.6" height="25.6" rx="0" fill="hsl(332,63%,76%)"/><rect x="384" y="0" width="25.6" height="25.6" rx="6" fill="hsl(112,73%,66%)"/><rect x="409.6" y="0" width="25.6" height="25.6" rx="0" fill="hsl(252,73%,56%)"/><rect x="435.20000000000005" y="0" width="25.6" height="25.6" rx="0" fill="hsl(332,63%,76%)"/><rect x="460.8" y="0" width="25.6" height="25.6" rx="0" fill="hsl(332,63%,76%)"/><rect x="486.40000000000003" y="0" width="25.6" height="25.6" rx="0" fill="hsl(252,73%,56%)"/><rect x="0" y="25.6" width="25.6" height="25.6" rx="0" fill="hsl(332,63%,76%)"/><rect x="25.6" y="25.6" width="25.6" height="25.6" rx="6" fill="hsl(332,63%,76%)"/><rect x="51.2" y="25.6" width="25.6" height="25.6" rx="0" fill="hsl(252,73%,56%)"/><rect x="76.80000000000001" y="25.6" width="25.6" height="25.6" rx="0" fill="hsl(332,63%,76%)"/><rect x="102.4" y="25.6" width="25.6" height="25.6" rx="0" fill="hsl(252,73%,56%)"/><rect x="128" y="25.6" width="25.6" height="25.6" rx="0" fill="hsl(332,63%,76%)"/><rect x="153.60000000000002" y="25.6" width="25.6" height="25.6" rx="0" fill="hsl(252,73%,56%)"/><rect x="179.20000000000002" y="25.6" width="25.6" height="25.6" rx="0" fill="hsl(252,73%,56%)"/><rect x="204.8" y="25.6" width="25.6" height="25.6" rx="0" fill="hsl(252,73%,56%)"/><rect x="230.4" y="25.6" width="25.6" height="25.6" rx="0" fill="hsl(252,73%,56%)"/><rect x="256" y="25.6" width="25.6" height="25.6" rx="0" fill="hsl(112,73%,66%)"/><rect x="281.6" y="25.6" width="25.6" height="25.6" rx="0" fill="hsl(252,73%,56%)"/><rect x="307.20000000000005" y="25.6" width="25.6" height="25.6" rx="0" fill="hsl(252,73%,56%)"/><rect x="332.8" y="25.6" width="25.6" height="25.6" rx="0" fill="hsl(332,63%,76%)"/><rect x="358.40000000000003" y="25.6" width="25.6" height="25.6" rx="6" fill="hsl(112,73%,66%)"/><rect x="384" y="25.6" width="25.6" height="25.6" rx="0" fill="hsl(332,63%,76%)"/><rect x="409.6" y="25.6" width="25.6" height="25.6" rx="0" fill="hsl(112,73%,66%)"/><rect x="435.20000000000005" y="25.6" width="25.6" height="25.6" rx="0" fill="hsl(112,73%,66%)"/><rect x="460.8" y="25.6" width="25.6" height="25.6" rx="6" fill="hsl(112,73%,66%)"/><rect x="486.40000000000003" y="25.6" width="25.6" height="25.6" rx="6" fill="hsl(252,73%,56%)"/><rect x="0" y="51.2" width="25.6" height="25.6" rx="0" fill="hsl(112,73%,66%)"/><rect x="25.6" y="51.2" width="25.6" height="25.6" rx="0" fill="hsl(252,73%,56%)"/><rect x="51.2" y="51.2" width="25.6" height="25.6" rx="0" fill="hsl(332,63%,76%)"/><rect x="76.80000000000001" y="51.2" width="25.6" height="25.6" rx="0" fill="hsl(252,73%,56%)"/><rect x="102.4" y="51.2" width="25.6" height="25.6" rx="0" fill="hsl(252,73%,56%)"/><rect x="128" y="51.2" width="25.6" height="25.6" rx="0" fill="hsl(112,73%,66%)"/><rect x="153.60000000000002" y="51.2" width="25.6" height="25.6" rx="0" fill="hsl(112,73%,66%)"/><rect x="179.20000000000002" y="51.2" width="25.6" height="25.6" rx="0" fill="hsl(112,73%,66%)"/><rect x="204.8" y="51.2" width="25.6" height="25.6" rx="0" fill="hsl(112,73%,66%)"/><rect x="230.4" y="51.2" width="25.6" height="25.6" rx="0" fill="hsl(112,73%,66%)"/><rect x="256" y="51.2" width="25.6" height="25.6" rx="0" fill="hsl(252,73%,56%)"/><rect x="281.6" y="51.2" width="25.6" height="25.6" rx="0" fill="hsl(332,63%,76%)"/><rect x="307.20000000000005" y="51.2" width="25.6" height="25.6" rx="0" fill="hsl(332,63%,76%)"/><rect x="332.8" y="51.2" width="25.6" height="25.6" rx="0" fill="hsl(252,73%,56%)"/><rect x="358.40000000000003" y="51.2" width="25.6" height="25.6" rx="0" fill="hsl(112,73%,66%)"/><rect x="384" y="51.2" width="25.6" height="25.6" rx="0" fill="hsl(252,73%,56%)"/><rect x="409.6" y="51.2" width="25.6" height="25.6" rx="0" fill="hsl(252,73%,56%)"/><rect x="435.20000000000005" y="51.2" width="25.6" height="25.6" rx="0" fill="hsl(112,73%,66%)"/><rect x="460.8" y="51.2" width="25.6" height="25.6" rx="0" fill="hsl(112,73%,66%)"/><rect x="486.40000000000003" y="51.2" width="25.6" height="25.6" rx="0" fill="hsl(332,63%,76%)"/><rect x="0" y="76.80000000000001" width="25.6" height="25.6" rx="0" fill="hsl(332,63%,76%)"/><rect x="25.6" y="76.80000000000001" width="25.6" height="25.6" rx="0" fill="hsl(252,73%,56%)"/><rect x="51.2" y="76.80000000000001" width="25.6" height="25.6" rx="0" fill="hsl(332,63%,76%)"/><rect x="76.80000000000001" y="76.80000000000001" width="25.6" height="25.6" rx="0" fill="hsl(332,63%,76%)"/><rect x="102.4" y="76.80000000000001" width="25.6" height="25.6" rx="0" fill="hsl(332,63%,76%)"/><rect x="128" y="76.80000000000001" width="25.6" height="25.6" rx="0" fill="hsl(112,73%,66%)"/><rect x="153.60000000000002" y="76.80000000000001" width="25.6" height="25.6" rx="0" fill="hsl(252,73%,56%)"/><rect x="179.20000000000002" y="76.80000000000001" width="25.6" height="25.6" rx="0" fill="hsl(332,63%,76%)"/><rect x="204.8" y="76.80000000000001" width="25.6" height="25.6" rx="0" fill="hsl(332,63%,76%)"/><rect x="230.4" y="76.80000000000001" width="25.6" height="25.6" rx="0" fill="hsl(252,73%,56%)"/><rect x="256" y="76.80000000000001" width="25.6" height="25.6" rx="0" fill="hsl(112,73%,66%)"/><rect x="281.6" y="76.80000000000001" width="25.6" height="25.6" rx="0" fill="hsl(252,73%,56%)"/><rect x="307.20000000000005" y="76.80000000000001" width="25.6" height="25.6" rx="0" fill="hsl(332,63%,76%)"/><rect x="332.8" y="76.80000000000001" width="25.6" height="25.6" rx="0" fill="hsl(332,63%,76%)"/><rect x="358.40000000000003" y="76.80000000000001" width="25.6" height="25.6" rx="6" fill="hsl(112,73%,66%)"/><rect x="384" y="76.80000000000001" width="25.6" height="25.6" rx="6" fill="hsl(332,63%,76%)"/><rect x="409.6" y="76.80000000000001" width="25.6" height="25.6" rx="6" fill="hsl(112,73%,66%)"/><rect x="435.20000000000005" y="76.80000000000001" width="25.6" height="25.6" rx="0" fill="hsl(252,73%,56%)"/><rect x="460.8" y="76.80000000000001" width="25.6" height="25.6" rx="0" fill="hsl(332,63%,76%)"/><rect x="486.40000000000003" y="76.80000000000001" width="25.6" height="25.6" rx="0" fill="hsl(332,63%,76%)"/><rect x="0" y="102.4" width="25.6" height="25.6" rx="0" fill="hsl(332,63%,76%)"/><rect x="25.6" y="102.4" width="25.6" height="25.6" rx="0" fill="hsl(112,73%,66%)"/><rect x="51.2" y="102.4" width="25.6" height="25.6" rx="0" fill="hsl(112,73%,66%)"/><rect x="76.80000000000001" y="102.4" width="25.6" height="25.6" rx="0" fill="hsl(252,73%,56%)"/><rect x="102.4" y="102.4" width="25.6" height="25.6" rx="0" fill="hsl(252,73%,56%)"/><rect x="128" y="102.4" width="25.6" height="25.6" rx="0" fill="hsl(112,73%,66%)"/><rect x="153.60000000000002" y="102.4" width="25.6" height="25.6" rx="0" fill="hsl(332,63%,76%)"/><rect x="179.20000000000002" y="102.4" width="25.6" height="25.6" rx="0" fill="hsl(332,63%,76%)"/><rect x="204.8" y="102.4" width="25.6" height="25.6" rx="0" fill="hsl(332,63%,76%)"/><rect x="230.4" y="102.4" width="25.6" height="25.6" rx="0" fill="hsl(112,73%,66%)"/><rect x="256" y="102.4" width="25.6" height="25.6" rx="0" fill="hsl(112,73%,66%)"/><rect x="281.6" y="102.4" width="25.6" height="25.6" rx="6" fill="hsl(112,73%,66%)"/><rect x="307.20000000000005" y="102.4" width="25.6" height="25.6" rx="0" fill="hsl(112,73%,66%)"/><rect x="332.8" y="102.4" width="25.6" height="25.6" rx="0" fill="hsl(112,73%,66%)"/><rect x="358.40000000000003" y="102.4" width="25.6" height="25.6" rx="0" fill="hsl(252,73%,56%)"/><rect x="384" y="102.4" width="25.6" height="25.6" rx="0" fill="hsl(252,73%,56%)"/><rect x="409.6" y="102.4" width="25.6" height="25.6" rx="6" fill="hsl(112,73%,66%)"/><rect x="435.20000000000005" y="102.4" width="25.6" height="25.6" rx="6" fill="hsl(112,73%,66%)"/><rect x="460.8" y="102.4" width="25.6" height="25.6" rx="0" fill="hsl(112,73%,66%)"/><rect x="486.40000000000003" y="102.4" width="25.6" height="25.6" rx="0" fill="hsl(252,73%,56%)"/><rect x="0" y="128" width="25.6" height="25.6" rx="0" fill="hsl(112,73%,66%)"/><rect x="25.6" y="128" width="25.6" height="25.6" rx="6" fill="hsl(112,73%,66%)"/><rect x="51.2" y="128" width="25.6" height="25.6" rx="0" fill="hsl(332,63%,76%)"/><rect x="76.80000000000001" y="128" width="25.6" height="25.6" rx="6" fill="hsl(112,73%,66%)"/><rect x="102.4" y="128" width="25.6" height="25.6" rx="0" fill="hsl(112,73%,66%)"/><rect x="128" y="128" width="25.6" height="25.6" rx="6" fill="hsl(252,73%,56%)"/><rect x="153.60000000000002" y="128" width="25.6" height="25.6" rx="0" fill="hsl(252,73%,56%)"/><rect x="179.20000000000002" y="128" width="25.6" height="25.6" rx="0" fill="hsl(252,73%,56%)"/><rect x="204.8" y="128" width="25.6" height="25.6" rx="0" fill="hsl(252,73%,56%)"/><rect x="230.4" y="128" width="25.6" height="25.6" rx="0" fill="hsl(112,73%,66%)"/><rect x="256" y="128" width="25.6" height="25.6" rx="6" fill="hsl(112,73%,66%)"/><rect x="281.6" y="128" width="25.6" height="25.6" rx="0" fill="hsl(112,73%,66%)"/><rect x="307.20000000000005" y="128" width="25.6" height="25.6" rx="0" fill="hsl(112,73%,66%)"/><rect x="332.8" y="128" width="25.6" height="25.6" rx="0" fill="hsl(332,63%,76%)"/><rect x="358.40000000000003" y="128" width="25.6" height="25.6" rx="0" fill="hsl(112,73%,66%)"/><rect x="384" y="128" width="25.6" height="25.6" rx="0" fill="hsl(252,73%,56%)"/><rect x="409.6" y="128" width="25.6" height="25.6" rx="0" fill="hsl(252,73%,56%)"/><rect x="435.20000000000005" y="128" width="25.6" height="25.6" rx="0" fill="hsl(252,73%,56%)"/><rect x="460.8" y="128" width="25.6" height="25.6" rx="0" fill="hsl(252,73%,56%)"/><rect x="486.40000000000003" y="128" width="25.6" height="25.6" rx="0" fill="hsl(332,63%,76%)"/><rect x="0" y="153.60000000000002" width="25.6" height="25.6" rx="0" fill="hsl(252,73%,56%)"/><rect x="25.6" y="153.60000000000002" width="25.6" height="25.6" rx="6" fill="hsl(112,73%,66%)"/><rect x="51.2" y="153.60000000000002" width="25.6" height="25.6" rx="0" fill="hsl(332,63%,76%)"/><rect x="76.80000000000001" y="153.60000000000002" width="25.6" height="25.6" rx="0" fill="hsl(112,73%,66%)"/><rect x="102.4" y="153.60000000000002" width="25.6" height="25.6" rx="0" fill="hsl(112,73%,66%)"/><rect x="128" y="153.60000000000002" width="25.6" height="25.6" rx="0" fill="hsl(112,73%,66%)"/><rect x="153.60000000000002" y="153.60000000000002" width="25.6" height="25.6" rx="0" fill="hsl(332,63%,76%)"/><rect x="179.20000000000002" y="153.60000000000002" width="25.6" height="25.6" rx="0" fill="hsl(332,63%,76%)"/><rect x="204.8" y="153.60000000000002" width="25.6" height="25.6" rx="6" fill="hsl(112,73%,66%)"/><rect x="230.4" y="153.60000000000002" width="25.6" height="25.6" rx="6" fill="hsl(252,73%,56%)"/><rect x="256" y="153.60000000000002" width="25.6" height="25.6" rx="6" fill="hsl(252,73%,56%)"/><rect x="281.6" y="153.60000000000002" width="25.6" height="25.6" rx="0" fill="hsl(252,73%,56%)"/><rect x="307.20000000000005" y="153.60000000000002" width="25.6" height="25.6" rx="0" fill="hsl(252,73%,56%)"/><rect x="332.8" y="153.60000000000002" width="25.6" height="25.6" rx="0" fill="hsl(252,73%,56%)"/><rect x="358.40000000000003" y="153.60000000000002" width="25.6" height="25.6" rx="0" fill="hsl(332,63%,76%)"/><rect x="384" y="153.60000000000002" width="25.6" height="25.6" rx="0" fill="hsl(112,73%,66%)"/><rect x="409.6" y="153.60000000000002" width="25.6" height="25.6" rx="0" fill="hsl(112,73%,66%)"/><rect x="435.20000000000005" y="153.60000000000002" width="25.6" height="25.6" rx="6" fill="hsl(112,73%,66%)"/><rect x="460.8" y="153.60000000000002" width="25.6" height="25.6" rx="0" fill="hsl(112,73%,66%)"/><rect x="486.40000000000003" y="153.60000000000002" width="25.6" height="25.6" rx="0" fill="hsl(332,63%,76%)"/><rect x="0" y="179.20000000000002" width="25.6" height="25.6" rx="6" fill="hsl(252,73%,56%)"/><rect x="25.6" y="179.20000000000002" width="25.6" height="25.6" rx="0" fill="hsl(112,73%,66%)"/><rect x="51.2" y="179.20000000000002" width="25.6" height="25.6" rx="6" fill="hsl(332,63%,76%)"/><rect x="76.80000000000001" y="179.20000000000002" width="25.6" height="25.6" rx="0" fill="hsl(332,63%,76%)"/><rect x="102.4" y="179.20000000000002" width="25.6" height="25.6" rx="0" fill="hsl(112,73%,66%)"/><rect x="128" y="179.20000000000002" width="25.6" height="25.6" rx="0" fill="hsl(332,63%,76%)"/><rect x="153.60000000000002" y="179.20000000000002" width="25.6" height="25.6" rx="6" fill="hsl(252,73%,56%)"/><rect x="179.20000000000002" y="179.20000000000002" width="25.6" height="25.6" rx="0" fill="hsl(332,63%,76%)"/><rect x="204.8" y="179.20000000000002" width="25.6" height="25.6" rx="0" fill="hsl(252,73%,56%)"/><rect x="230.4" y="179.20000000000002" width="25.6" height="25.6" rx="0" fill="hsl(332,63%,76%)"/><rect x="256" y="179.20000000000002" width="25.6" height="25.6" rx="0" fill="hsl(112,73%,66%)"/><rect x="281.6" y="179.20000000000002" width="25.6" height="25.6" rx="0" fill="hsl(112,73%,66%)"/><rect x="307.20000000000005" y="179.20000000000002" width="25.6" height="25.6" rx="0" fill="hsl(112,73%,66%)"/><rect x="332.8" y="179.20000000000002" width="25.6" height="25.6" rx="0" fill="hsl(252,73%,56%)"/><rect x="358.40000000000003" y="179.20000000000002" width="25.6" height="25.6" rx="0" fill="hsl(252,73%,56%)"/><rect x="384" y="179.20000000000002" width="25.6" height="25.6" rx="0" fill="hsl(112,73%,66%)"/><rect x="409.6" y="179.20000000000002" width="25.6" height="25.6" rx="0" fill="hsl(112,73%,66%)"/><rect x="435.20000000000005" y="179.20000000000002" width="25.6" height="25.6" rx="0" fill="hsl(252,73%,56%)"/><rect x="460.8" y="179.20000000000002" width="25.6" height="25.6" rx="0" fill="hsl(332,63%,76%)"/><rect x="486.40000000000003" y="179.20000000000002" width="25.6" height="25.6" rx="0" fill="hsl(252,73%,56%)"/><rect x="0" y="204.8" width="25.6" height="25.6" rx="0" fill="hsl(332,63%,76%)"/><rect x="25.6" y="204.8" width="25.6" height="25.6" rx="0" fill="hsl(332,63%,76%)"/><rect x="51.2" y="204.8" width="25.6" height="25.6" rx="0" fill="hsl(252,73%,56%)"/><rect x="76.80000000000001" y="204.8" width="25.6" height="25.6" rx="0" fill="hsl(252,73%,56%)"/><rect x="102.4" y="204.8" width="25.6" height="25.6" rx="6" fill="hsl(112,73%,66%)"/><rect x="128" y="204.8" width="25.6" height="25.6" rx="0" fill="hsl(332,63%,76%)"/><rect x="153.60000000000002" y="204.8" width="25.6" height="25.6" rx="0" fill="hsl(252,73%,56%)"/><rect x="179.20000000000002" y="204.8" width="25.6" height="25.6" rx="0" fill="hsl(332,63%,76%)"/><rect x="204.8" y="204.8" width="25.6" height="25.6" rx="0" fill="hsl(252,73%,56%)"/><rect x="230.4" y="204.8" width="25.6" height="25.6" rx="0" fill="hsl(252,73%,56%)"/><rect x="256" y="204.8" width="25.6" height="25.6" rx="0" fill="hsl(332,63%,76%)"/><rect x="281.6" y="204.8" width="25.6" height="25.6" rx="0" fill="hsl(252,73%,56%)"/><rect x="307.20000000000005" y="204.8" width="25.6" height="25.6" rx="0" fill="hsl(252,73%,56%)"/><rect x="332.8" y="204.8" width="25.6" height="25.6" rx="0" fill="hsl(252,73%,56%)"/><rect x="358.40000000000003" y="204.8" width="25.6" height="25.6" rx="0" fill="hsl(332,63%,76%)"/><rect x="384" y="204.8" width="25.6" height="25.6" rx="0" fill="hsl(252,73%,56%)"/><rect x="409.6" y="204.8" width="25.6" height="25.6" rx="0" fill="hsl(252,73%,56%)"/><rect x="435.20000000000005" y="204.8" width="25.6" height="25.6" rx="0" fill="hsl(112,73%,66%)"/><rect x="460.8" y="204.8" width="25.6" height="25.6" rx="0" fill="hsl(332,63%,76%)"/><rect x="486.40000000000003" y="204.8" width="25.6" height="25.6" rx="0" fill="hsl(112,73%,66%)"/><rect x="0" y="230.4" width="25.6" height="25.6" rx="0" fill="hsl(332,63%,76%)"/><rect x="25.6" y="230.4" width="25.6" height="25.6" rx="0" fill="hsl(112,73%,66%)"/><rect x="51.2" y="230.4" width="25.6" height="25.6" rx="0" fill="hsl(332,63%,76%)"/><rect x="76.80000000000001" y="230.4" width="25.6" height="25.6" rx="0" fill="hsl(112,73%,66%)"/><rect x="102.4" y="230.4" width="25.6" height="25.6" rx="0" fill="hsl(252,73%,56%)"/><rect x="128" y="230.4" width="25.6" height="25.6" rx="0" fill="hsl(112,73%,66%)"/><rect x="153.60000000000002" y="230.4" width="25.6" height="25.6" rx="0" fill="hsl(252,73%,56%)"/><rect x="179.20000000000002" y="230.4" width="25.6" height="25.6" rx="0" fill="hsl(332,63%,76%)"/><rect x="204.8" y="230.4" width="25.6" height="25.6" rx="6" fill="hsl(252,73%,56%)"/><rect x="230.4" y="230.4" width="25.6" height="25.6" rx="0" fill="hsl(252,73%,56%)"/><rect x="256" y="230.4" width="25.6" height="25.6" rx="0" fill="hsl(112,73%,66%)"/><rect x="281.6" y="230.4" width="25.6" height="25.6" rx="0" fill="hsl(252,73%,56%)"/><rect x="307.20000000000005" y="230.4" width="25.6" height="25.6" rx="0" fill="hsl(112,73%,66%)"/><rect x="332.8" y="230.4" width="25.6" height="25.6" rx="0" fill="hsl(252,73%,56%)"/><rect x="358.40000000000003" y="230.4" width="25.6" height="25.6" rx="0" fill="hsl(252,73%,56%)"/><rect x="384" y="230.4" width="25.6" height="25.6" rx="0" fill="hsl(112,73%,66%)"/><rect x="409.6" y="230.4" width="25.6" height="25.6" rx="0" fill="hsl(332,63%,76%)"/><rect x="435.20000000000005" y="230.4" width="25.6" height="25.6" rx="0" fill="hsl(332,63%,76%)"/><rect x="460.8" y="230.4" width="25.6" height="25.6" rx="0" fill="hsl(112,73%,66%)"/><rect x="486.40000000000003" y="230.4" width="25.6" height="25.6" rx="0" fill="hsl(252,73%,56%)"/><rect x="0" y="256" width="25.6" height="25.6" rx="0" fill="hsl(252,73%,56%)"/><rect x="25.6" y="256" width="25.6" height="25.6" rx="0" fill="hsl(252,73%,56%)"/><rect x="51.2" y="256" width="25.6" height="25.6" rx="0" fill="hsl(332,63%,76%)"/><rect x="76.80000000000001" y="256" width="25.6" height="25.6" rx="6" fill="hsl(252,73%,56%)"/><rect x="102.4" y="256" width="25.6" height="25.6" rx="0" fill="hsl(332,63%,76%)"/><rect x="128" y="256" width="25.6" height="25.6" rx="0" fill="hsl(332,63%,76%)"/><rect x="153.60000000000002" y="256" width="25.6" height="25.6" rx="0" fill="hsl(252,73%,56%)"/><rect x="179.20000000000002" y="256" width="25.6" height="25.6" rx="0" fill="hsl(112,73%,66%)"/><rect x="204.8" y="256" width="25.6" height="25.6" rx="0" fill="hsl(252,73%,56%)"/><rect x="230.4" y="256" width="25.6" height="25.6" rx="0" fill="hsl(252,73%,56%)"/><rect x="256" y="256" width="25.6" height="25.6" rx="0" fill="hsl(252,73%,56%)"/><rect x="281.6" y="256" width="25.6" height="25.6" rx="0" fill="hsl(112,73%,66%)"/><rect x="307.20000000000005" y="256" width="25.6" height="25.6" rx="0" fill="hsl(112,73%,66%)"/><rect x="332.8" y="256" width="25.6" height="25.6" rx="0" fill="hsl(332,63%,76%)"/><rect x="358.40000000000003" y="256" width="25.6" height="25.6" rx="0" fill="hsl(112,73%,66%)"/><rect x="384" y="256" width="25.6" height="25.6" rx="0" fill="hsl(332,63%,76%)"/><rect x="409.6" y="256" width="25.6" height="25.6" rx="0" fill="hsl(252,73%,56%)"/><rect x="435.20000000000005" y="256" width="25.6" height="25.6" rx="0" fill="hsl(252,73%,56%)"/><rect x="460.8" y="256" width="25.6" height="25.6" rx="0" fill="hsl(252,73%,56%)"/><rect x="486.40000000000003" y="256" width="25.6" height="25.6" rx="0" fill="hsl(252,73%,56%)"/><rect x="0" y="281.6" width="25.6" height="25.6" rx="0" fill="hsl(252,73%,56%)"/><rect x="25.6" y="281.6" width="25.6" height="25.6" rx="0" fill="hsl(332,63%,76%)"/><rect x="51.2" y="281.6" width="25.6" height="25.6" rx="0" fill="hsl(332,63%,76%)"/><rect x="76.80000000000001" y="281.6" width="25.6" height="25.6" rx="0" fill="hsl(252,73%,56%)"/><rect x="102.4" y="281.6" width="25.6" height="25.6" rx="0" fill="hsl(112,73%,66%)"/><rect x="128" y="281.6" width="25.6" height="25.6" rx="0" fill="hsl(252,73%,56%)"/><rect x="153.60000000000002" y="281.6" width="25.6" height="25.6" rx="0" fill="hsl(252,73%,56%)"/><rect x="179.20000000000002" y="281.6" width="25.6" height="25.6" rx="0" fill="hsl(332,63%,76%)"/><rect x="204.8" y="281.6" width="25.6" height="25.6" rx="0" fill="hsl(112,73%,66%)"/><rect x="230.4" y="281.6" width="25.6" height="25.6" rx="0" fill="hsl(112,73%,66%)"/><rect x="256" y="281.6" width="25.6" height="25.6" rx="0" fill="hsl(112,73%,66%)"/><rect x="281.6" y="281.6" width="25.6" height="25.6" rx="0" fill="hsl(332,63%,76%)"/><rect x="307.20000000000005" y="281.6" width="25.6" height="25.6" rx="0" fill="hsl(332,63%,76%)"/><rect x="332.8" y="281.6" width="25.6" height="25.6" rx="6" fill="hsl(252,73%,56%)"/><rect x="358.40000000000003" y="281.6" width="25.6" height="25.6" rx="0" fill="hsl(332,63%,76%)"/><rect x="384" y="281.6" width="25.6" height="25.6" rx="0" fill="hsl(332,63%,76%)"/><rect x="409.6" y="281.6" width="25.6" height="25.6" rx="0" fill="hsl(332,63%,76%)"/><rect x="435.20000000000005" y="281.6" width="25.6" height="25.6" rx="6" fill="hsl(332,63%,76%)"/><rect x="460.8" y="281.6" width="25.6" height="25.6" rx="6" fill="hsl(252,73%,56%)"/><rect x="486.40000000000003" y="281.6" width="25.6" height="25.6" rx="0" fill="hsl(252,73%,56%)"/><rect x="0" y="307.20000000000005" width="25.6" height="25.6" rx="0" fill="hsl(112,73%,66%)"/><rect x="25.6" y="307.20000000000005" width="25.6" height="25.6" rx="0" fill="hsl(332,63%,76%)"/><rect x="51.2" y="307.20000000000005" width="25.6" height="25.6" rx="0" fill="hsl(332,63%,76%)"/><rect x="76.80000000000001" y="307.20000000000005" width="25.6" height="25.6" rx="0" fill="hsl(252,73%,56%)"/><rect x="102.4" y="307.20000000000005" width="25.6" height="25.6" rx="0" fill="hsl(112,73%,66%)"/><rect x="128" y="307.20000000000005" width="25.6" height="25.6" rx="0" fill="hsl(332,63%,76%)"/><rect x="153.60000000000002" y="307.20000000000005" width="25.6" height="25.6" rx="0" fill="hsl(112,73%,66%)"/><rect x="179.20000000000002" y="307.20000000000005" width="25.6" height="25.6" rx="0" fill="hsl(112,73%,66%)"/><rect x="204.8" y="307.20000000000005" width="25.6" height="25.6" rx="0" fill="hsl(332,63%,76%)"/><rect x="230.4" y="307.20000000000005" width="25.6" height="25.6" rx="0" fill="hsl(332,63%,76%)"/><rect x="256" y="307.20000000000005" width="25.6" height="25.6" rx="0" fill="hsl(112,73%,66%)"/><rect x="281.6" y="307.20000000000005" width="25.6" height="25.6" rx="0" fill="hsl(252,73%,56%)"/><rect x="307.20000000000005" y="307.20000000000005" width="25.6" height="25.6" rx="6" fill="hsl(252,73%,56%)"/><rect x="332.8" y="307.20000000000005" width="25.6" height="25.6" rx="0" fill="hsl(252,73%,56%)"/><rect x="358.40000000000003" y="307.20000000000005" width="25.6" height="25.6" rx="0" fill="hsl(332,63%,76%)"/><rect x="384" y="307.20000000000005" width="25.6" height="25.6" rx="0" fill="hsl(112,73%,66%)"/><rect x="409.6" y="307.20000000000005" width="25.6" height="25.6" rx="0" fill="hsl(332,63%,76%)"/><rect x="435.20000000000005" y="307.20000000000005" width="25.6" height="25.6" rx="6" fill="hsl(252,73%,56%)"/><rect x="460.8" y="307.20000000000005" width="25.6" height="25.6" rx="0" fill="hsl(252,73%,56%)"/><rect x="486.40000000000003" y="307.20000000000005" width="25.6" height="25.6" rx="0" fill="hsl(112,73%,66%)"/><rect x="0" y="332.8" width="25.6" height="25.6" rx="0" fill="hsl(332,63%,76%)"/><rect x="25.6" y="332.8" width="25.6" height="25.6" rx="0" fill="hsl(332,63%,76%)"/><rect x="51.2" y="332.8" width="25.6" height="25.6" rx="0" fill="hsl(332,63%,76%)"/><rect x="76.80000000000001" y="332.8" width="25.6" height="25.6" rx="0" fill="hsl(112,73%,66%)"/><rect x="102.4" y="332.8" width="25.6" height="25.6" rx="0" fill="hsl(332,63%,76%)"/><rect x="128" y="332.8" width="25.6" height="25.6" rx="0" fill="hsl(112,73%,66%)"/><rect x="153.60000000000002" y="332.8" width="25.6" height="25.6" rx="0" fill="hsl(332,63%,76%)"/><rect x="179.20000000000002" y="332.8" width="25.6" height="25.6" rx="0" fill="hsl(112,73%,66%)"/><rect x="204.8" y="332.8" width="25.6" height="25.6" rx="0" fill="hsl(252,73%,56%)"/><rect x="230.4" y="332.8" width="25.6" height="25.6" rx="0" fill="hsl(252,73%,56%)"/><rect x="256" y="332.8" width="25.6" height="25.6" rx="0" fill="hsl(252,73%,56%)"/><rect x="281.6" y="332.8" width="25.6" height="25.6" rx="0" fill="hsl(332,63%,76%)"/><rect x="307.20000000000005" y="332.8" width="25.6" height="25.6" rx="0" fill="hsl(112,73%,66%)"/><rect x="332.8" y="332.8" width="25.6" height="25.6" rx="0" fill="hsl(112,73%,66%)"/><rect x="358.40000000000003" y="332.8" width="25.6" height="25.6" rx="0" fill="hsl(332,63%,76%)"/><rect x="384" y="332.8" width="25.6" height="25.6" rx="6" fill="hsl(332,63%,76%)"/><rect x="409.6" y="332.8" width="25.6" height="25.6" rx="0" fill="hsl(112,73%,66%)"/><rect x="435.20000000000005" y="332.8" width="25.6" height="25.6" rx="0" fill="hsl(332,63%,76%)"/><rect x="460.8" y="332.8" width="25.6" height="25.6" rx="0" fill="hsl(332,63%,76%)"/><rect x="486.40000000000003" y="332.8" width="25.6" height="25.6" rx="0" fill="hsl(252,73%,56%)"/><rect x="0" y="358.40000000000003" width="25.6" height="25.6" rx="0" fill="hsl(332,63%,76%)"/><rect x="25.6" y="358.40000000000003" width="25.6" height="25.6" rx="0" fill="hsl(112,73%,66%)"/><rect x="51.2" y="358.40000000000003" width="25.6" height="25.6" rx="6" fill="hsl(112,73%,66%)"/><rect x="76.80000000000001" y="358.40000000000003" width="25.6" height="25.6" rx="0" fill="hsl(252,73%,56%)"/><rect x="102.4" y="358.40000000000003" width="25.6" height="25.6" rx="0" fill="hsl(112,73%,66%)"/><rect x="128" y="358.40000000000003" width="25.6" height="25.6" rx="0" fill="hsl(252,73%,56%)"/><rect x="153.60000000000002" y="358.40000000000003" width="25.6" height="25.6" rx="0" fill="hsl(112,73%,66%)"/><rect x="179.20000000000002" y="358.40000000000003" width="25.6" height="25.6" rx="0" fill="hsl(252,73%,56%)"/><rect x="204.8" y="358.40000000000003" width="25.6" height="25.6" rx="0" fill="hsl(332,63%,76%)"/><rect x="230.4" y="358.40000000000003" width="25.6" height="25.6" rx="0" fill="hsl(332,63%,76%)"/><rect x="256" y="358.40000000000003" width="25.6" height="25.6" rx="0" fill="hsl(332,63%,76%)"/><rect x="281.6" y="358.40000000000003" width="25.6" height="25.6" rx="0" fill="hsl(252,73%,56%)"/><rect x="307.20000000000005" y="358.40000000000003" width="25.6" height="25.6" rx="0" fill="hsl(332,63%,76%)"/><rect x="332.8" y="358.40000000000003" width="25.6" height="25.6" rx="0" fill="hsl(252,73%,56%)"/><rect x="358.40000000000003" y="358.40000000000003" width="25.6" height="25.6" rx="0" fill="hsl(112,73%,66%)"/><rect x="384" y="358.40000000000003" width="25.6" height="25.6" rx="0" fill="hsl(332,63%,76%)"/><rect x="409.6" y="358.40000000000003" width="25.6" height="25.6" rx="6" fill="hsl(112,73%,66%)"/><rect x="435.20000000000005" y="358.40000000000003" width="25.6" height="25.6" rx="0" fill="hsl(252,73%,56%)"/><rect x="460.8" y="358.40000000000003" width="25.6" height="25.6" rx="0" fill="hsl(332,63%,76%)"/><rect x="486.40000000000003" y="358.40000000000003" width="25.6" height="25.6" rx="0" fill="hsl(332,63%,76%)"/><rect x="0" y="384" width="25.6" height="25.6" rx="0" fill="hsl(112,73%,66%)"/><rect x="25.6" y="384" width="25.6" height="25.6" rx="0" fill="hsl(332,63%,76%)"/><rect x="51.2" y="384" width="25.6" height="25.6" rx="6" fill="hsl(112,73%,66%)"/><rect x="76.80000000000001" y="384" width="25.6" height="25.6" rx="0" fill="hsl(112,73%,66%)"/><rect x="102.4" y="384" width="25.6" height="25.6" rx="6" fill="hsl(252,73%,56%)"/><rect x="128" y="384" width="25.6" height="25.6" rx="0" fill="hsl(332,63%,76%)"/><rect x="153.60000000000002" y="384" width="25.6" height="25.6" rx="0" fill="hsl(112,73%,66%)"/><rect x="179.20000000000002" y="384" width="25.6" height="25.6" rx="0" fill="hsl(332,63%,76%)"/><rect x="204.8" y="384" width="25.6" height="25.6" rx="0" fill="hsl(252,73%,56%)"/><rect x="230.4" y="384" width="25.6" height="25.6" rx="0" fill="hsl(112,73%,66%)"/><rect x="256" y="384" width="25.6" height="25.6" rx="0" fill="hsl(112,73%,66%)"/><rect x="281.6" y="384" width="25.6" height="25.6" rx="0" fill="hsl(112,73%,66%)"/><rect x="307.20000000000005" y="384" width="25.6" height="25.6" rx="0" fill="hsl(252,73%,56%)"/><rect x="332.8" y="384" width="25.6" height="25.6" rx="0" fill="hsl(332,63%,76%)"/><rect x="358.40000000000003" y="384" width="25.6" height="25.6" rx="0" fill="hsl(332,63%,76%)"/><rect x="384" y="384" width="25.6" height="25.6" rx="0" fill="hsl(252,73%,56%)"/><rect x="409.6" y="384" width="25.6" height="25.6" rx="0" fill="hsl(112,73%,66%)"/><rect x="435.20000000000005" y="384" width="25.6" height="25.6" rx="0" fill="hsl(332,63%,76%)"/><rect x="460.8" y="384" width="25.6" height="25.6" rx="0" fill="hsl(332,63%,76%)"/><rect x="486.40000000000003" y="384" width="25.6" height="25.6" rx="0" fill="hsl(252,73%,56%)"/><rect x="0" y="409.6" width="25.6" height="25.6" rx="0" fill="hsl(332,63%,76%)"/><rect x="25.6" y="409.6" width="25.6" height="25.6" rx="0" fill="hsl(332,63%,76%)"/><rect x="51.2" y="409.6" width="25.6" height="25.6" rx="0" fill="hsl(112,73%,66%)"/><rect x="76.80000000000001" y="409.6" width="25.6" height="25.6" rx="0" fill="hsl(332,63%,76%)"/><rect x="102.4" y="409.6" width="25.6" height="25.6" rx="0" fill="hsl(252,73%,56%)"/><rect x="128" y="409.6" width="25.6" height="25.6" rx="0" fill="hsl(252,73%,56%)"/><rect x="153.60000000000002" y="409.6" width="25.6" height="25.6" rx="0" fill="hsl(112,73%,66%)"/><rect x="179.20000000000002" y="409.6" width="25.6" height="25.6" rx="0" fill="hsl(332,63%,76%)"/><rect x="204.8" y="409.6" width="25.6" height="25.6" rx="0" fill="hsl(112,73%,66%)"/><rect x="230.4" y="409.6" width="25.6" height="25.6" rx="0" fill="hsl(112,73%,66%)"/><rect x="256" y="409.6" width="25.6" height="25.6" rx="0" fill="hsl(112,73%,66%)"/><rect x="281.6" y="409.6" width="25.6" height="25.6" rx="0" fill="hsl(252,73%,56%)"/><rect x="307.20000000000005" y="409.6" width="25.6" height="25.6" rx="0" fill="hsl(332,63%,76%)"/><rect x="332.8" y="409.6" width="25.6" height="25.6" rx="0" fill="hsl(252,73%,56%)"/><rect x="358.40000000000003" y="409.6" width="25.6" height="25.6" rx="0" fill="hsl(332,63%,76%)"/><rect x="384" y="409.6" width="25.6" height="25.6" rx="0" fill="hsl(252,73%,56%)"/><rect x="409.6" y="409.6" width="25.6" height="25.6" rx="0" fill="hsl(112,73%,66%)"/><rect x="435.20000000000005" y="409.6" width="25.6" height="25.6" rx="0" fill="hsl(112,73%,66%)"/><rect x="460.8" y="409.6" width="25.6" height="25.6" rx="0" fill="hsl(252,73%,56%)"/><rect x="486.40000000000003" y="409.6" width="25.6" height="25.6" rx="0" fill="hsl(112,73%,66%)"/><rect x="0" y="435.20000000000005" width="25.6" height="25.6" rx="0" fill="hsl(112,73%,66%)"/><rect x="25.6" y="435.20000000000005" width="25.6" height="25.6" rx="0" fill="hsl(332,63%,76%)"/><rect x="51.2" y="435.20000000000005" width="25.6" height="25.6" rx="0" fill="hsl(332,63%,76%)"/><rect x="76.80000000000001" y="435.20000000000005" width="25.6" height="25.6" rx="0" fill="hsl(112,73%,66%)"/><rect x="102.4" y="435.20000000000005" width="25.6" height="25.6" rx="0" fill="hsl(332,63%,76%)"/><rect x="128" y="435.20000000000005" width="25.6" height="25.6" rx="0" fill="hsl(252,73%,56%)"/><rect x="153.60000000000002" y="435.20000000000005" width="25.6" height="25.6" rx="6" fill="hsl(252,73%,56%)"/><rect x="179.20000000000002" y="435.20000000000005" width="25.6" height="25.6" rx="0" fill="hsl(112,73%,66%)"/><rect x="204.8" y="435.20000000000005" width="25.6" height="25.6" rx="0" fill="hsl(252,73%,56%)"/><rect x="230.4" y="435.20000000000005" width="25.6" height="25.6" rx="6" fill="hsl(112,73%,66%)"/><rect x="256" y="435.20000000000005" width="25.6" height="25.6" rx="0" fill="hsl(332,63%,76%)"/><rect x="281.6" y="435.20000000000005" width="25.6" height="25.6" rx="0" fill="hsl(112,73%,66%)"/><rect x="307.20000000000005" y="435.20000000000005" width="25.6" height="25.6" rx="0" fill="hsl(332,63%,76%)"/><rect x="332.8" y="435.20000000000005" width="25.6" height="25.6" rx="6" fill="hsl(112,73%,66%)"/><rect x="358.40000000000003" y="435.20000000000005" width="25.6" height="25.6" rx="0" fill="hsl(112,73%,66%)"/><rect x="384" y="435.20000000000005" width="25.6" height="25.6" rx="0" fill="hsl(332,63%,76%)"/><rect x="409.6" y="435.20000000000005" width="25.6" height="25.6" rx="0" fill="hsl(252,73%,56%)"/><rect x="435.20000000000005" y="435.20000000000005" width="25.6" height="25.6" rx="0" fill="hsl(332,63%,76%)"/><rect x="460.8" y="435.20000000000005" width="25.6" height="25.6" rx="0" fill="hsl(112,73%,66%)"/><rect x="486.40000000000003" y="435.20000000000005" width="25.6" height="25.6" rx="0" fill="hsl(332,63%,76%)"/><rect x="0" y="460.8" width="25.6" height="25.6" rx="0" fill="hsl(252,73%,56%)"/><rect x="25.6" y="460.8" width="25.6" height="25.6" rx="0" fill="hsl(112,73%,66%)"/><rect x="51.2" y="460.8" width="25.6" height="25.6" rx="0" fill="hsl(332,63%,76%)"/><rect x="76.80000000000001" y="460.8" width="25.6" height="25.6" rx="0" fill="hsl(252,73%,56%)"/><rect x="102.4" y="460.8" width="25.6" height="25.6" rx="6" fill="hsl(252,73%,56%)"/><rect x="128" y="460.8" width="25.6" height="25.6" rx="0" fill="hsl(252,73%,56%)"/><rect x="153.60000000000002" y="460.8" width="25.6" height="25.6" rx="0" fill="hsl(252,73%,56%)"/><rect x="179.20000000000002" y="460.8" width="25.6" height="25.6" rx="0" fill="hsl(332,63%,76%)"/><rect x="204.8" y="460.8" width="25.6" height="25.6" rx="0" fill="hsl(332,63%,76%)"/><rect x="230.4" y="460.8" width="25.6" height="25.6" rx="6" fill="hsl(112,73%,66%)"/><rect x="256" y="460.8" width="25.6" height="25.6" rx="0" fill="hsl(332,63%,76%)"/><rect x="281.6" y="460.8" width="25.6" height="25.6" rx="0" fill="hsl(112,73%,66%)"/><rect x="307.20000000000005" y="460.8" width="25.6" height="25.6" rx="0" fill="hsl(332,63%,76%)"/><rect x="332.8" y="460.8" width="25.6" height="25.6" rx="0" fill="hsl(252,73%,56%)"/><rect x="358.40000000000003" y="460.8" width="25.6" height="25.6" rx="0" fill="hsl(112,73%,66%)"/><rect x="384" y="460.8" width="25.6" height="25.6" rx="6" fill="hsl(112,73%,66%)"/><rect x="409.6" y="460.8" width="25.6" height="25.6" rx="0" fill="hsl(112,73%,66%)"/><rect x="435.20000000000005" y="460.8" width="25.6" height="25.6" rx="0" fill="hsl(252,73%,56%)"/><rect x="460.8" y="460.8" width="25.6" height="25.6" rx="0" fill="hsl(252,73%,56%)"/><rect x="486.40000000000003" y="460.8" width="25.6" height="25.6" rx="0" fill="hsl(112,73%,66%)"/><rect x="0" y="486.40000000000003" width="25.6" height="25.6" rx="6" fill="hsl(252,73%,56%)"/><rect x="25.6" y="486.40000000000003" width="25.6" height="25.6" rx="0" fill="hsl(332,63%,76%)"/><rect x="51.2" y="486.40000000000003" width="25.6" height="25.6" rx="0" fill="hsl(112,73%,66%)"/><rect x="76.80000000000001" y="486.40000000000003" width="25.6" height="25.6" rx="0" fill="hsl(332,63%,76%)"/><rect x="102.4" y="486.40000000000003" width="25.6" height="25.6" rx="0" fill="hsl(112,73%,66%)"/><rect x="128" y="486.40000000000003" width="25.6" height="25.6" rx="0" fill="hsl(332,63%,76%)"/><rect x="153.60000000000002" y="486.40000000000003" width="25.6" height="25.6" rx="0" fill="hsl(332,63%,76%)"/><rect x="179.20000000000002" y="486.40000000000003" width="25.6" height="25.6" rx="0" fill="hsl(112,73%,66%)"/><rect x="204.8" y="486.40000000000003" width="25.6" height="25.6" rx="0" fill="hsl(332,63%,76%)"/><rect x="230.4" y="486.40000000000003" width="25.6" height="25.6" rx="0" fill="hsl(112,73%,66%)"/><rect x="256" y="486.40000000000003" width="25.6" height="25.6" rx="6" fill="hsl(112,73%,66%)"/><rect x="281.6" y="486.40000000000003" width="25.6" height="25.6" rx="0" fill="hsl(332,63%,76%)"/><rect x="307.20000000000005" y="486.40000000000003" width="25.6" height="25.6" rx="0" fill="hsl(112,73%,66%)"/><rect x="332.8" y="486.40000000000003" width="25.6" height="25.6" rx="0" fill="hsl(332,63%,76%)"/><rect x="358.40000000000003" y="486.40000000000003" width="25.6" height="25.6" rx="0" fill="hsl(112,73%,66%)"/><rect x="384" y="486.40000000000003" width="25.6" height="25.6" rx="0" fill="hsl(332,63%,76%)"/><rect x="409.6" y="486.40000000000003" width="25.6" height="25.6" rx="0" fill="hsl(332,63%,76%)"/><rect x="435.20000000000005" y="486.40000000000003" width="25.6" height="25.6" rx="6" fill="hsl(112,73%,66%)"/><rect x="460.8" y="486.40000000000003" width="25.6" height="25.6" rx="0" fill="hsl(332,63%,76%)"/><rect x="486.40000000000003" y="486.40000000000003" width="25.6" height="25.6" rx="0" fill="hsl(252,73%,56%)"/>
  </svg>