<svg xmlns="http://www.w3.org/2000/svg" width="512" height="512" viewBox="0 0 512 512">
  <defs>
    <filter id="gr"><feTurbulence type="fractalNoise" baseFrequency="0.065" numOctaves="1" result="n"/><feColorMatrix type="saturate" values="0.25"/></filter>
  </defs>
  <rect width="100%" height="100%" fill="white"/>
  <rect x="0" y="0" width="64" height="64" rx="0" fill="hsl(315,69%,55%)"/><rect x="64" y="0" width="64" height="64" rx="0" fill="hsl(315,69%,55%)"/><rect x="128" y="0" width="64" height="64" rx="0" fill="hsl(315,69%,55%)"/><rect x="192" y="0" width="64" height="64" rx="0" fill="hsl(175,59%,65%)"/><rect x="256" y="0" width="64" height="64" rx="0" fill="hsl(315,69%,55%)"/><rect x="320" y="0" width="64" height="64" rx="0" fill="hsl(95,69%,45%)"/><rect x="384" y="0" width="64" height="64" rx="0" fill="hsl(315,69%,55%)"/><rect x="448" y="0" width="64" height="64" rx="0" fill="hsl(95,69%,45%)"/><rect x="0" y="64" width="64" height="64" rx="0" fill="hsl(315,69%,55%)"/><rect x="64" y="64" width="64" height="64" rx="0" fill="hsl(315,69%,55%)"/><rect x="128" y="64" width="64" height="64" rx="0" fill="hsl(95,69%,45%)"/><rect x="192" y="64" width="64" height="64" rx="0" fill="hsl(315,69%,55%)"/><rect x="256" y="64" width="64" height="64" rx="0" fill="hsl(315,69%,55%)"/><rect x="320" y="64" width="64" height="64" rx="0" fill="hsl(95,69%,45%)"/><rect x="384" y="64" width="64" height="64" rx="0" fill="hsl(315,69%,55%)"/><rect x="448" y="64" width="64" height="64" rx="6" fill="hsl(175,59%,65%)"/><rect x="0" y="128" width="64" height="64" rx="0" fill="hsl(315,69%,55%)"/><rect x="64" y="128" width="64" height="64" rx="0" fill="hsl(315,69%,55%)"/><rect x="128" y="128" width="64" height="64" rx="0" fill="hsl(315,69%,55%)"/><rect x="192" y="128" width="64" height="64" rx="0" fill="hsl(315,69%,55%)"/><rect x="256" y="128" width="64" height="64" rx="0" fill="hsl(175,59%,65%)"/><rect x="320" y="128" width="64" height="64" rx="0" fill="hsl(315,69%,55%)"/><rect x="384" y="128" width="64" height="64" rx="0" fill="hsl(315,69%,55%)"/><rect x="448" y="128" width="64" height="64" rx="0" fill="hsl(175,59%,65%)"/><rect x="0" y="192" width="64" height="64" rx="0" fill="hsl(175,59%,65%)"/><rect x="64" y="192" width="64" height="64" rx="0" fill="hsl(175,59%,65%)"/><rect x="128" y="192" width="64" height="64" rx="0" fill="hsl(95,69%,45%)"/><rect x="192" y="192" width="64" height="64" rx="0" fill="hsl(95,69%,45%)"/><rect x="256" y="192" width="64" height="64" rx="0" fill="hsl(95,69%,45%)"/><rect x="320" y="192" width="64" height="64" rx="0" fill="hsl(95,69%,45%)"/><rect x="384" y="192" width="64" height="64" rx="6" fill="hsl(175,59%,65%)"/><rect x="448" y="192" width="64" height="64" rx="0" fill="hsl(175,59%,65%)"/><rect x="0" y="256" width="64" height="64" rx="0" fill="hsl(175,59%,65%)"/><rect x="64" y="256" width="64" height="64" rx="0" fill="hsl(95,69%,45%)"/><rect x="128" y="256" width="64" height="64" rx="0" fill="hsl(315,69%,55%)"/><rect x="192" y="256" width="64" height="64" rx="0" fill="hsl(315,69%,55%)"/><rect x="256" y="256" width="64" height="64" rx="6" fill="hsl(95,69%,45%)"/><rect x="320" y="256" width="64" height="64" rx="0" fill="hsl(315,69%,55%)"/><rect x="384" y="256" width="64" height="64" rx="0" fill="hsl(315,69%,55%)"/><rect x="448" y="256" width="64" height="64" rx="0" fill="hsl(95,69%,45%)"/><rect x="0" y="320" width="64" height="64" rx="0" fill="hsl(95,69%,45%)"/><rect x="64" y="320" width="64" height="64" rx="0" fill="hsl(175,59%,65%)"/><rect x="128" y="320" width="64" height="64" rx="0" fill="hsl(95,69%,45%)"/><rect x="192" y="320" width="64" height="64" rx="0" fill="hsl(95,69%,45%)"/><rect x="256" y="320" width="64" height="64" rx="0" fill="hsl(315,69%,55%)"/><rect x="320" y="320" width="64" height="64" rx="0" fill="hsl(175,59%,65%)"/><rect x="384" y="320" width="64" height="64" rx="0" fill="hsl(175,59%,65%)"/><rect x="448" y="320" width="64" height="64" rx="0" fill="hsl(95,69%,45%)"/><rect x="0" y="384" width="64" height="64" rx="6" fill="hsl(175,59%,65%)"/><rect x="64" y="384" width="64" height="64" rx="0" fill="hsl(315,69%,55%)"/><rect x="128" y="384" width="64" height="64" rx="0" fill="hsl(315,69%,55%)"/><rect x="192" y="384" width="64" height="64" rx="0" fill="hsl(315,69%,55%)"/><rect x="256" y="384" width="64" height="64" rx="0" fill="hsl(315,69%,55%)"/><rect x="320" y="384" width="64" height="64" rx="0" fill="hsl(175,59%,65%)"/><rect x="384" y="384" width="64" height="64" rx="0" fill="hsl(175,59%,65%)"/><rect x="448" y="384" width="64" height="64" rx="0" fill="hsl(315,69%,55%)"/><rect x="0" y="448" width="64" height="64" rx="0" fill="hsl(175,59%,65%)"/><rect x="64" y="448" width="64" height="64" rx="0" fill="hsl(315,69%,55%)"/><rect x="128" y="448" width="64" height="64" rx="0" fill="hsl(175,59%,65%)"/><rect x="192" y="448" width="64" height="64" rx="0" fill="hsl(95,69%,45%)"/><rect x="256" y="448" width="64" height="64" rx="0" fill="hsl(175,59%,65%)"/><rect x="320" y="448" width="64" height="64" rx="0" fill="hsl(95,69%,45%)"/><rect x="384" y="448" width="64" height="64" rx="0" fill="hsl(95,69%,45%)"/><rect x="448" y="448" width="64" height="64" rx="6" fill="hsl(95,69%,45%)"/>
  </svg>