<svg xmlns="http://www.w3.org/2000/svg" width="512" height="512" viewBox="0 0 512 512">
  <defs>
    <filter id="gr"><feTurbulence type="fractalNoise" baseFrequency="0.045" numOctaves="1" result="n"/><feColorMatrix type="saturate" values="0.25"/></filter>
  </defs>
  <rect width="100%" height="100%" fill="white"/>
  <rect x="0" y="0" width="39.38461538461539" height="39.38461538461539" rx="0" fill="hsl(159,64%,66%)"/><rect x="39.38461538461539" y="0" width="39.38461538461539" height="39.38461538461539" rx="0" fill="hsl(159,64%,66%)"/><rect x="78.76923076923077" y="0" width="39.38461538461539" height="39.38461538461539" rx="0" fill="hsl(19,54%,76%)"/><rect x="118.15384615384616" y="0" width="39.38461538461539" height="39.38461538461539" rx="0" fill="hsl(159,64%,66%)"/><rect x="157.53846153846155" y="0" width="39.38461538461539" height="39.38461538461539" rx="6" fill="hsl(299,64%,56%)"/><rect x="196.92307692307693" y="0" width="39.38461538461539" height="39.38461538461539" rx="0" fill="hsl(19,54%,76%)"/><rect x="236.30769230769232" y="0" width="39.38461538461539" height="39.38461538461539" rx="0" fill="hsl(299,64%,56%)"/><rect x="275.69230769230774" y="0" width="39.38461538461539" height="39.38461538461539" rx="0" fill="hsl(159,64%,66%)"/><rect x="315.0769230769231" y="0" width="39.38461538461539" height="39.38461538461539" rx="0" fill="hsl(159,64%,66%)"/><rect x="354.46153846153845" y="0" width="39.38461538461539" height="39.38461538461539" rx="0" fill="hsl(19,54%,76%)"/><rect x="393.84615384615387" y="0" width="39.38461538461539" height="39.38461538461539" rx="0" fill="hsl(159,64%,66%)"/><rect x="433.2307692307693" y="0" width="39.38461538461539" height="39.38461538461539" rx="0" fill="hsl(299,64%,56%)"/><rect x="472.61538461538464" y="0" width="39.38461538461539" height="39.38461538461539" rx="0" fill="hsl(159,64%,66%)"/><rect x="0" y="39.38461538461539" width="39.38461538461539" height="39.38461538461539" rx="0" fill="hsl(159,64%,66%)"/><rect x="39.38461538461539" y="39.38461538461539" width="39.38461538461539" height="39.38461538461539" rx="0" fill="hsl(159,64%,66%)"/><rect x="78.76923076923077" y="39.38461538461539" width="39.38461538461539" height="39.38461538461539" rx="6" fill="hsl(19,54%,76%)"/><rect x="118.15384615384616" y="39.38461538461539" width="39.38461538461539" height="39.38461538461539" rx="0" fill="hsl(299,64%,56%)"/><rect x="157.53846153846155" y="39.38461538461539" width="39.38461538461539" height="39.38461538461539" rx="0" fill="hsl(159,64%,66%)"/><rect x="196.92307692307693" y="39.38461538461539" width="39.38461538461539" height="39.38461538461539" rx="0" fill="hsl(159,64%,66%)"/><rect x="236.30769230769232" y="39.38461538461539" width="39.38461538461539" height="39.38461538461539" rx="6" fill="hsl(19,54%,76%)"/><rect x="275.69230769230774" y="39.38461538461539" width="39.38461538461539" height="39.38461538461539" rx="0" fill="hsl(299,64%,56%)"/><rect x="315.0769230769231" y="39.38461538461539" width="39.38461538461539" height="39.38461538461539" rx="0" fill="hsl(159,64%,66%)"/><rect x="354.46153846153845" y="39.38461538461539" width="39.38461538461539" height="39.38461538461539" rx="0" fill="hsl(299,64%,56%)"/><rect x="393.84615384615387" y="39.38461538461539" width="39.38461538461539" height="39.38461538461539" rx="0" fill="hsl(159,64%,66%)"/><rect x="433.2307692307693" y="39.38461538461539" width="39.38461538461539" height="39.38461538461539" rx="0" fill="hsl(299,64%,56%)"/><rect x="472.61538461538464" y="39.38461538461539" width="39.38461538461539" height="39.38461538461539" rx="0" fill="hsl(159,64%,66%)"/><rect x="0" y="78.76923076923077" width="39.38461538461539" height="39.38461538461539" rx="0" fill="hsl(299,64%,56%)"/><rect x="39.38461538461539" y="78.76923076923077" width="39.38461538461539" height="39.38461538461539" rx="0" fill="hsl(19,54%,76%)"/><rect x="78.76923076923077" y="78.76923076923077" width="39.38461538461539" height="39.38461538461539" rx="0" fill="hsl(19,54%,76%)"/><rect x="118.15384615384616" y="78.76923076923077" width="39.38461538461539" height="39.38461538461539" rx="0" fill="hsl(299,64%,56%)"/><rect x="157.53846153846155" y="78.76923076923077" width="39.38461538461539" height="39.38461538461539" rx="0" fill="hsl(299,64%,56%)"/><rect x="196.92307692307693" y="78.76923076923077" width="39.38461538461539" height="39.38461538461539" rx="0" fill="hsl(159,64%,66%)"/><rect x="236.30769230769232" y="78.76923076923077" width="39.38461538461539" height="39.38461538461539" rx="0" fill="hsl(159,64%,66%)"/><rect x="275.69230769230774" y="78.76923076923077" width="39.38461538461539" height="39.38461538461539" rx="6" fill="hsl(299,64%,56%)"/><rect x="315.0769230769231" y="78.76923076923077" width="39.38461538461539" height="39.38461538461539" rx="0" fill="hsl(299,64%,56%)"/><rect x="354.46153846153845" y="78.76923076923077" width="39.38461538461539" height="39.38461538461539" rx="0" fill="hsl(159,64%,66%)"/><rect x="393.84615384615387" y="78.76923076923077" width="39.38461538461539" height="39.38461538461539" rx="0" fill="hsl(299,64%,56%)"/><rect x="433.2307692307693" y="78.76923076923077" width="39.38461538461539" height="39.38461538461539" rx="0" fill="hsl(19,54%,76%)"/><rect x="472.61538461538464" y="78.76923076923077" width="39.38461538461539" height="39.38461538461539" rx="0" fill="hsl(19,54%,76%)"/><rect x="0" y="118.15384615384616" width="39.38461538461539" height="39.38461538461539" rx="0" fill="hsl(299,64%,56%)"/><rect x="39.38461538461539" y="118.15384615384616" width="39.38461538461539" height="39.38461538461539" rx="0" fill="hsl(159,64%,66%)"/><rect x="78.76923076923077" y="118.15384615384616" width="39.38461538461539" height="39.38461538461539" rx="0" fill="hsl(19,54%,76%)"/><rect x="118.15384615384616" y="118.15384615384616" width="39.38461538461539" height="39.38461538461539" rx="0" fill="hsl(159,64%,66%)"/><rect x="157.53846153846155" y="118.15384615384616" width="39.38461538461539" height="39.38461538461539" rx="0" fill="hsl(159,64%,66%)"/><rect x="196.92307692307693" y="118.15384615384616" width="39.38461538461539" height="39.38461538461539" rx="0" fill="hsl(19,54%,76%)"/><rect x="236.30769230769232" y="118.15384615384616" width="39.38461538461539" height="39.38461538461539" rx="0" fill="hsl(299,64%,56%)"/><rect x="275.69230769230774" y="118.15384615384616" width="39.38461538461539" height="39.38461538461539" rx="0" fill="hsl(19,54%,76%)"/><rect x="315.0769230769231" y="118.15384615384616" width="39.38461538461539" height="39.38461538461539" rx="0" fill="hsl(19,54%,76%)"/><rect x="354.46153846153845" y="118.15384615384616" width="39.38461538461539" height="39.38461538461539" rx="0" fill="hsl(19,54%,76%)"/><rect x="393.84615384615387" y="118.15384615384616" width="39.38461538461539" height="39.38461538461539" rx="0" fill="hsl(159,64%,66%)"/><rect x="433.2307692307693" y="118.15384615384616" width="39.38461538461539" height="39.38461538461539" rx="0" fill="hsl(299,64%,56%)"/><rect x="472.61538461538464" y="118.15384615384616" width="39.38461538461539" height="39.38461538461539" rx="0" fill="hsl(19,54%,76%)"/><rect x="0" y="157.53846153846155" width="39.38461538461539" height="39.38461538461539" rx="0" fill="hsl(159,64%,66%)"/><rect x="39.38461538461539" y="157.53846153846155" width="39.38461538461539" height="39.38461538461539" rx="0" fill="hsl(159,64%,66%)"/><rect x="78.76923076923077" y="157.53846153846155" width="39.38461538461539" height="39.38461538461539" rx="0" fill="hsl(19,54%,76%)"/><rect x="118.15384615384616" y="157.53846153846155" width="39.38461538461539" height="39.38461538461539" rx="0" fill="hsl(299,64%,56%)"/><rect x="157.53846153846155" y="157.53846153846155" width="39.38461538461539" height="39.38461538461539" rx="0" fill="hsl(159,64%,66%)"/><rect x="196.92307692307693" y="157.53846153846155" width="39.38461538461539" height="39.38461538461539" rx="0" fill="hsl(299,64%,56%)"/><rect x="236.30769230769232" y="157.53846153846155" width="39.38461538461539" height="39.38461538461539" rx="0" fill="hsl(299,64%,56%)"/><rect x="275.69230769230774" y="157.53846153846155" width="39.38461538461539" height="39.38461538461539" rx="0" fill="hsl(19,54%,76%)"/><rect x="315.0769230769231" y="157.53846153846155" width="39.38461538461539" height="39.38461538461539" rx="0" fill="hsl(19,54%,76%)"/><rect x="354.46153846153845" y="157.53846153846155" width="39.38461538461539" height="39.38461538461539" rx="0" fill="hsl(159,64%,66%)"/><rect x="393.84615384615387" y="157.53846153846155" width="39.38461538461539" height="39.38461538461539" rx="0" fill="hsl(159,64%,66%)"/><rect x="433.2307692307693" y="157.53846153846155" width="39.38461538461539" height="39.38461538461539" rx="0" fill="hsl(299,64%,56%)"/><rect x="472.61538461538464" y="157.53846153846155" width="39.38461538461539" height="39.38461538461539" rx="0" fill="hsl(299,64%,56%)"/><rect x="0" y="196.92307692307693" width="39.38461538461539" height="39.38461538461539" rx="6" fill="hsl(159,64%,66%)"/><rect x="39.38461538461539" y="196.92307692307693" width="39.38461538461539" height="39.38461538461539" rx="0" fill="hsl(299,64%,56%)"/><rect x="78.76923076923077" y="196.92307692307693" width="39.38461538461539" height="39.38461538461539" rx="0" fill="hsl(159,64%,66%)"/><rect x="118.15384615384616" y="196.92307692307693" width="39.38461538461539" height="39.38461538461539" rx="0" fill="hsl(19,54%,76%)"/><rect x="157.53846153846155" y="196.92307692307693" width="39.38461538461539" height="39.38461538461539" rx="0" fill="hsl(19,54%,76%)"/><rect x="196.92307692307693" y="196.92307692307693" width="39.38461538461539" height="39.38461538461539" rx="0" fill="hsl(159,64%,66%)"/><rect x="236.30769230769232" y="196.92307692307693" width="39.38461538461539" height="39.38461538461539" rx="0" fill="hsl(19,54%,76%)"/><rect x="275.69230769230774" y="196.92307692307693" width="39.38461538461539" height="39.38461538461539" rx="0" fill="hsl(19,54%,76%)"/><rect x="315.0769230769231" y="196.92307692307693" width="39.38461538461539" height="39.38461538461539" rx="0" fill="hsl(159,64%,66%)"/><rect x="354.46153846153845" y="196.92307692307693" width="39.38461538461539" height="39.38461538461539" rx="0" fill="hsl(159,64%,66%)"/><rect x="393.84615384615387" y="196.92307692307693" width="39.38461538461539" height="39.38461538461539" rx="0" fill="hsl(299,64%,56%)"/><rect x="433.2307692307693" y="196.92307692307693" width="39.38461538461539" height="39.38461538461539" rx="6" fill="hsl(19,54%,76%)"/><rect x="472.61538461538464" y="196.92307692307693" width="39.38461538461539" height="39.38461538461539" rx="0" fill="hsl(299,64%,56%)"/><rect x="0" y="236.30769230769232" width="39.38461538461539" height="39.38461538461539" rx="6" fill="hsl(159,64%,66%)"/><rect x="39.38461538461539" y="236.30769230769232" width="39.38461538461539" height="39.38461538461539" rx="0" fill="hsl(159,64%,66%)"/><rect x="78.76923076923077" y="236.30769230769232" width="39.38461538461539" height="39.38461538461539" rx="0" fill="hsl(19,54%,76%)"/><rect x="118.15384615384616" y="236.30769230769232" width="39.38461538461539" height="39.38461538461539" rx="6" fill="hsl(299,64%,56%)"/><rect x="157.53846153846155" y="236.30769230769232" width="39.38461538461539" height="39.38461538461539" rx="6" fill="hsl(159,64%,66%)"/><rect x="196.92307692307693" y="236.30769230769232" width="39.38461538461539" height="39.38461538461539" rx="0" fill="hsl(299,64%,56%)"/><rect x="236.30769230769232" y="236.30769230769232" width="39.38461538461539" height="39.38461538461539" rx="0" fill="hsl(159,64%,66%)"/><rect x="275.69230769230774" y="236.30769230769232" width="39.38461538461539" height="39.38461538461539" rx="6" fill="hsl(159,64%,66%)"/><rect x="315.0769230769231" y="236.30769230769232" width="39.38461538461539" height="39.38461538461539" rx="0" fill="hsl(299,64%,56%)"/><rect x="354.46153846153845" y="236.30769230769232" width="39.38461538461539" height="39.38461538461539" rx="0" fill="hsl(299,64%,56%)"/><rect x="393.84615384615387" y="236.30769230769232" width="39.38461538461539" height="39.38461538461539" rx="0" fill="hsl(299,64%,56%)"/><rect x="433.2307692307693" y="236.30769230769232" width="39.38461538461539" height="39.38461538461539" rx="0" fill="hsl(159,64%,66%)"/><rect x="472.61538461538464" y="236.30769230769232" width="39.38461538461539" height="39.38461538461539" rx="0" fill="hsl(19,54%,76%)"/><rect x="0" y="275.69230769230774" width="39.38461538461539" height="39.38461538461539" rx="0" fill="hsl(159,64%,66%)"/><rect x="39.38461538461539" y="275.69230769230774" width="39.38461538461539" height="39.38461538461539" rx="6" fill="hsl(19,54%,76%)"/><rect x="78.76923076923077" y="275.69230769230774" width="39.38461538461539" height="39.38461538461539" rx="6" fill="hsl(159,64%,66%)"/><rect x="118.15384615384616" y="275.69230769230774" width="39.38461538461539" height="39.38461538461539" rx="0" fill="hsl(299,64%,56%)"/><rect x="157.53846153846155" y="275.69230769230774" width="39.38461538461539" height="39.38461538461539" rx="0" fill="hsl(159,64%,66%)"/><rect x="196.92307692307693" y="275.69230769230774" width="39.38461538461539" height="39.38461538461539" rx="0" fill="hsl(159,64%,66%)"/><rect x="236.30769230769232" y="275.69230769230774" width="39.38461538461539" height="39.38461538461539" rx="0" fill="hsl(299,64%,56%)"/><rect x="275.69230769230774" y="275.69230769230774" width="39.38461538461539" height="39.38461538461539" rx="0" fill="hsl(19,54%,76%)"/><rect x="315.0769230769231" y="275.69230769230774" width="39.38461538461539" height="39.38461538461539" rx="0" fill="hsl(299,64%,56%)"/><rect x="354.46153846153845" y="275.69230769230774" width="39.38461538461539" height="39.38461538461539" rx="0" fill="hsl(159,64%,66%)"/><rect x="393.84615384615387" y="275.69230769230774" width="39.38461538461539" height="39.38461538461539" rx="0" fill="hsl(19,54%,76%)"/><rect x="433.2307692307693" y="275.69230769230774" width="39.38461538461539" height="39.38461538461539" rx="0" fill="hsl(299,64%,56%)"/><rect x="472.61538461538464" y="275.69230769230774" width="39.38461538461539" height="39.38461538461539" rx="0" fill="hsl(19,54%,76%)"/><rect x="0" y="315.0769230769231" width="39.38461538461539" height="39.38461538461539" rx="0" fill="hsl(159,64%,66%)"/><rect x="39.38461538461539" y="315.0769230769231" width="39.38461538461539" height="39.38461538461539" rx="0" fill="hsl(299,64%,56%)"/><rect x="78.76923076923077" y="315.0769230769231" width="39.38461538461539" height="39.38461538461539" rx="0" fill="hsl(299,64%,56%)"/><rect x="118.15384615384616" y="315.0769230769231" width="39.38461538461539" height="39.38461538461539" rx="0" fill="hsl(159,64%,66%)"/><rect x="157.53846153846155" y="315.0769230769231" width="39.38461538461539" height="39.38461538461539" rx="0" fill="hsl(159,64%,66%)"/><rect x="196.92307692307693" y="315.0769230769231" width="39.38461538461539" height="39.38461538461539" rx="0" fill="hsl(299,64%,56%)"/><rect x="236.30769230769232" y="315.0769230769231" width="39.38461538461539" height="39.38461538461539" rx="0" fill="hsl(19,54%,76%)"/><rect x="275.69230769230774" y="315.0769230769231" width="39.38461538461539" height="39.38461538461539" rx="6" fill="hsl(19,54%,76%)"/><rect x="315.0769230769231" y="315.0769230769231" width="39.38461538461539" height="39.38461538461539" rx="0" fill="hsl(19,54%,76%)"/><rect x="354.46153846153845" y="315.0769230769231" width="39.38461538461539" height="39.38461538461539" rx="0" fill="hsl(299,64%,56%)"/><rect x="393.84615384615387" y="315.0769230769231" width="39.38461538461539" height="39.38461538461539" rx="0" fill="hsl(19,54%,76%)"/><rect x="433.2307692307693" y="315.0769230769231" width="39.38461538461539" height="39.38461538461539" rx="0" fill="hsl(299,64%,56%)"/><rect x="472.61538461538464" y="315.0769230769231" width="39.38461538461539" height="39.38461538461539" rx="0" fill="hsl(19,54%,76%)"/><rect x="0" y="354.46153846153845" width="39.38461538461539" height="39.38461538461539" rx="0" fill="hsl(159,64%,66%)"/><rect x="39.38461538461539" y="354.46153846153845" width="39.38461538461539" height="39.38461538461539" rx="0" fill="hsl(19,54%,76%)"/><rect x="78.76923076923077" y="354.46153846153845" width="39.38461538461539" height="39.38461538461539" rx="0" fill="hsl(159,64%,66%)"/><rect x="118.15384615384616" y="354.46153846153845" width="39.38461538461539" height="39.38461538461539" rx="0" fill="hsl(299,64%,56%)"/><rect x="157.53846153846155" y="354.46153846153845" width="39.38461538461539" height="39.38461538461539" rx="0" fill="hsl(159,64%,66%)"/><rect x="196.92307692307693" y="354.46153846153845" width="39.38461538461539" height="39.38461538461539" rx="0" fill="hsl(159,64%,66%)"/><rect x="236.30769230769232" y="354.46153846153845" width="39.38461538461539" height="39.38461538461539" rx="0" fill="hsl(19,54%,76%)"/><rect x="275.69230769230774" y="354.46153846153845" width="39.38461538461539" height="39.38461538461539" rx="6" fill="hsl(19,54%,76%)"/><rect x="315.0769230769231" y="354.46153846153845" width="39.38461538461539" height="39.38461538461539" rx="0" fill="hsl(159,64%,66%)"/><rect x="354.46153846153845" y="354.46153846153845" width="39.38461538461539" height="39.38461538461539" rx="0" fill="hsl(159,64%,66%)"/><rect x="393.84615384615387" y="354.46153846153845" width="39.38461538461539" height="39.38461538461539" rx="0" fill="hsl(159,64%,66%)"/><rect x="433.2307692307693" y="354.46153846153845" width="39.38461538461539" height="39.38461538461539" rx="0" fill="hsl(299,64%,56%)"/><rect x="472.61538461538464" y="354.46153846153845" width="39.38461538461539" height="39.38461538461539" rx="0" fill="hsl(299,64%,56%)"/><rect x="0" y="393.84615384615387" width="39.38461538461539" height="39.38461538461539" rx="0" fill="hsl(299,64%,56%)"/><rect x="39.38461538461539" y="393.84615384615387" width="39.38461538461539" height="39.38461538461539" rx="0" fill="hsl(159,64%,66%)"/><rect x="78.76923076923077" y="393.84615384615387" width="39.38461538461539" height="39.38461538461539" rx="0" fill="hsl(299,64%,56%)"/><rect x="118.15384615384616" y="393.84615384615387" width="39.38461538461539" height="39.38461538461539" rx="0" fill="hsl(159,64%,66%)"/><rect x="157.53846153846155" y="393.84615384615387" width="39.38461538461539" height="39.38461538461539" rx="0" fill="hsl(19,54%,76%)"/><rect x="196.92307692307693" y="393.84615384615387" width="39.38461538461539" height="39.38461538461539" rx="6" fill="hsl(19,54%,76%)"/><rect x="236.30769230769232" y="393.84615384615387" width="39.38461538461539" height="39.38461538461539" rx="0" fill="hsl(299,64%,56%)"/><rect x="275.69230769230774" y="393.84615384615387" width="39.38461538461539" height="39.38461538461539" rx="0" fill="hsl(299,64%,56%)"/><rect x="315.0769230769231" y="393.84615384615387" width="39.38461538461539" height="39.38461538461539" rx="0" fill="hsl(299,64%,56%)"/><rect x="354.46153846153845" y="393.84615384615387" width="39.38461538461539" height="39.38461538461539" rx="0" fill="hsl(19,54%,76%)"/><rect x="393.84615384615387" y="393.84615384615387" width="39.38461538461539" height="39.38461538461539" rx="0" fill="hsl(159,64%,66%)"/><rect x="433.2307692307693" y="393.84615384615387" width="39.38461538461539" height="39.38461538461539" rx="0" fill="hsl(159,64%,66%)"/><rect x="472.61538461538464" y="393.84615384615387" width="39.38461538461539" height="39.38461538461539" rx="0" fill="hsl(159,64%,66%)"/><rect x="0" y="433.2307692307693" width="39.38461538461539" height="39.38461538461539" rx="0" fill="hsl(299,64%,56%)"/><rect x="39.38461538461539" y="433.2307692307693" width="39.38461538461539" height="39.38461538461539" rx="0" fill="hsl(159,64%,66%)"/><rect x="78.76923076923077" y="433.2307692307693" width="39.38461538461539" height="39.38461538461539" rx="0" fill="hsl(19,54%,76%)"/><rect x="118.15384615384616" y="433.2307692307693" width="39.38461538461539" height="39.38461538461539" rx="0" fill="hsl(159,64%,66%)"/><rect x="157.53846153846155" y="433.2307692307693" width="39.38461538461539" height="39.38461538461539" rx="6" fill="hsl(19,54%,76%)"/><rect x="196.92307692307693" y="433.2307692307693" width="39.38461538461539" height="39.38461538461539" rx="6" fill="hsl(19,54%,76%)"/><rect x="236.30769230769232" y="433.2307692307693" width="39.38461538461539" height="39.38461538461539" rx="0" fill="hsl(159,64%,66%)"/><rect x="275.69230769230774" y="433.2307692307693" width="39.38461538461539" height="39.38461538461539" rx="0" fill="hsl(159,64%,66%)"/><rect x="315.0769230769231" y="433.2307692307693" width="39.38461538461539" height="39.38461538461539" rx="0" fill="hsl(19,54%,76%)"/><rect x="354.46153846153845" y="433.2307692307693" width="39.38461538461539" height="39.38461538461539" rx="0" fill="hsl(159,64%,66%)"/><rect x="393.84615384615387" y="433.2307692307693" width="39.38461538461539" height="39.38461538461539" rx="0" fill="hsl(19,54%,76%)"/><rect x="433.2307692307693" y="433.2307692307693" width="39.38461538461539" height="39.38461538461539" rx="6" fill="hsl(299,64%,56%)"/><rect x="472.61538461538464" y="433.2307692307693" width="39.38461538461539" height="39.38461538461539" rx="0" fill="hsl(299,64%,56%)"/><rect x="0" y="472.61538461538464" width="39.38461538461539" height="39.38461538461539" rx="0" fill="hsl(19,54%,76%)"/><rect x="39.38461538461539" y="472.61538461538464" width="39.38461538461539" height="39.38461538461539" rx="0" fill="hsl(159,64%,66%)"/><rect x="78.76923076923077" y="472.61538461538464" width="39.38461538461539" height="39.38461538461539" rx="0" fill="hsl(159,64%,66%)"/><rect x="118.15384615384616" y="472.61538461538464" width="39.38461538461539" height="39.38461538461539" rx="0" fill="hsl(19,54%,76%)"/><rect x="157.53846153846155" y="472.61538461538464" width="39.38461538461539" height="39.38461538461539" rx="0" fill="hsl(19,54%,76%)"/><rect x="196.92307692307693" y="472.61538461538464" width="39.38461538461539" height="39.38461538461539" rx="0" fill="hsl(299,64%,56%)"/><rect x="236.30769230769232" y="472.61538461538464" width="39.38461538461539" height="39.38461538461539" rx="0" fill="hsl(299,64%,56%)"/><rect x="275.69230769230774" y="472.61538461538464" width="39.38461538461539" height="39.38461538461539" rx="0" fill="hsl(159,64%,66%)"/><rect x="315.0769230769231" y="472.61538461538464" width="39.38461538461539" height="39.38461538461539" rx="0" fill="hsl(159,64%,66%)"/><rect x="354.46153846153845" y="472.61538461538464" width="39.38461538461539" height="39.38461538461539" rx="0" fill="hsl(159,64%,66%)"/><rect x="393.84615384615387" y="472.61538461538464" width="39.38461538461539" height="39.38461538461539" rx="0" fill="hsl(159,64%,66%)"/><rect x="433.2307692307693" y="472.61538461538464" width="39.38461538461539" height="39.38461538461539" rx="0" fill="hsl(299,64%,56%)"/><rect x="472.61538461538464" y="472.61538461538464" width="39.38461538461539" height="39.38461538461539" rx="6" fill="hsl(19,54%,76%)"/>
  </svg>