<svg xmlns="http://www.w3.org/2000/svg" width="512" height="512" viewBox="0 0 512 512">
  <defs>
    <filter id="gr"><feTurbulence type="fractalNoise" baseFrequency="0.075" numOctaves="1" result="n"/><feColorMatrix type="saturate" values="0.25"/></filter>
  </defs>
  <rect width="100%" height="100%" fill="white"/>
  <rect x="0" y="0" width="36.57142857142857" height="36.57142857142857" rx="0" fill="hsl(239,72%,45%)"/><rect x="36.57142857142857" y="0" width="36.57142857142857" height="36.57142857142857" rx="0" fill="hsl(319,62%,65%)"/><rect x="73.14285714285714" y="0" width="36.57142857142857" height="36.57142857142857" rx="0" fill="hsl(99,72%,55%)"/><rect x="109.71428571428571" y="0" width="36.57142857142857" height="36.57142857142857" rx="0" fill="hsl(99,72%,55%)"/><rect x="146.28571428571428" y="0" width="36.57142857142857" height="36.57142857142857" rx="0" fill="hsl(239,72%,45%)"/><rect x="182.85714285714283" y="0" width="36.57142857142857" height="36.57142857142857" rx="0" fill="hsl(99,72%,55%)"/><rect x="219.42857142857142" y="0" width="36.57142857142857" height="36.57142857142857" rx="0" fill="hsl(239,72%,45%)"/><rect x="256" y="0" width="36.57142857142857" height="36.57142857142857" rx="0" fill="hsl(239,72%,45%)"/><rect x="292.57142857142856" y="0" width="36.57142857142857" height="36.57142857142857" rx="0" fill="hsl(319,62%,65%)"/><rect x="329.1428571428571" y="0" width="36.57142857142857" height="36.57142857142857" rx="0" fill="hsl(319,62%,65%)"/><rect x="365.71428571428567" y="0" width="36.57142857142857" height="36.57142857142857" rx="0" fill="hsl(239,72%,45%)"/><rect x="402.2857142857143" y="0" width="36.57142857142857" height="36.57142857142857" rx="6" fill="hsl(99,72%,55%)"/><rect x="438.85714285714283" y="0" width="36.57142857142857" height="36.57142857142857" rx="0" fill="hsl(239,72%,45%)"/><rect x="475.4285714285714" y="0" width="36.57142857142857" height="36.57142857142857" rx="0" fill="hsl(99,72%,55%)"/><rect x="0" y="36.57142857142857" width="36.57142857142857" height="36.57142857142857" rx="0" fill="hsl(239,72%,45%)"/><rect x="36.57142857142857" y="36.57142857142857" width="36.57142857142857" height="36.57142857142857" rx="0" fill="hsl(99,72%,55%)"/><rect x="73.14285714285714" y="36.57142857142857" width="36.57142857142857" height="36.57142857142857" rx="0" fill="hsl(99,72%,55%)"/><rect x="109.71428571428571" y="36.57142857142857" width="36.57142857142857" height="36.57142857142857" rx="6" fill="hsl(239,72%,45%)"/><rect x="146.28571428571428" y="36.57142857142857" width="36.57142857142857" height="36.57142857142857" rx="0" fill="hsl(319,62%,65%)"/><rect x="182.85714285714283" y="36.57142857142857" width="36.57142857142857" height="36.57142857142857" rx="6" fill="hsl(239,72%,45%)"/><rect x="219.42857142857142" y="36.57142857142857" width="36.57142857142857" height="36.57142857142857" rx="0" fill="hsl(319,62%,65%)"/><rect x="256" y="36.57142857142857" width="36.57142857142857" height="36.57142857142857" rx="0" fill="hsl(319,62%,65%)"/><rect x="292.57142857142856" y="36.57142857142857" width="36.57142857142857" height="36.57142857142857" rx="6" fill="hsl(99,72%,55%)"/><rect x="329.1428571428571" y="36.57142857142857" width="36.57142857142857" height="36.57142857142857" rx="0" fill="hsl(99,72%,55%)"/><rect x="365.71428571428567" y="36.57142857142857" width="36.57142857142857" height="36.57142857142857" rx="0" fill="hsl(319,62%,65%)"/><rect x="402.2857142857143" y="36.57142857142857" width="36.57142857142857" height="36.57142857142857" rx="0" fill="hsl(319,62%,65%)"/><rect x="438.85714285714283" y="36.57142857142857" width="36.57142857142857" height="36.57142857142857" rx="0" fill="hsl(239,72%,45%)"/><rect x="475.4285714285714" y="36.57142857142857" width="36.57142857142857" height="36.57142857142857" rx="0" fill="hsl(99,72%,55%)"/><rect x="0" y="73.14285714285714" width="36.57142857142857" height="36.57142857142857" rx="0" fill="hsl(239,72%,45%)"/><rect x="36.57142857142857" y="73.14285714285714" width="36.57142857142857" height="36.57142857142857" rx="0" fill="hsl(239,72%,45%)"/><rect x="73.14285714285714" y="73.14285714285714" width="36.57142857142857" height="36.57142857142857" rx="0" fill="hsl(319,62%,65%)"/><rect x="109.71428571428571" y="73.14285714285714" width="36.57142857142857" height="36.57142857142857" rx="0" fill="hsl(99,72%,55%)"/><rect x="146.28571428571428" y="73.14285714285714" width="36.57142857142857" height="36.57142857142857" rx="0" fill="hsl(99,72%,55%)"/><rect x="182.85714285714283" y="73.14285714285714" width="36.57142857142857" height="36.57142857142857" rx="0" fill="hsl(319,62%,65%)"/><rect x="219.42857142857142" y="73.14285714285714" width="36.57142857142857" height="36.57142857142857" rx="0" fill="hsl(99,72%,55%)"/><rect x="256" y="73.14285714285714" width="36.57142857142857" height="36.57142857142857" rx="0" fill="hsl(319,62%,65%)"/><rect x="292.57142857142856" y="73.14285714285714" width="36.57142857142857" height="36.57142857142857" rx="6" fill="hsl(99,72%,55%)"/><rect x="329.1428571428571" y="73.14285714285714" width="36.57142857142857" height="36.57142857142857" rx="0" fill="hsl(319,62%,65%)"/><rect x="365.71428571428567" y="73.14285714285714" width="36.57142857142857" height="36.57142857142857" rx="0" fill="hsl(99,72%,55%)"/><rect x="402.2857142857143" y="73.14285714285714" width="36.57142857142857" height="36.57142857142857" rx="0" fill="hsl(99,72%,55%)"/><rect x="438.85714285714283" y="73.14285714285714" width="36.57142857142857" height="36.57142857142857" rx="0" fill="hsl(99,72%,55%)"/><rect x="475.4285714285714" y="73.14285714285714" width="36.57142857142857" height="36.57142857142857" rx="6" fill="hsl(99,72%,55%)"/><rect x="0" y="109.71428571428571" width="36.57142857142857" height="36.57142857142857" rx="0" fill="hsl(319,62%,65%)"/><rect x="36.57142857142857" y="109.71428571428571" width="36.57142857142857" height="36.57142857142857" rx="0" fill="hsl(319,62%,65%)"/><rect x="73.14285714285714" y="109.71428571428571" width="36.57142857142857" height="36.57142857142857" rx="0" fill="hsl(239,72%,45%)"/><rect x="109.71428571428571" y="109.71428571428571" width="36.57142857142857" height="36.57142857142857" rx="0" fill="hsl(319,62%,65%)"/><rect x="146.28571428571428" y="109.71428571428571" width="36.57142857142857" height="36.57142857142857" rx="0" fill="hsl(239,72%,45%)"/><rect x="182.85714285714283" y="109.71428571428571" width="36.57142857142857" height="36.57142857142857" rx="0" fill="hsl(319,62%,65%)"/><rect x="219.42857142857142" y="109.71428571428571" width="36.57142857142857" height="36.57142857142857" rx="0" fill="hsl(239,72%,45%)"/><rect x="256" y="109.71428571428571" width="36.57142857142857" height="36.57142857142857" rx="0" fill="hsl(239,72%,45%)"/><rect x="292.57142857142856" y="109.71428571428571" width="36.57142857142857" height="36.57142857142857" rx="0" fill="hsl(319,62%,65%)"/><rect x="329.1428571428571" y="109.71428571428571" width="36.57142857142857" height="36.57142857142857" rx="0" fill="hsl(319,62%,65%)"/><rect x="365.71428571428567" y="109.71428571428571" width="36.57142857142857" height="36.57142857142857" rx="0" fill="hsl(319,62%,65%)"/><rect x="402.2857142857143" y="109.71428571428571" width="36.57142857142857" height="36.57142857142857" rx="0" fill="hsl(99,72%,55%)"/><rect x="438.85714285714283" y="109.71428571428571" width="36.57142857142857" height="36.57142857142857" rx="0" fill="hsl(99,72%,55%)"/><rect x="475.4285714285714" y="109.71428571428571" width="36.57142857142857" height="36.57142857142857" rx="0" fill="hsl(239,72%,45%)"/><rect x="0" y="146.28571428571428" width="36.57142857142857" height="36.57142857142857" rx="0" fill="hsl(319,62%,65%)"/><rect x="36.57142857142857" y="146.28571428571428" width="36.57142857142857" height="36.57142857142857" rx="0" fill="hsl(239,72%,45%)"/><rect x="73.14285714285714" y="146.28571428571428" width="36.57142857142857" height="36.57142857142857" rx="0" fill="hsl(319,62%,65%)"/><rect x="109.71428571428571" y="146.28571428571428" width="36.57142857142857" height="36.57142857142857" rx="0" fill="hsl(99,72%,55%)"/><rect x="146.28571428571428" y="146.28571428571428" width="36.57142857142857" height="36.57142857142857" rx="0" fill="hsl(239,72%,45%)"/><rect x="182.85714285714283" y="146.28571428571428" width="36.57142857142857" height="36.57142857142857" rx="0" fill="hsl(239,72%,45%)"/><rect x="219.42857142857142" y="146.28571428571428" width="36.57142857142857" height="36.57142857142857" rx="0" fill="hsl(239,72%,45%)"/><rect x="256" y="146.28571428571428" width="36.57142857142857" height="36.57142857142857" rx="6" fill="hsl(319,62%,65%)"/><rect x="292.57142857142856" y="146.28571428571428" width="36.57142857142857" height="36.57142857142857" rx="0" fill="hsl(239,72%,45%)"/><rect x="329.1428571428571" y="146.28571428571428" width="36.57142857142857" height="36.57142857142857" rx="0" fill="hsl(239,72%,45%)"/><rect x="365.71428571428567" y="146.28571428571428" width="36.57142857142857" height="36.57142857142857" rx="0" fill="hsl(319,62%,65%)"/><rect x="402.2857142857143" y="146.28571428571428" width="36.57142857142857" height="36.57142857142857" rx="0" fill="hsl(99,72%,55%)"/><rect x="438.85714285714283" y="146.28571428571428" width="36.57142857142857" height="36.57142857142857" rx="6" fill="hsl(99,72%,55%)"/><rect x="475.4285714285714" y="146.28571428571428" width="36.57142857142857" height="36.57142857142857" rx="0" fill="hsl(319,62%,65%)"/><rect x="0" y="182.85714285714283" width="36.57142857142857" height="36.57142857142857" rx="0" fill="hsl(99,72%,55%)"/><rect x="36.57142857142857" y="182.85714285714283" width="36.57142857142857" height="36.57142857142857" rx="0" fill="hsl(99,72%,55%)"/><rect x="73.14285714285714" y="182.85714285714283" width="36.57142857142857" height="36.57142857142857" rx="0" fill="hsl(239,72%,45%)"/><rect x="109.71428571428571" y="182.85714285714283" width="36.57142857142857" height="36.57142857142857" rx="0" fill="hsl(239,72%,45%)"/><rect x="146.28571428571428" y="182.85714285714283" width="36.57142857142857" height="36.57142857142857" rx="0" fill="hsl(319,62%,65%)"/><rect x="182.85714285714283" y="182.85714285714283" width="36.57142857142857" height="36.57142857142857" rx="0" fill="hsl(239,72%,45%)"/><rect x="219.42857142857142" y="182.85714285714283" width="36.57142857142857" height="36.57142857142857" rx="0" fill="hsl(239,72%,45%)"/><rect x="256" y="182.85714285714283" width="36.57142857142857" height="36.57142857142857" rx="0" fill="hsl(319,62%,65%)"/><rect x="292.57142857142856" y="182.85714285714283" width="36.57142857142857" height="36.57142857142857" rx="0" fill="hsl(319,62%,65%)"/><rect x="329.1428571428571" y="182.85714285714283" width="36.57142857142857" height="36.57142857142857" rx="0" fill="hsl(239,72%,45%)"/><rect x="365.71428571428567" y="182.85714285714283" width="36.57142857142857" height="36.57142857142857" rx="0" fill="hsl(239,72%,45%)"/><rect x="402.2857142857143" y="182.85714285714283" width="36.57142857142857" height="36.57142857142857" rx="0" fill="hsl(319,62%,65%)"/><rect x="438.85714285714283" y="182.85714285714283" width="36.57142857142857" height="36.57142857142857" rx="6" fill="hsl(239,72%,45%)"/><rect x="475.4285714285714" y="182.85714285714283" width="36.57142857142857" height="36.57142857142857" rx="0" fill="hsl(319,62%,65%)"/><rect x="0" y="219.42857142857142" width="36.57142857142857" height="36.57142857142857" rx="0" fill="hsl(319,62%,65%)"/><rect x="36.57142857142857" y="219.42857142857142" width="36.57142857142857" height="36.57142857142857" rx="0" fill="hsl(239,72%,45%)"/><rect x="73.14285714285714" y="219.42857142857142" width="36.57142857142857" height="36.57142857142857" rx="0" fill="hsl(319,62%,65%)"/><rect x="109.71428571428571" y="219.42857142857142" width="36.57142857142857" height="36.57142857142857" rx="0" fill="hsl(99,72%,55%)"/><rect x="146.28571428571428" y="219.42857142857142" width="36.57142857142857" height="36.57142857142857" rx="0" fill="hsl(319,62%,65%)"/><rect x="182.85714285714283" y="219.42857142857142" width="36.57142857142857" height="36.57142857142857" rx="0" fill="hsl(239,72%,45%)"/><rect x="219.42857142857142" y="219.42857142857142" width="36.57142857142857" height="36.57142857142857" rx="0" fill="hsl(319,62%,65%)"/><rect x="256" y="219.42857142857142" width="36.57142857142857" height="36.57142857142857" rx="0" fill="hsl(319,62%,65%)"/><rect x="292.57142857142856" y="219.42857142857142" width="36.57142857142857" height="36.57142857142857" rx="0" fill="hsl(99,72%,55%)"/><rect x="329.1428571428571" y="219.42857142857142" width="36.57142857142857" height="36.57142857142857" rx="0" fill="hsl(319,62%,65%)"/><rect x="365.71428571428567" y="219.42857142857142" width="36.57142857142857" height="36.57142857142857" rx="0" fill="hsl(99,72%,55%)"/><rect x="402.2857142857143" y="219.42857142857142" width="36.57142857142857" height="36.57142857142857" rx="0" fill="hsl(99,72%,55%)"/><rect x="438.85714285714283" y="219.42857142857142" width="36.57142857142857" height="36.57142857142857" rx="0" fill="hsl(319,62%,65%)"/><rect x="475.4285714285714" y="219.42857142857142" width="36.57142857142857" height="36.57142857142857" rx="0" fill="hsl(239,72%,45%)"/><rect x="0" y="256" width="36.57142857142857" height="36.57142857142857" rx="6" fill="hsl(319,62%,65%)"/><rect x="36.57142857142857" y="256" width="36.57142857142857" height="36.57142857142857" rx="0" fill="hsl(319,62%,65%)"/><rect x="73.14285714285714" y="256" width="36.57142857142857" height="36.57142857142857" rx="0" fill="hsl(239,72%,45%)"/><rect x="109.71428571428571" y="256" width="36.57142857142857" height="36.57142857142857" rx="0" fill="hsl(239,72%,45%)"/><rect x="146.28571428571428" y="256" width="36.57142857142857" height="36.57142857142857" rx="0" fill="hsl(319,62%,65%)"/><rect x="182.85714285714283" y="256" width="36.57142857142857" height="36.57142857142857" rx="0" fill="hsl(239,72%,45%)"/><rect x="219.42857142857142" y="256" width="36.57142857142857" height="36.57142857142857" rx="0" fill="hsl(99,72%,55%)"/><rect x="256" y="256" width="36.57142857142857" height="36.57142857142857" rx="0" fill="hsl(319,62%,65%)"/><rect x="292.57142857142856" y="256" width="36.57142857142857" height="36.57142857142857" rx="0" fill="hsl(99,72%,55%)"/><rect x="329.1428571428571" y="256" width="36.57142857142857" height="36.57142857142857" rx="0" fill="hsl(99,72%,55%)"/><rect x="365.71428571428567" y="256" width="36.57142857142857" height="36.57142857142857" rx="0" fill="hsl(99,72%,55%)"/><rect x="402.2857142857143" y="256" width="36.57142857142857" height="36.57142857142857" rx="0" fill="hsl(319,62%,65%)"/><rect x="438.85714285714283" y="256" width="36.57142857142857" height="36.57142857142857" rx="6" fill="hsl(319,62%,65%)"/><rect x="475.4285714285714" y="256" width="36.57142857142857" height="36.57142857142857" rx="0" fill="hsl(319,62%,65%)"/><rect x="0" y="292.57142857142856" width="36.57142857142857" height="36.57142857142857" rx="0" fill="hsl(99,72%,55%)"/><rect x="36.57142857142857" y="292.57142857142856" width="36.57142857142857" height="36.57142857142857" rx="0" fill="hsl(99,72%,55%)"/><rect x="73.14285714285714" y="292.57142857142856" width="36.57142857142857" height="36.57142857142857" rx="0" fill="hsl(99,72%,55%)"/><rect x="109.71428571428571" y="292.57142857142856" width="36.57142857142857" height="36.57142857142857" rx="0" fill="hsl(99,72%,55%)"/><rect x="146.28571428571428" y="292.57142857142856" width="36.57142857142857" height="36.57142857142857" rx="0" fill="hsl(99,72%,55%)"/><rect x="182.85714285714283" y="292.57142857142856" width="36.57142857142857" height="36.57142857142857" rx="0" fill="hsl(99,72%,55%)"/><rect x="219.42857142857142" y="292.57142857142856" width="36.57142857142857" height="36.57142857142857" rx="6" fill="hsl(319,62%,65%)"/><rect x="256" y="292.57142857142856" width="36.57142857142857" height="36.57142857142857" rx="0" fill="hsl(319,62%,65%)"/><rect x="292.57142857142856" y="292.57142857142856" width="36.57142857142857" height="36.57142857142857" rx="0" fill="hsl(319,62%,65%)"/><rect x="329.1428571428571" y="292.57142857142856" width="36.57142857142857" height="36.57142857142857" rx="0" fill="hsl(99,72%,55%)"/><rect x="365.71428571428567" y="292.57142857142856" width="36.57142857142857" height="36.57142857142857" rx="0" fill="hsl(239,72%,45%)"/><rect x="402.2857142857143" y="292.57142857142856" width="36.57142857142857" height="36.57142857142857" rx="0" fill="hsl(99,72%,55%)"/><rect x="438.85714285714283" y="292.57142857142856" width="36.57142857142857" height="36.57142857142857" rx="0" fill="hsl(239,72%,45%)"/><rect x="475.4285714285714" y="292.57142857142856" width="36.57142857142857" height="36.57142857142857" rx="0" fill="hsl(99,72%,55%)"/><rect x="0" y="329.1428571428571" width="36.57142857142857" height="36.57142857142857" rx="0" fill="hsl(99,72%,55%)"/><rect x="36.57142857142857" y="329.1428571428571" width="36.57142857142857" height="36.57142857142857" rx="6" fill="hsl(99,72%,55%)"/><rect x="73.14285714285714" y="329.1428571428571" width="36.57142857142857" height="36.57142857142857" rx="6" fill="hsl(99,72%,55%)"/><rect x="109.71428571428571" y="329.1428571428571" width="36.57142857142857" height="36.57142857142857" rx="0" fill="hsl(99,72%,55%)"/><rect x="146.28571428571428" y="329.1428571428571" width="36.57142857142857" height="36.57142857142857" rx="0" fill="hsl(319,62%,65%)"/><rect x="182.85714285714283" y="329.1428571428571" width="36.57142857142857" height="36.57142857142857" rx="0" fill="hsl(99,72%,55%)"/><rect x="219.42857142857142" y="329.1428571428571" width="36.57142857142857" height="36.57142857142857" rx="0" fill="hsl(99,72%,55%)"/><rect x="256" y="329.1428571428571" width="36.57142857142857" height="36.57142857142857" rx="0" fill="hsl(319,62%,65%)"/><rect x="292.57142857142856" y="329.1428571428571" width="36.57142857142857" height="36.57142857142857" rx="0" fill="hsl(99,72%,55%)"/><rect x="329.1428571428571" y="329.1428571428571" width="36.57142857142857" height="36.57142857142857" rx="0" fill="hsl(319,62%,65%)"/><rect x="365.71428571428567" y="329.1428571428571" width="36.57142857142857" height="36.57142857142857" rx="0" fill="hsl(99,72%,55%)"/><rect x="402.2857142857143" y="329.1428571428571" width="36.57142857142857" height="36.57142857142857" rx="0" fill="hsl(239,72%,45%)"/><rect x="438.85714285714283" y="329.1428571428571" width="36.57142857142857" height="36.57142857142857" rx="0" fill="hsl(239,72%,45%)"/><rect x="475.4285714285714" y="329.1428571428571" width="36.57142857142857" height="36.57142857142857" rx="0" fill="hsl(239,72%,45%)"/><rect x="0" y="365.71428571428567" width="36.57142857142857" height="36.57142857142857" rx="0" fill="hsl(239,72%,45%)"/><rect x="36.57142857142857" y="365.71428571428567" width="36.57142857142857" height="36.57142857142857" rx="6" fill="hsl(239,72%,45%)"/><rect x="73.14285714285714" y="365.71428571428567" width="36.57142857142857" height="36.57142857142857" rx="0" fill="hsl(99,72%,55%)"/><rect x="109.71428571428571" y="365.71428571428567" width="36.57142857142857" height="36.57142857142857" rx="0" fill="hsl(319,62%,65%)"/><rect x="146.28571428571428" y="365.71428571428567" width="36.57142857142857" height="36.57142857142857" rx="0" fill="hsl(239,72%,45%)"/><rect x="182.85714285714283" y="365.71428571428567" width="36.57142857142857" height="36.57142857142857" rx="0" fill="hsl(239,72%,45%)"/><rect x="219.42857142857142" y="365.71428571428567" width="36.57142857142857" height="36.57142857142857" rx="0" fill="hsl(99,72%,55%)"/><rect x="256" y="365.71428571428567" width="36.57142857142857" height="36.57142857142857" rx="6" fill="hsl(239,72%,45%)"/><rect x="292.57142857142856" y="365.71428571428567" width="36.57142857142857" height="36.57142857142857" rx="0" fill="hsl(239,72%,45%)"/><rect x="329.1428571428571" y="365.71428571428567" width="36.57142857142857" height="36.57142857142857" rx="0" fill="hsl(319,62%,65%)"/><rect x="365.71428571428567" y="365.71428571428567" width="36.57142857142857" height="36.57142857142857" rx="0" fill="hsl(99,72%,55%)"/><rect x="402.2857142857143" y="365.71428571428567" width="36.57142857142857" height="36.57142857142857" rx="0" fill="hsl(319,62%,65%)"/><rect x="438.85714285714283" y="365.71428571428567" width="36.57142857142857" height="36.57142857142857" rx="0" fill="hsl(99,72%,55%)"/><rect x="475.4285714285714" y="365.71428571428567" width="36.57142857142857" height="36.57142857142857" rx="0" fill="hsl(239,72%,45%)"/><rect x="0" y="402.2857142857143" width="36.57142857142857" height="36.57142857142857" rx="0" fill="hsl(239,72%,45%)"/><rect x="36.57142857142857" y="402.2857142857143" width="36.57142857142857" height="36.57142857142857" rx="0" fill="hsl(319,62%,65%)"/><rect x="73.14285714285714" y="402.2857142857143" width="36.57142857142857" height="36.57142857142857" rx="0" fill="hsl(239,72%,45%)"/><rect x="109.71428571428571" y="402.2857142857143" width="36.57142857142857" height="36.57142857142857" rx="0" fill="hsl(239,72%,45%)"/><rect x="146.28571428571428" y="402.2857142857143" width="36.57142857142857" height="36.57142857142857" rx="0" fill="hsl(319,62%,65%)"/><rect x="182.85714285714283" y="402.2857142857143" width="36.57142857142857" height="36.57142857142857" rx="0" fill="hsl(319,62%,65%)"/><rect x="219.42857142857142" y="402.2857142857143" width="36.57142857142857" height="36.57142857142857" rx="0" fill="hsl(319,62%,65%)"/><rect x="256" y="402.2857142857143" width="36.57142857142857" height="36.57142857142857" rx="6" fill="hsl(239,72%,45%)"/><rect x="292.57142857142856" y="402.2857142857143" width="36.57142857142857" height="36.57142857142857" rx="0" fill="hsl(239,72%,45%)"/><rect x="329.1428571428571" y="402.2857142857143" width="36.57142857142857" height="36.57142857142857" rx="0" fill="hsl(319,62%,65%)"/><rect x="365.71428571428567" y="402.2857142857143" width="36.57142857142857" height="36.57142857142857" rx="0" fill="hsl(239,72%,45%)"/><rect x="402.2857142857143" y="402.2857142857143" width="36.57142857142857" height="36.57142857142857" rx="0" fill="hsl(319,62%,65%)"/><rect x="438.85714285714283" y="402.2857142857143" width="36.57142857142857" height="36.57142857142857" rx="0" fill="hsl(99,72%,55%)"/><rect x="475.4285714285714" y="402.2857142857143" width="36.57142857142857" height="36.57142857142857" rx="0" fill="hsl(99,72%,55%)"/><rect x="0" y="438.85714285714283" width="36.57142857142857" height="36.57142857142857" rx="0" fill="hsl(239,72%,45%)"/><rect x="36.57142857142857" y="438.85714285714283" width="36.57142857142857" height="36.57142857142857" rx="0" fill="hsl(319,62%,65%)"/><rect x="73.14285714285714" y="438.85714285714283" width="36.57142857142857" height="36.57142857142857" rx="0" fill="hsl(99,72%,55%)"/><rect x="109.71428571428571" y="438.85714285714283" width="36.57142857142857" height="36.57142857142857" rx="0" fill="hsl(99,72%,55%)"/><rect x="146.28571428571428" y="438.85714285714283" width="36.57142857142857" height="36.57142857142857" rx="6" fill="hsl(99,72%,55%)"/><rect x="182.85714285714283" y="438.85714285714283" width="36.57142857142857" height="36.57142857142857" rx="0" fill="hsl(99,72%,55%)"/><rect x="219.42857142857142" y="438.85714285714283" width="36.57142857142857" height="36.57142857142857" rx="0" fill="hsl(319,62%,65%)"/><rect x="256" y="438.85714285714283" width="36.57142857142857" height="36.57142857142857" rx="0" fill="hsl(319,62%,65%)"/><rect x="292.57142857142856" y="438.85714285714283" width="36.57142857142857" height="36.57142857142857" rx="0" fill="hsl(239,72%,45%)"/><rect x="329.1428571428571" y="438.85714285714283" width="36.57142857142857" height="36.57142857142857" rx="0" fill="hsl(319,62%,65%)"/><rect x="365.71428571428567" y="438.85714285714283" width="36.57142857142857" height="36.57142857142857" rx="6" fill="hsl(99,72%,55%)"/><rect x="402.2857142857143" y="438.85714285714283" width="36.57142857142857" height="36.57142857142857" rx="0" fill="hsl(239,72%,45%)"/><rect x="438.85714285714283" y="438.85714285714283" width="36.57142857142857" height="36.57142857142857" rx="0" fill="hsl(239,72%,45%)"/><rect x="475.4285714285714" y="438.85714285714283" width="36.57142857142857" height="36.57142857142857" rx="0" fill="hsl(319,62%,65%)"/><rect x="0" y="475.4285714285714" width="36.57142857142857" height="36.57142857142857" rx="0" fill="hsl(99,72%,55%)"/><rect x="36.57142857142857" y="475.4285714285714" width="36.57142857142857" height="36.57142857142857" rx="0" fill="hsl(319,62%,65%)"/><rect x="73.14285714285714" y="475.4285714285714" width="36.57142857142857" height="36.57142857142857" rx="0" fill="hsl(319,62%,65%)"/><rect x="109.71428571428571" y="475.4285714285714" width="36.57142857142857" height="36.57142857142857" rx="0" fill="hsl(319,62%,65%)"/><rect x="146.28571428571428" y="475.4285714285714" width="36.57142857142857" height="36.57142857142857" rx="0" fill="hsl(99,72%,55%)"/><rect x="182.85714285714283" y="475.4285714285714" width="36.57142857142857" height="36.57142857142857" rx="0" fill="hsl(99,72%,55%)"/><rect x="219.42857142857142" y="475.4285714285714" width="36.57142857142857" height="36.57142857142857" rx="0" fill="hsl(99,72%,55%)"/><rect x="256" y="475.4285714285714" width="36.57142857142857" height="36.57142857142857" rx="0" fill="hsl(319,62%,65%)"/><rect x="292.57142857142856" y="475.4285714285714" width="36.57142857142857" height="36.57142857142857" rx="0" fill="hsl(99,72%,55%)"/><rect x="329.1428571428571" y="475.4285714285714" width="36.57142857142857" height="36.57142857142857" rx="0" fill="hsl(239,72%,45%)"/><rect x="365.71428571428567" y="475.4285714285714" width="36.57142857142857" height="36.57142857142857" rx="0" fill="hsl(99,72%,55%)"/><rect x="402.2857142857143" y="475.4285714285714" width="36.57142857142857" height="36.57142857142857" rx="0" fill="hsl(99,72%,55%)"/><rect x="438.85714285714283" y="475.4285714285714" width="36.57142857142857" height="36.57142857142857" rx="6" fill="hsl(239,72%,45%)"/><rect x="475.4285714285714" y="475.4285714285714" width="36.57142857142857" height="36.57142857142857" rx="0" fill="hsl(99,72%,55%)"/>
  </svg>