<svg xmlns="http://www.w3.org/2000/svg" width="512" height="512" viewBox="0 0 512 512">
  <defs>
    <filter id="gr"><feTurbulence type="fractalNoise" baseFrequency="0.005" numOctaves="1" result="n"/><feColorMatrix type="saturate" values="0.25"/></filter>
  </defs>
  <rect width="100%" height="100%" fill="white"/>
  <rect x="0" y="0" width="30.11764705882353" height="30.11764705882353" rx="6" fill="hsl(107,48%,64%)"/><rect x="30.11764705882353" y="0" width="30.11764705882353" height="30.11764705882353" rx="0" fill="hsl(27,58%,44%)"/><rect x="60.23529411764706" y="0" width="30.11764705882353" height="30.11764705882353" rx="0" fill="hsl(27,58%,44%)"/><rect x="90.35294117647058" y="0" width="30.11764705882353" height="30.11764705882353" rx="0" fill="hsl(27,58%,44%)"/><rect x="120.47058823529412" y="0" width="30.11764705882353" height="30.11764705882353" rx="0" fill="hsl(247,58%,54%)"/><rect x="150.58823529411765" y="0" width="30.11764705882353" height="30.11764705882353" rx="0" fill="hsl(27,58%,44%)"/><rect x="180.70588235294116" y="0" width="30.11764705882353" height="30.11764705882353" rx="0" fill="hsl(27,58%,44%)"/><rect x="210.8235294117647" y="0" width="30.11764705882353" height="30.11764705882353" rx="0" fill="hsl(107,48%,64%)"/><rect x="240.94117647058823" y="0" width="30.11764705882353" height="30.11764705882353" rx="0" fill="hsl(27,58%,44%)"/><rect x="271.05882352941177" y="0" width="30.11764705882353" height="30.11764705882353" rx="0" fill="hsl(247,58%,54%)"/><rect x="301.1764705882353" y="0" width="30.11764705882353" height="30.11764705882353" rx="6" fill="hsl(27,58%,44%)"/><rect x="331.29411764705884" y="0" width="30.11764705882353" height="30.11764705882353" rx="0" fill="hsl(247,58%,54%)"/><rect x="361.4117647058823" y="0" width="30.11764705882353" height="30.11764705882353" rx="0" fill="hsl(27,58%,44%)"/><rect x="391.52941176470586" y="0" width="30.11764705882353" height="30.11764705882353" rx="0" fill="hsl(27,58%,44%)"/><rect x="421.6470588235294" y="0" width="30.11764705882353" height="30.11764705882353" rx="0" fill="hsl(27,58%,44%)"/><rect x="451.7647058823529" y="0" width="30.11764705882353" height="30.11764705882353" rx="0" fill="hsl(107,48%,64%)"/><rect x="481.88235294117646" y="0" width="30.11764705882353" height="30.11764705882353" rx="0" fill="hsl(247,58%,54%)"/><rect x="0" y="30.11764705882353" width="30.11764705882353" height="30.11764705882353" rx="0" fill="hsl(107,48%,64%)"/><rect x="30.11764705882353" y="30.11764705882353" width="30.11764705882353" height="30.11764705882353" rx="0" fill="hsl(27,58%,44%)"/><rect x="60.23529411764706" y="30.11764705882353" width="30.11764705882353" height="30.11764705882353" rx="0" fill="hsl(247,58%,54%)"/><rect x="90.35294117647058" y="30.11764705882353" width="30.11764705882353" height="30.11764705882353" rx="0" fill="hsl(107,48%,64%)"/><rect x="120.47058823529412" y="30.11764705882353" width="30.11764705882353" height="30.11764705882353" rx="0" fill="hsl(247,58%,54%)"/><rect x="150.58823529411765" y="30.11764705882353" width="30.11764705882353" height="30.11764705882353" rx="6" fill="hsl(27,58%,44%)"/><rect x="180.70588235294116" y="30.11764705882353" width="30.11764705882353" height="30.11764705882353" rx="0" fill="hsl(107,48%,64%)"/><rect x="210.8235294117647" y="30.11764705882353" width="30.11764705882353" height="30.11764705882353" rx="0" fill="hsl(247,58%,54%)"/><rect x="240.94117647058823" y="30.11764705882353" width="30.11764705882353" height="30.11764705882353" rx="0" fill="hsl(247,58%,54%)"/><rect x="271.05882352941177" y="30.11764705882353" width="30.11764705882353" height="30.11764705882353" rx="0" fill="hsl(247,58%,54%)"/><rect x="301.1764705882353" y="30.11764705882353" width="30.11764705882353" height="30.11764705882353" rx="0" fill="hsl(247,58%,54%)"/><rect x="331.29411764705884" y="30.11764705882353" width="30.11764705882353" height="30.11764705882353" rx="0" fill="hsl(247,58%,54%)"/><rect x="361.4117647058823" y="30.11764705882353" width="30.11764705882353" height="30.11764705882353" rx="0" fill="hsl(107,48%,64%)"/><rect x="391.52941176470586" y="30.11764705882353" width="30.11764705882353" height="30.11764705882353" rx="0" fill="hsl(27,58%,44%)"/><rect x="421.6470588235294" y="30.11764705882353" width="30.11764705882353" height="30.11764705882353" rx="0" fill="hsl(107,48%,64%)"/><rect x="451.7647058823529" y="30.11764705882353" width="30.11764705882353" height="30.11764705882353" rx="0" fill="hsl(27,58%,44%)"/><rect x="481.88235294117646" y="30.11764705882353" width="30.11764705882353" height="30.11764705882353" rx="0" fill="hsl(107,48%,64%)"/><rect x="0" y="60.23529411764706" width="30.11764705882353" height="30.11764705882353" rx="0" fill="hsl(247,58%,54%)"/><rect x="30.11764705882353" y="60.23529411764706" width="30.11764705882353" height="30.11764705882353" rx="0" fill="hsl(247,58%,54%)"/><rect x="60.23529411764706" y="60.23529411764706" width="30.11764705882353" height="30.11764705882353" rx="0" fill="hsl(27,58%,44%)"/><rect x="90.35294117647058" y="60.23529411764706" width="30.11764705882353" height="30.11764705882353" rx="0" fill="hsl(107,48%,64%)"/><rect x="120.47058823529412" y="60.23529411764706" width="30.11764705882353" height="30.11764705882353" rx="0" fill="hsl(247,58%,54%)"/><rect x="150.58823529411765" y="60.23529411764706" width="30.11764705882353" height="30.11764705882353" rx="6" fill="hsl(247,58%,54%)"/><rect x="180.70588235294116" y="60.23529411764706" width="30.11764705882353" height="30.11764705882353" rx="0" fill="hsl(107,48%,64%)"/><rect x="210.8235294117647" y="60.23529411764706" width="30.11764705882353" height="30.11764705882353" rx="0" fill="hsl(107,48%,64%)"/><rect x="240.94117647058823" y="60.23529411764706" width="30.11764705882353" height="30.11764705882353" rx="0" fill="hsl(107,48%,64%)"/><rect x="271.05882352941177" y="60.23529411764706" width="30.11764705882353" height="30.11764705882353" rx="0" fill="hsl(247,58%,54%)"/><rect x="301.1764705882353" y="60.23529411764706" width="30.11764705882353" height="30.11764705882353" rx="0" fill="hsl(27,58%,44%)"/><rect x="331.29411764705884" y="60.23529411764706" width="30.11764705882353" height="30.11764705882353" rx="6" fill="hsl(107,48%,64%)"/><rect x="361.4117647058823" y="60.23529411764706" width="30.11764705882353" height="30.11764705882353" rx="0" fill="hsl(107,48%,64%)"/><rect x="391.52941176470586" y="60.23529411764706" width="30.11764705882353" height="30.11764705882353" rx="0" fill="hsl(27,58%,44%)"/><rect x="421.6470588235294" y="60.23529411764706" width="30.11764705882353" height="30.11764705882353" rx="0" fill="hsl(27,58%,44%)"/><rect x="451.7647058823529" y="60.23529411764706" width="30.11764705882353" height="30.11764705882353" rx="0" fill="hsl(107,48%,64%)"/><rect x="481.88235294117646" y="60.23529411764706" width="30.11764705882353" height="30.11764705882353" rx="6" fill="hsl(107,48%,64%)"/><rect x="0" y="90.35294117647058" width="30.11764705882353" height="30.11764705882353" rx="0" fill="hsl(27,58%,44%)"/><rect x="30.11764705882353" y="90.35294117647058" width="30.11764705882353" height="30.11764705882353" rx="0" fill="hsl(247,58%,54%)"/><rect x="60.23529411764706" y="90.35294117647058" width="30.11764705882353" height="30.11764705882353" rx="0" fill="hsl(27,58%,44%)"/><rect x="90.35294117647058" y="90.35294117647058" width="30.11764705882353" height="30.11764705882353" rx="0" fill="hsl(27,58%,44%)"/><rect x="120.47058823529412" y="90.35294117647058" width="30.11764705882353" height="30.11764705882353" rx="0" fill="hsl(27,58%,44%)"/><rect x="150.58823529411765" y="90.35294117647058" width="30.11764705882353" height="30.11764705882353" rx="0" fill="hsl(107,48%,64%)"/><rect x="180.70588235294116" y="90.35294117647058" width="30.11764705882353" height="30.11764705882353" rx="0" fill="hsl(27,58%,44%)"/><rect x="210.8235294117647" y="90.35294117647058" width="30.11764705882353" height="30.11764705882353" rx="6" fill="hsl(27,58%,44%)"/><rect x="240.94117647058823" y="90.35294117647058" width="30.11764705882353" height="30.11764705882353" rx="0" fill="hsl(27,58%,44%)"/><rect x="271.05882352941177" y="90.35294117647058" width="30.11764705882353" height="30.11764705882353" rx="0" fill="hsl(107,48%,64%)"/><rect x="301.1764705882353" y="90.35294117647058" width="30.11764705882353" height="30.11764705882353" rx="0" fill="hsl(107,48%,64%)"/><rect x="331.29411764705884" y="90.35294117647058" width="30.11764705882353" height="30.11764705882353" rx="0" fill="hsl(27,58%,44%)"/><rect x="361.4117647058823" y="90.35294117647058" width="30.11764705882353" height="30.11764705882353" rx="0" fill="hsl(107,48%,64%)"/><rect x="391.52941176470586" y="90.35294117647058" width="30.11764705882353" height="30.11764705882353" rx="0" fill="hsl(27,58%,44%)"/><rect x="421.6470588235294" y="90.35294117647058" width="30.11764705882353" height="30.11764705882353" rx="0" fill="hsl(107,48%,64%)"/><rect x="451.7647058823529" y="90.35294117647058" width="30.11764705882353" height="30.11764705882353" rx="0" fill="hsl(27,58%,44%)"/><rect x="481.88235294117646" y="90.35294117647058" width="30.11764705882353" height="30.11764705882353" rx="0" fill="hsl(247,58%,54%)"/><rect x="0" y="120.47058823529412" width="30.11764705882353" height="30.11764705882353" rx="0" fill="hsl(247,58%,54%)"/><rect x="30.11764705882353" y="120.47058823529412" width="30.11764705882353" height="30.11764705882353" rx="0" fill="hsl(107,48%,64%)"/><rect x="60.23529411764706" y="120.47058823529412" width="30.11764705882353" height="30.11764705882353" rx="0" fill="hsl(107,48%,64%)"/><rect x="90.35294117647058" y="120.47058823529412" width="30.11764705882353" height="30.11764705882353" rx="0" fill="hsl(247,58%,54%)"/><rect x="120.47058823529412" y="120.47058823529412" width="30.11764705882353" height="30.11764705882353" rx="0" fill="hsl(27,58%,44%)"/><rect x="150.58823529411765" y="120.47058823529412" width="30.11764705882353" height="30.11764705882353" rx="6" fill="hsl(107,48%,64%)"/><rect x="180.70588235294116" y="120.47058823529412" width="30.11764705882353" height="30.11764705882353" rx="0" fill="hsl(247,58%,54%)"/><rect x="210.8235294117647" y="120.47058823529412" width="30.11764705882353" height="30.11764705882353" rx="0" fill="hsl(107,48%,64%)"/><rect x="240.94117647058823" y="120.47058823529412" width="30.11764705882353" height="30.11764705882353" rx="6" fill="hsl(107,48%,64%)"/><rect x="271.05882352941177" y="120.47058823529412" width="30.11764705882353" height="30.11764705882353" rx="0" fill="hsl(27,58%,44%)"/><rect x="301.1764705882353" y="120.47058823529412" width="30.11764705882353" height="30.11764705882353" rx="0" fill="hsl(27,58%,44%)"/><rect x="331.29411764705884" y="120.47058823529412" width="30.11764705882353" height="30.11764705882353" rx="0" fill="hsl(27,58%,44%)"/><rect x="361.4117647058823" y="120.47058823529412" width="30.11764705882353" height="30.11764705882353" rx="0" fill="hsl(27,58%,44%)"/><rect x="391.52941176470586" y="120.47058823529412" width="30.11764705882353" height="30.11764705882353" rx="0" fill="hsl(27,58%,44%)"/><rect x="421.6470588235294" y="120.47058823529412" width="30.11764705882353" height="30.11764705882353" rx="0" fill="hsl(107,48%,64%)"/><rect x="451.7647058823529" y="120.47058823529412" width="30.11764705882353" height="30.11764705882353" rx="0" fill="hsl(107,48%,64%)"/><rect x="481.88235294117646" y="120.47058823529412" width="30.11764705882353" height="30.11764705882353" rx="0" fill="hsl(247,58%,54%)"/><rect x="0" y="150.58823529411765" width="30.11764705882353" height="30.11764705882353" rx="0" fill="hsl(247,58%,54%)"/><rect x="30.11764705882353" y="150.58823529411765" width="30.11764705882353" height="30.11764705882353" rx="0" fill="hsl(247,58%,54%)"/><rect x="60.23529411764706" y="150.58823529411765" width="30.11764705882353" height="30.11764705882353" rx="6" fill="hsl(107,48%,64%)"/><rect x="90.35294117647058" y="150.58823529411765" width="30.11764705882353" height="30.11764705882353" rx="0" fill="hsl(27,58%,44%)"/><rect x="120.47058823529412" y="150.58823529411765" width="30.11764705882353" height="30.11764705882353" rx="0" fill="hsl(107,48%,64%)"/><rect x="150.58823529411765" y="150.58823529411765" width="30.11764705882353" height="30.11764705882353" rx="0" fill="hsl(27,58%,44%)"/><rect x="180.70588235294116" y="150.58823529411765" width="30.11764705882353" height="30.11764705882353" rx="0" fill="hsl(27,58%,44%)"/><rect x="210.8235294117647" y="150.58823529411765" width="30.11764705882353" height="30.11764705882353" rx="0" fill="hsl(247,58%,54%)"/><rect x="240.94117647058823" y="150.58823529411765" width="30.11764705882353" height="30.11764705882353" rx="0" fill="hsl(247,58%,54%)"/><rect x="271.05882352941177" y="150.58823529411765" width="30.11764705882353" height="30.11764705882353" rx="0" fill="hsl(247,58%,54%)"/><rect x="301.1764705882353" y="150.58823529411765" width="30.11764705882353" height="30.11764705882353" rx="0" fill="hsl(107,48%,64%)"/><rect x="331.29411764705884" y="150.58823529411765" width="30.11764705882353" height="30.11764705882353" rx="0" fill="hsl(27,58%,44%)"/><rect x="361.4117647058823" y="150.58823529411765" width="30.11764705882353" height="30.11764705882353" rx="0" fill="hsl(27,58%,44%)"/><rect x="391.52941176470586" y="150.58823529411765" width="30.11764705882353" height="30.11764705882353" rx="0" fill="hsl(27,58%,44%)"/><rect x="421.6470588235294" y="150.58823529411765" width="30.11764705882353" height="30.11764705882353" rx="0" fill="hsl(247,58%,54%)"/><rect x="451.7647058823529" y="150.58823529411765" width="30.11764705882353" height="30.11764705882353" rx="0" fill="hsl(27,58%,44%)"/><rect x="481.88235294117646" y="150.58823529411765" width="30.11764705882353" height="30.11764705882353" rx="0" fill="hsl(247,58%,54%)"/><rect x="0" y="180.70588235294116" width="30.11764705882353" height="30.11764705882353" rx="0" fill="hsl(27,58%,44%)"/><rect x="30.11764705882353" y="180.70588235294116" width="30.11764705882353" height="30.11764705882353" rx="0" fill="hsl(107,48%,64%)"/><rect x="60.23529411764706" y="180.70588235294116" width="30.11764705882353" height="30.11764705882353" rx="0" fill="hsl(107,48%,64%)"/><rect x="90.35294117647058" y="180.70588235294116" width="30.11764705882353" height="30.11764705882353" rx="0" fill="hsl(247,58%,54%)"/><rect x="120.47058823529412" y="180.70588235294116" width="30.11764705882353" height="30.11764705882353" rx="0" fill="hsl(27,58%,44%)"/><rect x="150.58823529411765" y="180.70588235294116" width="30.11764705882353" height="30.11764705882353" rx="0" fill="hsl(27,58%,44%)"/><rect x="180.70588235294116" y="180.70588235294116" width="30.11764705882353" height="30.11764705882353" rx="0" fill="hsl(27,58%,44%)"/><rect x="210.8235294117647" y="180.70588235294116" width="30.11764705882353" height="30.11764705882353" rx="0" fill="hsl(107,48%,64%)"/><rect x="240.94117647058823" y="180.70588235294116" width="30.11764705882353" height="30.11764705882353" rx="0" fill="hsl(107,48%,64%)"/><rect x="271.05882352941177" y="180.70588235294116" width="30.11764705882353" height="30.11764705882353" rx="0" fill="hsl(107,48%,64%)"/><rect x="301.1764705882353" y="180.70588235294116" width="30.11764705882353" height="30.11764705882353" rx="0" fill="hsl(27,58%,44%)"/><rect x="331.29411764705884" y="180.70588235294116" width="30.11764705882353" height="30.11764705882353" rx="0" fill="hsl(27,58%,44%)"/><rect x="361.4117647058823" y="180.70588235294116" width="30.11764705882353" height="30.11764705882353" rx="0" fill="hsl(27,58%,44%)"/><rect x="391.52941176470586" y="180.70588235294116" width="30.11764705882353" height="30.11764705882353" rx="0" fill="hsl(107,48%,64%)"/><rect x="421.6470588235294" y="180.70588235294116" width="30.11764705882353" height="30.11764705882353" rx="0" fill="hsl(247,58%,54%)"/><rect x="451.7647058823529" y="180.70588235294116" width="30.11764705882353" height="30.11764705882353" rx="0" fill="hsl(247,58%,54%)"/><rect x="481.88235294117646" y="180.70588235294116" width="30.11764705882353" height="30.11764705882353" rx="0" fill="hsl(247,58%,54%)"/><rect x="0" y="210.8235294117647" width="30.11764705882353" height="30.11764705882353" rx="0" fill="hsl(247,58%,54%)"/><rect x="30.11764705882353" y="210.8235294117647" width="30.11764705882353" height="30.11764705882353" rx="6" fill="hsl(107,48%,64%)"/><rect x="60.23529411764706" y="210.8235294117647" width="30.11764705882353" height="30.11764705882353" rx="6" fill="hsl(247,58%,54%)"/><rect x="90.35294117647058" y="210.8235294117647" width="30.11764705882353" height="30.11764705882353" rx="0" fill="hsl(107,48%,64%)"/><rect x="120.47058823529412" y="210.8235294117647" width="30.11764705882353" height="30.11764705882353" rx="0" fill="hsl(107,48%,64%)"/><rect x="150.58823529411765" y="210.8235294117647" width="30.11764705882353" height="30.11764705882353" rx="0" fill="hsl(27,58%,44%)"/><rect x="180.70588235294116" y="210.8235294117647" width="30.11764705882353" height="30.11764705882353" rx="0" fill="hsl(247,58%,54%)"/><rect x="210.8235294117647" y="210.8235294117647" width="30.11764705882353" height="30.11764705882353" rx="0" fill="hsl(27,58%,44%)"/><rect x="240.94117647058823" y="210.8235294117647" width="30.11764705882353" height="30.11764705882353" rx="0" fill="hsl(247,58%,54%)"/><rect x="271.05882352941177" y="210.8235294117647" width="30.11764705882353" height="30.11764705882353" rx="0" fill="hsl(247,58%,54%)"/><rect x="301.1764705882353" y="210.8235294117647" width="30.11764705882353" height="30.11764705882353" rx="0" fill="hsl(27,58%,44%)"/><rect x="331.29411764705884" y="210.8235294117647" width="30.11764705882353" height="30.11764705882353" rx="0" fill="hsl(27,58%,44%)"/><rect x="361.4117647058823" y="210.8235294117647" width="30.11764705882353" height="30.11764705882353" rx="0" fill="hsl(107,48%,64%)"/><rect x="391.52941176470586" y="210.8235294117647" width="30.11764705882353" height="30.11764705882353" rx="0" fill="hsl(247,58%,54%)"/><rect x="421.6470588235294" y="210.8235294117647" width="30.11764705882353" height="30.11764705882353" rx="6" fill="hsl(27,58%,44%)"/><rect x="451.7647058823529" y="210.8235294117647" width="30.11764705882353" height="30.11764705882353" rx="0" fill="hsl(107,48%,64%)"/><rect x="481.88235294117646" y="210.8235294117647" width="30.11764705882353" height="30.11764705882353" rx="0" fill="hsl(27,58%,44%)"/><rect x="0" y="240.94117647058823" width="30.11764705882353" height="30.11764705882353" rx="0" fill="hsl(27,58%,44%)"/><rect x="30.11764705882353" y="240.94117647058823" width="30.11764705882353" height="30.11764705882353" rx="0" fill="hsl(247,58%,54%)"/><rect x="60.23529411764706" y="240.94117647058823" width="30.11764705882353" height="30.11764705882353" rx="0" fill="hsl(107,48%,64%)"/><rect x="90.35294117647058" y="240.94117647058823" width="30.11764705882353" height="30.11764705882353" rx="0" fill="hsl(247,58%,54%)"/><rect x="120.47058823529412" y="240.94117647058823" width="30.11764705882353" height="30.11764705882353" rx="0" fill="hsl(27,58%,44%)"/><rect x="150.58823529411765" y="240.94117647058823" width="30.11764705882353" height="30.11764705882353" rx="0" fill="hsl(247,58%,54%)"/><rect x="180.70588235294116" y="240.94117647058823" width="30.11764705882353" height="30.11764705882353" rx="0" fill="hsl(107,48%,64%)"/><rect x="210.8235294117647" y="240.94117647058823" width="30.11764705882353" height="30.11764705882353" rx="0" fill="hsl(247,58%,54%)"/><rect x="240.94117647058823" y="240.94117647058823" width="30.11764705882353" height="30.11764705882353" rx="6" fill="hsl(247,58%,54%)"/><rect x="271.05882352941177" y="240.94117647058823" width="30.11764705882353" height="30.11764705882353" rx="0" fill="hsl(247,58%,54%)"/><rect x="301.1764705882353" y="240.94117647058823" width="30.11764705882353" height="30.11764705882353" rx="0" fill="hsl(107,48%,64%)"/><rect x="331.29411764705884" y="240.94117647058823" width="30.11764705882353" height="30.11764705882353" rx="0" fill="hsl(247,58%,54%)"/><rect x="361.4117647058823" y="240.94117647058823" width="30.11764705882353" height="30.11764705882353" rx="0" fill="hsl(27,58%,44%)"/><rect x="391.52941176470586" y="240.94117647058823" width="30.11764705882353" height="30.11764705882353" rx="0" fill="hsl(247,58%,54%)"/><rect x="421.6470588235294" y="240.94117647058823" width="30.11764705882353" height="30.11764705882353" rx="0" fill="hsl(247,58%,54%)"/><rect x="451.7647058823529" y="240.94117647058823" width="30.11764705882353" height="30.11764705882353" rx="0" fill="hsl(247,58%,54%)"/><rect x="481.88235294117646" y="240.94117647058823" width="30.11764705882353" height="30.11764705882353" rx="0" fill="hsl(247,58%,54%)"/><rect x="0" y="271.05882352941177" width="30.11764705882353" height="30.11764705882353" rx="0" fill="hsl(247,58%,54%)"/><rect x="30.11764705882353" y="271.05882352941177" width="30.11764705882353" height="30.11764705882353" rx="0" fill="hsl(107,48%,64%)"/><rect x="60.23529411764706" y="271.05882352941177" width="30.11764705882353" height="30.11764705882353" rx="0" fill="hsl(107,48%,64%)"/><rect x="90.35294117647058" y="271.05882352941177" width="30.11764705882353" height="30.11764705882353" rx="0" fill="hsl(107,48%,64%)"/><rect x="120.47058823529412" y="271.05882352941177" width="30.11764705882353" height="30.11764705882353" rx="0" fill="hsl(247,58%,54%)"/><rect x="150.58823529411765" y="271.05882352941177" width="30.11764705882353" height="30.11764705882353" rx="0" fill="hsl(247,58%,54%)"/><rect x="180.70588235294116" y="271.05882352941177" width="30.11764705882353" height="30.11764705882353" rx="0" fill="hsl(27,58%,44%)"/><rect x="210.8235294117647" y="271.05882352941177" width="30.11764705882353" height="30.11764705882353" rx="0" fill="hsl(247,58%,54%)"/><rect x="240.94117647058823" y="271.05882352941177" width="30.11764705882353" height="30.11764705882353" rx="0" fill="hsl(27,58%,44%)"/><rect x="271.05882352941177" y="271.05882352941177" width="30.11764705882353" height="30.11764705882353" rx="0" fill="hsl(27,58%,44%)"/><rect x="301.1764705882353" y="271.05882352941177" width="30.11764705882353" height="30.11764705882353" rx="0" fill="hsl(27,58%,44%)"/><rect x="331.29411764705884" y="271.05882352941177" width="30.11764705882353" height="30.11764705882353" rx="0" fill="hsl(247,58%,54%)"/><rect x="361.4117647058823" y="271.05882352941177" width="30.11764705882353" height="30.11764705882353" rx="0" fill="hsl(27,58%,44%)"/><rect x="391.52941176470586" y="271.05882352941177" width="30.11764705882353" height="30.11764705882353" rx="0" fill="hsl(107,48%,64%)"/><rect x="421.6470588235294" y="271.05882352941177" width="30.11764705882353" height="30.11764705882353" rx="0" fill="hsl(247,58%,54%)"/><rect x="451.7647058823529" y="271.05882352941177" width="30.11764705882353" height="30.11764705882353" rx="6" fill="hsl(107,48%,64%)"/><rect x="481.88235294117646" y="271.05882352941177" width="30.11764705882353" height="30.11764705882353" rx="0" fill="hsl(107,48%,64%)"/><rect x="0" y="301.1764705882353" width="30.11764705882353" height="30.11764705882353" rx="0" fill="hsl(247,58%,54%)"/><rect x="30.11764705882353" y="301.1764705882353" width="30.11764705882353" height="30.11764705882353" rx="0" fill="hsl(247,58%,54%)"/><rect x="60.23529411764706" y="301.1764705882353" width="30.11764705882353" height="30.11764705882353" rx="0" fill="hsl(247,58%,54%)"/><rect x="90.35294117647058" y="301.1764705882353" width="30.11764705882353" height="30.11764705882353" rx="0" fill="hsl(247,58%,54%)"/><rect x="120.47058823529412" y="301.1764705882353" width="30.11764705882353" height="30.11764705882353" rx="0" fill="hsl(247,58%,54%)"/><rect x="150.58823529411765" y="301.1764705882353" width="30.11764705882353" height="30.11764705882353" rx="0" fill="hsl(107,48%,64%)"/><rect x="180.70588235294116" y="301.1764705882353" width="30.11764705882353" height="30.11764705882353" rx="0" fill="hsl(27,58%,44%)"/><rect x="210.8235294117647" y="301.1764705882353" width="30.11764705882353" height="30.11764705882353" rx="0" fill="hsl(27,58%,44%)"/><rect x="240.94117647058823" y="301.1764705882353" width="30.11764705882353" height="30.11764705882353" rx="0" fill="hsl(107,48%,64%)"/><rect x="271.05882352941177" y="301.1764705882353" width="30.11764705882353" height="30.11764705882353" rx="0" fill="hsl(247,58%,54%)"/><rect x="301.1764705882353" y="301.1764705882353" width="30.11764705882353" height="30.11764705882353" rx="0" fill="hsl(107,48%,64%)"/><rect x="331.29411764705884" y="301.1764705882353" width="30.11764705882353" height="30.11764705882353" rx="0" fill="hsl(27,58%,44%)"/><rect x="361.4117647058823" y="301.1764705882353" width="30.11764705882353" height="30.11764705882353" rx="0" fill="hsl(107,48%,64%)"/><rect x="391.52941176470586" y="301.1764705882353" width="30.11764705882353" height="30.11764705882353" rx="0" fill="hsl(27,58%,44%)"/><rect x="421.6470588235294" y="301.1764705882353" width="30.11764705882353" height="30.11764705882353" rx="0" fill="hsl(107,48%,64%)"/><rect x="451.7647058823529" y="301.1764705882353" width="30.11764705882353" height="30.11764705882353" rx="0" fill="hsl(107,48%,64%)"/><rect x="481.88235294117646" y="301.1764705882353" width="30.11764705882353" height="30.11764705882353" rx="0" fill="hsl(107,48%,64%)"/><rect x="0" y="331.29411764705884" width="30.11764705882353" height="30.11764705882353" rx="0" fill="hsl(247,58%,54%)"/><rect x="30.11764705882353" y="331.29411764705884" width="30.11764705882353" height="30.11764705882353" rx="0" fill="hsl(247,58%,54%)"/><rect x="60.23529411764706" y="331.29411764705884" width="30.11764705882353" height="30.11764705882353" rx="0" fill="hsl(27,58%,44%)"/><rect x="90.35294117647058" y="331.29411764705884" width="30.11764705882353" height="30.11764705882353" rx="0" fill="hsl(107,48%,64%)"/><rect x="120.47058823529412" y="331.29411764705884" width="30.11764705882353" height="30.11764705882353" rx="0" fill="hsl(107,48%,64%)"/><rect x="150.58823529411765" y="331.29411764705884" width="30.11764705882353" height="30.11764705882353" rx="0" fill="hsl(247,58%,54%)"/><rect x="180.70588235294116" y="331.29411764705884" width="30.11764705882353" height="30.11764705882353" rx="0" fill="hsl(107,48%,64%)"/><rect x="210.8235294117647" y="331.29411764705884" width="30.11764705882353" height="30.11764705882353" rx="0" fill="hsl(27,58%,44%)"/><rect x="240.94117647058823" y="331.29411764705884" width="30.11764705882353" height="30.11764705882353" rx="0" fill="hsl(107,48%,64%)"/><rect x="271.05882352941177" y="331.29411764705884" width="30.11764705882353" height="30.11764705882353" rx="0" fill="hsl(27,58%,44%)"/><rect x="301.1764705882353" y="331.29411764705884" width="30.11764705882353" height="30.11764705882353" rx="0" fill="hsl(107,48%,64%)"/><rect x="331.29411764705884" y="331.29411764705884" width="30.11764705882353" height="30.11764705882353" rx="0" fill="hsl(27,58%,44%)"/><rect x="361.4117647058823" y="331.29411764705884" width="30.11764705882353" height="30.11764705882353" rx="0" fill="hsl(107,48%,64%)"/><rect x="391.52941176470586" y="331.29411764705884" width="30.11764705882353" height="30.11764705882353" rx="0" fill="hsl(107,48%,64%)"/><rect x="421.6470588235294" y="331.29411764705884" width="30.11764705882353" height="30.11764705882353" rx="0" fill="hsl(107,48%,64%)"/><rect x="451.7647058823529" y="331.29411764705884" width="30.11764705882353" height="30.11764705882353" rx="0" fill="hsl(27,58%,44%)"/><rect x="481.88235294117646" y="331.29411764705884" width="30.11764705882353" height="30.11764705882353" rx="0" fill="hsl(27,58%,44%)"/><rect x="0" y="361.4117647058823" width="30.11764705882353" height="30.11764705882353" rx="0" fill="hsl(27,58%,44%)"/><rect x="30.11764705882353" y="361.4117647058823" width="30.11764705882353" height="30.11764705882353" rx="0" fill="hsl(247,58%,54%)"/><rect x="60.23529411764706" y="361.4117647058823" width="30.11764705882353" height="30.11764705882353" rx="0" fill="hsl(27,58%,44%)"/><rect x="90.35294117647058" y="361.4117647058823" width="30.11764705882353" height="30.11764705882353" rx="0" fill="hsl(247,58%,54%)"/><rect x="120.47058823529412" y="361.4117647058823" width="30.11764705882353" height="30.11764705882353" rx="6" fill="hsl(27,58%,44%)"/><rect x="150.58823529411765" y="361.4117647058823" width="30.11764705882353" height="30.11764705882353" rx="0" fill="hsl(27,58%,44%)"/><rect x="180.70588235294116" y="361.4117647058823" width="30.11764705882353" height="30.11764705882353" rx="0" fill="hsl(27,58%,44%)"/><rect x="210.8235294117647" y="361.4117647058823" width="30.11764705882353" height="30.11764705882353" rx="0" fill="hsl(27,58%,44%)"/><rect x="240.94117647058823" y="361.4117647058823" width="30.11764705882353" height="30.11764705882353" rx="0" fill="hsl(247,58%,54%)"/><rect x="271.05882352941177" y="361.4117647058823" width="30.11764705882353" height="30.11764705882353" rx="0" fill="hsl(247,58%,54%)"/><rect x="301.1764705882353" y="361.4117647058823" width="30.11764705882353" height="30.11764705882353" rx="0" fill="hsl(27,58%,44%)"/><rect x="331.29411764705884" y="361.4117647058823" width="30.11764705882353" height="30.11764705882353" rx="0" fill="hsl(27,58%,44%)"/><rect x="361.4117647058823" y="361.4117647058823" width="30.11764705882353" height="30.11764705882353" rx="0" fill="hsl(247,58%,54%)"/><rect x="391.52941176470586" y="361.4117647058823" width="30.11764705882353" height="30.11764705882353" rx="0" fill="hsl(247,58%,54%)"/><rect x="421.6470588235294" y="361.4117647058823" width="30.11764705882353" height="30.11764705882353" rx="0" fill="hsl(247,58%,54%)"/><rect x="451.7647058823529" y="361.4117647058823" width="30.11764705882353" height="30.11764705882353" rx="0" fill="hsl(247,58%,54%)"/><rect x="481.88235294117646" y="361.4117647058823" width="30.11764705882353" height="30.11764705882353" rx="0" fill="hsl(107,48%,64%)"/><rect x="0" y="391.52941176470586" width="30.11764705882353" height="30.11764705882353" rx="0" fill="hsl(107,48%,64%)"/><rect x="30.11764705882353" y="391.52941176470586" width="30.11764705882353" height="30.11764705882353" rx="0" fill="hsl(27,58%,44%)"/><rect x="60.23529411764706" y="391.52941176470586" width="30.11764705882353" height="30.11764705882353" rx="0" fill="hsl(247,58%,54%)"/><rect x="90.35294117647058" y="391.52941176470586" width="30.11764705882353" height="30.11764705882353" rx="0" fill="hsl(247,58%,54%)"/><rect x="120.47058823529412" y="391.52941176470586" width="30.11764705882353" height="30.11764705882353" rx="6" fill="hsl(27,58%,44%)"/><rect x="150.58823529411765" y="391.52941176470586" width="30.11764705882353" height="30.11764705882353" rx="0" fill="hsl(247,58%,54%)"/><rect x="180.70588235294116" y="391.52941176470586" width="30.11764705882353" height="30.11764705882353" rx="0" fill="hsl(107,48%,64%)"/><rect x="210.8235294117647" y="391.52941176470586" width="30.11764705882353" height="30.11764705882353" rx="0" fill="hsl(107,48%,64%)"/><rect x="240.94117647058823" y="391.52941176470586" width="30.11764705882353" height="30.11764705882353" rx="0" fill="hsl(247,58%,54%)"/><rect x="271.05882352941177" y="391.52941176470586" width="30.11764705882353" height="30.11764705882353" rx="0" fill="hsl(27,58%,44%)"/><rect x="301.1764705882353" y="391.52941176470586" width="30.11764705882353" height="30.11764705882353" rx="6" fill="hsl(27,58%,44%)"/><rect x="331.29411764705884" y="391.52941176470586" width="30.11764705882353" height="30.11764705882353" rx="0" fill="hsl(247,58%,54%)"/><rect x="361.4117647058823" y="391.52941176470586" width="30.11764705882353" height="30.11764705882353" rx="6" fill="hsl(27,58%,44%)"/><rect x="391.52941176470586" y="391.52941176470586" width="30.11764705882353" height="30.11764705882353" rx="6" fill="hsl(27,58%,44%)"/><rect x="421.6470588235294" y="391.52941176470586" width="30.11764705882353" height="30.11764705882353" rx="0" fill="hsl(247,58%,54%)"/><rect x="451.7647058823529" y="391.52941176470586" width="30.11764705882353" height="30.11764705882353" rx="0" fill="hsl(27,58%,44%)"/><rect x="481.88235294117646" y="391.52941176470586" width="30.11764705882353" height="30.11764705882353" rx="0" fill="hsl(107,48%,64%)"/><rect x="0" y="421.6470588235294" width="30.11764705882353" height="30.11764705882353" rx="0" fill="hsl(247,58%,54%)"/><rect x="30.11764705882353" y="421.6470588235294" width="30.11764705882353" height="30.11764705882353" rx="0" fill="hsl(27,58%,44%)"/><rect x="60.23529411764706" y="421.6470588235294" width="30.11764705882353" height="30.11764705882353" rx="6" fill="hsl(27,58%,44%)"/><rect x="90.35294117647058" y="421.6470588235294" width="30.11764705882353" height="30.11764705882353" rx="0" fill="hsl(27,58%,44%)"/><rect x="120.47058823529412" y="421.6470588235294" width="30.11764705882353" height="30.11764705882353" rx="0" fill="hsl(247,58%,54%)"/><rect x="150.58823529411765" y="421.6470588235294" width="30.11764705882353" height="30.11764705882353" rx="6" fill="hsl(107,48%,64%)"/><rect x="180.70588235294116" y="421.6470588235294" width="30.11764705882353" height="30.11764705882353" rx="0" fill="hsl(107,48%,64%)"/><rect x="210.8235294117647" y="421.6470588235294" width="30.11764705882353" height="30.11764705882353" rx="0" fill="hsl(107,48%,64%)"/><rect x="240.94117647058823" y="421.6470588235294" width="30.11764705882353" height="30.11764705882353" rx="0" fill="hsl(247,58%,54%)"/><rect x="271.05882352941177" y="421.6470588235294" width="30.11764705882353" height="30.11764705882353" rx="0" fill="hsl(247,58%,54%)"/><rect x="301.1764705882353" y="421.6470588235294" width="30.11764705882353" height="30.11764705882353" rx="0" fill="hsl(247,58%,54%)"/><rect x="331.29411764705884" y="421.6470588235294" width="30.11764705882353" height="30.11764705882353" rx="0" fill="hsl(27,58%,44%)"/><rect x="361.4117647058823" y="421.6470588235294" width="30.11764705882353" height="30.11764705882353" rx="0" fill="hsl(247,58%,54%)"/><rect x="391.52941176470586" y="421.6470588235294" width="30.11764705882353" height="30.11764705882353" rx="0" fill="hsl(247,58%,54%)"/><rect x="421.6470588235294" y="421.6470588235294" width="30.11764705882353" height="30.11764705882353" rx="0" fill="hsl(27,58%,44%)"/><rect x="451.7647058823529" y="421.6470588235294" width="30.11764705882353" height="30.11764705882353" rx="0" fill="hsl(27,58%,44%)"/><rect x="481.88235294117646" y="421.6470588235294" width="30.11764705882353" height="30.11764705882353" rx="0" fill="hsl(247,58%,54%)"/><rect x="0" y="451.7647058823529" width="30.11764705882353" height="30.11764705882353" rx="6" fill="hsl(247,58%,54%)"/><rect x="30.11764705882353" y="451.7647058823529" width="30.11764705882353" height="30.11764705882353" rx="0" fill="hsl(247,58%,54%)"/><rect x="60.23529411764706" y="451.7647058823529" width="30.11764705882353" height="30.11764705882353" rx="0" fill="hsl(247,58%,54%)"/><rect x="90.35294117647058" y="451.7647058823529" width="30.11764705882353" height="30.11764705882353" rx="0" fill="hsl(247,58%,54%)"/><rect x="120.47058823529412" y="451.7647058823529" width="30.11764705882353" height="30.11764705882353" rx="0" fill="hsl(107,48%,64%)"/><rect x="150.58823529411765" y="451.7647058823529" width="30.11764705882353" height="30.11764705882353" rx="0" fill="hsl(247,58%,54%)"/><rect x="180.70588235294116" y="451.7647058823529" width="30.11764705882353" height="30.11764705882353" rx="0" fill="hsl(247,58%,54%)"/><rect x="210.8235294117647" y="451.7647058823529" width="30.11764705882353" height="30.11764705882353" rx="0" fill="hsl(27,58%,44%)"/><rect x="240.94117647058823" y="451.7647058823529" width="30.11764705882353" height="30.11764705882353" rx="0" fill="hsl(107,48%,64%)"/><rect x="271.05882352941177" y="451.7647058823529" width="30.11764705882353" height="30.11764705882353" rx="0" fill="hsl(247,58%,54%)"/><rect x="301.1764705882353" y="451.7647058823529" width="30.11764705882353" height="30.11764705882353" rx="0" fill="hsl(107,48%,64%)"/><rect x="331.29411764705884" y="451.7647058823529" width="30.11764705882353" height="30.11764705882353" rx="0" fill="hsl(27,58%,44%)"/><rect x="361.4117647058823" y="451.7647058823529" width="30.11764705882353" height="30.11764705882353" rx="6" fill="hsl(107,48%,64%)"/><rect x="391.52941176470586" y="451.7647058823529" width="30.11764705882353" height="30.11764705882353" rx="0" fill="hsl(107,48%,64%)"/><rect x="421.6470588235294" y="451.7647058823529" width="30.11764705882353" height="30.11764705882353" rx="0" fill="hsl(247,58%,54%)"/><rect x="451.7647058823529" y="451.7647058823529" width="30.11764705882353" height="30.11764705882353" rx="0" fill="hsl(107,48%,64%)"/><rect x="481.88235294117646" y="451.7647058823529" width="30.11764705882353" height="30.11764705882353" rx="0" fill="hsl(107,48%,64%)"/><rect x="0" y="481.88235294117646" width="30.11764705882353" height="30.11764705882353" rx="0" fill="hsl(27,58%,44%)"/><rect x="30.11764705882353" y="481.88235294117646" width="30.11764705882353" height="30.11764705882353" rx="0" fill="hsl(27,58%,44%)"/><rect x="60.23529411764706" y="481.88235294117646" width="30.11764705882353" height="30.11764705882353" rx="6" fill="hsl(27,58%,44%)"/><rect x="90.35294117647058" y="481.88235294117646" width="30.11764705882353" height="30.11764705882353" rx="0" fill="hsl(27,58%,44%)"/><rect x="120.47058823529412" y="481.88235294117646" width="30.11764705882353" height="30.11764705882353" rx="0" fill="hsl(27,58%,44%)"/><rect x="150.58823529411765" y="481.88235294117646" width="30.11764705882353" height="30.11764705882353" rx="0" fill="hsl(247,58%,54%)"/><rect x="180.70588235294116" y="481.88235294117646" width="30.11764705882353" height="30.11764705882353" rx="0" fill="hsl(107,48%,64%)"/><rect x="210.8235294117647" y="481.88235294117646" width="30.11764705882353" height="30.11764705882353" rx="0" fill="hsl(27,58%,44%)"/><rect x="240.94117647058823" y="481.88235294117646" width="30.11764705882353" height="30.11764705882353" rx="0" fill="hsl(247,58%,54%)"/><rect x="271.05882352941177" y="481.88235294117646" width="30.11764705882353" height="30.11764705882353" rx="0" fill="hsl(107,48%,64%)"/><rect x="301.1764705882353" y="481.88235294117646" width="30.11764705882353" height="30.11764705882353" rx="0" fill="hsl(107,48%,64%)"/><rect x="331.29411764705884" y="481.88235294117646" width="30.11764705882353" height="30.11764705882353" rx="0" fill="hsl(27,58%,44%)"/><rect x="361.4117647058823" y="481.88235294117646" width="30.11764705882353" height="30.11764705882353" rx="0" fill="hsl(27,58%,44%)"/><rect x="391.52941176470586" y="481.88235294117646" width="30.11764705882353" height="30.11764705882353" rx="6" fill="hsl(27,58%,44%)"/><rect x="421.6470588235294" y="481.88235294117646" width="30.11764705882353" height="30.11764705882353" rx="0" fill="hsl(247,58%,54%)"/><rect x="451.7647058823529" y="481.88235294117646" width="30.11764705882353" height="30.11764705882353" rx="0" fill="hsl(27,58%,44%)"/><rect x="481.88235294117646" y="481.88235294117646" width="30.11764705882353" height="30.11764705882353" rx="0" fill="hsl(107,48%,64%)"/>
  </svg>