<svg xmlns="http://www.w3.org/2000/svg" width="512" height="512" viewBox="0 0 512 512">
  <defs>
    <filter id="gr"><feTurbulence type="fractalNoise" baseFrequency="0.05" numOctaves="1" result="n"/><feColorMatrix type="saturate" values="0.25"/></filter>
  </defs>
  <rect width="100%" height="100%" fill="white"/>
  <rect x="0" y="0" width="42.666666666666664" height="42.666666666666664" rx="0" fill="hsl(118,50%,76%)"/><rect x="42.666666666666664" y="0" width="42.666666666666664" height="42.666666666666664" rx="0" fill="hsl(258,60%,66%)"/><rect x="85.33333333333333" y="0" width="42.666666666666664" height="42.666666666666664" rx="0" fill="hsl(38,60%,56%)"/><rect x="128" y="0" width="42.666666666666664" height="42.666666666666664" rx="0" fill="hsl(38,60%,56%)"/><rect x="170.66666666666666" y="0" width="42.666666666666664" height="42.666666666666664" rx="0" fill="hsl(118,50%,76%)"/><rect x="213.33333333333331" y="0" width="42.666666666666664" height="42.666666666666664" rx="0" fill="hsl(118,50%,76%)"/><rect x="256" y="0" width="42.666666666666664" height="42.666666666666664" rx="0" fill="hsl(118,50%,76%)"/><rect x="298.66666666666663" y="0" width="42.666666666666664" height="42.666666666666664" rx="0" fill="hsl(38,60%,56%)"/><rect x="341.3333333333333" y="0" width="42.666666666666664" height="42.666666666666664" rx="0" fill="hsl(118,50%,76%)"/><rect x="384" y="0" width="42.666666666666664" height="42.666666666666664" rx="6" fill="hsl(118,50%,76%)"/><rect x="426.66666666666663" y="0" width="42.666666666666664" height="42.666666666666664" rx="0" fill="hsl(258,60%,66%)"/><rect x="469.3333333333333" y="0" width="42.666666666666664" height="42.666666666666664" rx="6" fill="hsl(38,60%,56%)"/><rect x="0" y="42.666666666666664" width="42.666666666666664" height="42.666666666666664" rx="0" fill="hsl(258,60%,66%)"/><rect x="42.666666666666664" y="42.666666666666664" width="42.666666666666664" height="42.666666666666664" rx="0" fill="hsl(258,60%,66%)"/><rect x="85.33333333333333" y="42.666666666666664" width="42.666666666666664" height="42.666666666666664" rx="0" fill="hsl(38,60%,56%)"/><rect x="128" y="42.666666666666664" width="42.666666666666664" height="42.666666666666664" rx="6" fill="hsl(38,60%,56%)"/><rect x="170.66666666666666" y="42.666666666666664" width="42.666666666666664" height="42.666666666666664" rx="0" fill="hsl(258,60%,66%)"/><rect x="213.33333333333331" y="42.666666666666664" width="42.666666666666664" height="42.666666666666664" rx="0" fill="hsl(118,50%,76%)"/><rect x="256" y="42.666666666666664" width="42.666666666666664" height="42.666666666666664" rx="0" fill="hsl(38,60%,56%)"/><rect x="298.66666666666663" y="42.666666666666664" width="42.666666666666664" height="42.666666666666664" rx="6" fill="hsl(118,50%,76%)"/><rect x="341.3333333333333" y="42.666666666666664" width="42.666666666666664" height="42.666666666666664" rx="0" fill="hsl(38,60%,56%)"/><rect x="384" y="42.666666666666664" width="42.666666666666664" height="42.666666666666664" rx="0" fill="hsl(118,50%,76%)"/><rect x="426.66666666666663" y="42.666666666666664" width="42.666666666666664" height="42.666666666666664" rx="0" fill="hsl(38,60%,56%)"/><rect x="469.3333333333333" y="42.666666666666664" width="42.666666666666664" height="42.666666666666664" rx="0" fill="hsl(118,50%,76%)"/><rect x="0" y="85.33333333333333" width="42.666666666666664" height="42.666666666666664" rx="0" fill="hsl(258,60%,66%)"/><rect x="42.666666666666664" y="85.33333333333333" width="42.666666666666664" height="42.666666666666664" rx="0" fill="hsl(258,60%,66%)"/><rect x="85.33333333333333" y="85.33333333333333" width="42.666666666666664" height="42.666666666666664" rx="6" fill="hsl(258,60%,66%)"/><rect x="128" y="85.33333333333333" width="42.666666666666664" height="42.666666666666664" rx="0" fill="hsl(118,50%,76%)"/><rect x="170.66666666666666" y="85.33333333333333" width="42.666666666666664" height="42.666666666666664" rx="0" fill="hsl(38,60%,56%)"/><rect x="213.33333333333331" y="85.33333333333333" width="42.666666666666664" height="42.666666666666664" rx="0" fill="hsl(258,60%,66%)"/><rect x="256" y="85.33333333333333" width="42.666666666666664" height="42.666666666666664" rx="0" fill="hsl(258,60%,66%)"/><rect x="298.66666666666663" y="85.33333333333333" width="42.666666666666664" height="42.666666666666664" rx="0" fill="hsl(258,60%,66%)"/><rect x="341.3333333333333" y="85.33333333333333" width="42.666666666666664" height="42.666666666666664" rx="0" fill="hsl(38,60%,56%)"/><rect x="384" y="85.33333333333333" width="42.666666666666664" height="42.666666666666664" rx="6" fill="hsl(258,60%,66%)"/><rect x="426.66666666666663" y="85.33333333333333" width="42.666666666666664" height="42.666666666666664" rx="0" fill="hsl(38,60%,56%)"/><rect x="469.3333333333333" y="85.33333333333333" width="42.666666666666664" height="42.666666666666664" rx="0" fill="hsl(258,60%,66%)"/><rect x="0" y="128" width="42.666666666666664" height="42.666666666666664" rx="0" fill="hsl(258,60%,66%)"/><rect x="42.666666666666664" y="128" width="42.666666666666664" height="42.666666666666664" rx="6" fill="hsl(118,50%,76%)"/><rect x="85.33333333333333" y="128" width="42.666666666666664" height="42.666666666666664" rx="0" fill="hsl(38,60%,56%)"/><rect x="128" y="128" width="42.666666666666664" height="42.666666666666664" rx="0" fill="hsl(38,60%,56%)"/><rect x="170.66666666666666" y="128" width="42.666666666666664" height="42.666666666666664" rx="0" fill="hsl(118,50%,76%)"/><rect x="213.33333333333331" y="128" width="42.666666666666664" height="42.666666666666664" rx="0" fill="hsl(118,50%,76%)"/><rect x="256" y="128" width="42.666666666666664" height="42.666666666666664" rx="0" fill="hsl(38,60%,56%)"/><rect x="298.66666666666663" y="128" width="42.666666666666664" height="42.666666666666664" rx="0" fill="hsl(118,50%,76%)"/><rect x="341.3333333333333" y="128" width="42.666666666666664" height="42.666666666666664" rx="0" fill="hsl(118,50%,76%)"/><rect x="384" y="128" width="42.666666666666664" height="42.666666666666664" rx="0" fill="hsl(258,60%,66%)"/><rect x="426.66666666666663" y="128" width="42.666666666666664" height="42.666666666666664" rx="0" fill="hsl(258,60%,66%)"/><rect x="469.3333333333333" y="128" width="42.666666666666664" height="42.666666666666664" rx="6" fill="hsl(38,60%,56%)"/><rect x="0" y="170.66666666666666" width="42.666666666666664" height="42.666666666666664" rx="0" fill="hsl(118,50%,76%)"/><rect x="42.666666666666664" y="170.66666666666666" width="42.666666666666664" height="42.666666666666664" rx="0" fill="hsl(38,60%,56%)"/><rect x="85.33333333333333" y="170.66666666666666" width="42.666666666666664" height="42.666666666666664" rx="6" fill="hsl(118,50%,76%)"/><rect x="128" y="170.66666666666666" width="42.666666666666664" height="42.666666666666664" rx="0" fill="hsl(118,50%,76%)"/><rect x="170.66666666666666" y="170.66666666666666" width="42.666666666666664" height="42.666666666666664" rx="0" fill="hsl(258,60%,66%)"/><rect x="213.33333333333331" y="170.66666666666666" width="42.666666666666664" height="42.666666666666664" rx="0" fill="hsl(258,60%,66%)"/><rect x="256" y="170.66666666666666" width="42.666666666666664" height="42.666666666666664" rx="0" fill="hsl(258,60%,66%)"/><rect x="298.66666666666663" y="170.66666666666666" width="42.666666666666664" height="42.666666666666664" rx="6" fill="hsl(258,60%,66%)"/><rect x="341.3333333333333" y="170.66666666666666" width="42.666666666666664" height="42.666666666666664" rx="0" fill="hsl(38,60%,56%)"/><rect x="384" y="170.66666666666666" width="42.666666666666664" height="42.666666666666664" rx="6" fill="hsl(258,60%,66%)"/><rect x="426.66666666666663" y="170.66666666666666" width="42.666666666666664" height="42.666666666666664" rx="6" fill="hsl(258,60%,66%)"/><rect x="469.3333333333333" y="170.66666666666666" width="42.666666666666664" height="42.666666666666664" rx="0" fill="hsl(38,60%,56%)"/><rect x="0" y="213.33333333333331" width="42.666666666666664" height="42.666666666666664" rx="0" fill="hsl(38,60%,56%)"/><rect x="42.666666666666664" y="213.33333333333331" width="42.666666666666664" height="42.666666666666664" rx="6" fill="hsl(38,60%,56%)"/><rect x="85.33333333333333" y="213.33333333333331" width="42.666666666666664" height="42.666666666666664" rx="0" fill="hsl(118,50%,76%)"/><rect x="128" y="213.33333333333331" width="42.666666666666664" height="42.666666666666664" rx="0" fill="hsl(38,60%,56%)"/><rect x="170.66666666666666" y="213.33333333333331" width="42.666666666666664" height="42.666666666666664" rx="0" fill="hsl(38,60%,56%)"/><rect x="213.33333333333331" y="213.33333333333331" width="42.666666666666664" height="42.666666666666664" rx="0" fill="hsl(118,50%,76%)"/><rect x="256" y="213.33333333333331" width="42.666666666666664" height="42.666666666666664" rx="0" fill="hsl(258,60%,66%)"/><rect x="298.66666666666663" y="213.33333333333331" width="42.666666666666664" height="42.666666666666664" rx="0" fill="hsl(38,60%,56%)"/><rect x="341.3333333333333" y="213.33333333333331" width="42.666666666666664" height="42.666666666666664" rx="0" fill="hsl(258,60%,66%)"/><rect x="384" y="213.33333333333331" width="42.666666666666664" height="42.666666666666664" rx="0" fill="hsl(38,60%,56%)"/><rect x="426.66666666666663" y="213.33333333333331" width="42.666666666666664" height="42.666666666666664" rx="0" fill="hsl(118,50%,76%)"/><rect x="469.3333333333333" y="213.33333333333331" width="42.666666666666664" height="42.666666666666664" rx="0" fill="hsl(38,60%,56%)"/><rect x="0" y="256" width="42.666666666666664" height="42.666666666666664" rx="0" fill="hsl(258,60%,66%)"/><rect x="42.666666666666664" y="256" width="42.666666666666664" height="42.666666666666664" rx="0" fill="hsl(118,50%,76%)"/><rect x="85.33333333333333" y="256" width="42.666666666666664" height="42.666666666666664" rx="0" fill="hsl(38,60%,56%)"/><rect x="128" y="256" width="42.666666666666664" height="42.666666666666664" rx="0" fill="hsl(118,50%,76%)"/><rect x="170.66666666666666" y="256" width="42.666666666666664" height="42.666666666666664" rx="0" fill="hsl(38,60%,56%)"/><rect x="213.33333333333331" y="256" width="42.666666666666664" height="42.666666666666664" rx="0" fill="hsl(38,60%,56%)"/><rect x="256" y="256" width="42.666666666666664" height="42.666666666666664" rx="0" fill="hsl(118,50%,76%)"/><rect x="298.66666666666663" y="256" width="42.666666666666664" height="42.666666666666664" rx="0" fill="hsl(258,60%,66%)"/><rect x="341.3333333333333" y="256" width="42.666666666666664" height="42.666666666666664" rx="0" fill="hsl(118,50%,76%)"/><rect x="384" y="256" width="42.666666666666664" height="42.666666666666664" rx="0" fill="hsl(38,60%,56%)"/><rect x="426.66666666666663" y="256" width="42.666666666666664" height="42.666666666666664" rx="0" fill="hsl(258,60%,66%)"/><rect x="469.3333333333333" y="256" width="42.666666666666664" height="42.666666666666664" rx="0" fill="hsl(258,60%,66%)"/><rect x="0" y="298.66666666666663" width="42.666666666666664" height="42.666666666666664" rx="0" fill="hsl(118,50%,76%)"/><rect x="42.666666666666664" y="298.66666666666663" width="42.666666666666664" height="42.666666666666664" rx="0" fill="hsl(258,60%,66%)"/><rect x="85.33333333333333" y="298.66666666666663" width="42.666666666666664" height="42.666666666666664" rx="0" fill="hsl(38,60%,56%)"/><rect x="128" y="298.66666666666663" width="42.666666666666664" height="42.666666666666664" rx="0" fill="hsl(258,60%,66%)"/><rect x="170.66666666666666" y="298.66666666666663" width="42.666666666666664" height="42.666666666666664" rx="0" fill="hsl(118,50%,76%)"/><rect x="213.33333333333331" y="298.66666666666663" width="42.666666666666664" height="42.666666666666664" rx="0" fill="hsl(38,60%,56%)"/><rect x="256" y="298.66666666666663" width="42.666666666666664" height="42.666666666666664" rx="0" fill="hsl(118,50%,76%)"/><rect x="298.66666666666663" y="298.66666666666663" width="42.666666666666664" height="42.666666666666664" rx="0" fill="hsl(38,60%,56%)"/><rect x="341.3333333333333" y="298.66666666666663" width="42.666666666666664" height="42.666666666666664" rx="6" fill="hsl(258,60%,66%)"/><rect x="384" y="298.66666666666663" width="42.666666666666664" height="42.666666666666664" rx="0" fill="hsl(258,60%,66%)"/><rect x="426.66666666666663" y="298.66666666666663" width="42.666666666666664" height="42.666666666666664" rx="0" fill="hsl(38,60%,56%)"/><rect x="469.3333333333333" y="298.66666666666663" width="42.666666666666664" height="42.666666666666664" rx="0" fill="hsl(118,50%,76%)"/><rect x="0" y="341.3333333333333" width="42.666666666666664" height="42.666666666666664" rx="0" fill="hsl(118,50%,76%)"/><rect x="42.666666666666664" y="341.3333333333333" width="42.666666666666664" height="42.666666666666664" rx="0" fill="hsl(118,50%,76%)"/><rect x="85.33333333333333" y="341.3333333333333" width="42.666666666666664" height="42.666666666666664" rx="0" fill="hsl(258,60%,66%)"/><rect x="128" y="341.3333333333333" width="42.666666666666664" height="42.666666666666664" rx="0" fill="hsl(38,60%,56%)"/><rect x="170.66666666666666" y="341.3333333333333" width="42.666666666666664" height="42.666666666666664" rx="0" fill="hsl(118,50%,76%)"/><rect x="213.33333333333331" y="341.3333333333333" width="42.666666666666664" height="42.666666666666664" rx="0" fill="hsl(38,60%,56%)"/><rect x="256" y="341.3333333333333" width="42.666666666666664" height="42.666666666666664" rx="6" fill="hsl(38,60%,56%)"/><rect x="298.66666666666663" y="341.3333333333333" width="42.666666666666664" height="42.666666666666664" rx="0" fill="hsl(38,60%,56%)"/><rect x="341.3333333333333" y="341.3333333333333" width="42.666666666666664" height="42.666666666666664" rx="0" fill="hsl(258,60%,66%)"/><rect x="384" y="341.3333333333333" width="42.666666666666664" height="42.666666666666664" rx="0" fill="hsl(118,50%,76%)"/><rect x="426.66666666666663" y="341.3333333333333" width="42.666666666666664" height="42.666666666666664" rx="0" fill="hsl(118,50%,76%)"/><rect x="469.3333333333333" y="341.3333333333333" width="42.666666666666664" height="42.666666666666664" rx="0" fill="hsl(258,60%,66%)"/><rect x="0" y="384" width="42.666666666666664" height="42.666666666666664" rx="0" fill="hsl(258,60%,66%)"/><rect x="42.666666666666664" y="384" width="42.666666666666664" height="42.666666666666664" rx="0" fill="hsl(118,50%,76%)"/><rect x="85.33333333333333" y="384" width="42.666666666666664" height="42.666666666666664" rx="0" fill="hsl(118,50%,76%)"/><rect x="128" y="384" width="42.666666666666664" height="42.666666666666664" rx="0" fill="hsl(258,60%,66%)"/><rect x="170.66666666666666" y="384" width="42.666666666666664" height="42.666666666666664" rx="0" fill="hsl(38,60%,56%)"/><rect x="213.33333333333331" y="384" width="42.666666666666664" height="42.666666666666664" rx="6" fill="hsl(258,60%,66%)"/><rect x="256" y="384" width="42.666666666666664" height="42.666666666666664" rx="0" fill="hsl(258,60%,66%)"/><rect x="298.66666666666663" y="384" width="42.666666666666664" height="42.666666666666664" rx="0" fill="hsl(38,60%,56%)"/><rect x="341.3333333333333" y="384" width="42.666666666666664" height="42.666666666666664" rx="0" fill="hsl(38,60%,56%)"/><rect x="384" y="384" width="42.666666666666664" height="42.666666666666664" rx="0" fill="hsl(118,50%,76%)"/><rect x="426.66666666666663" y="384" width="42.666666666666664" height="42.666666666666664" rx="0" fill="hsl(118,50%,76%)"/><rect x="469.3333333333333" y="384" width="42.666666666666664" height="42.666666666666664" rx="0" fill="hsl(258,60%,66%)"/><rect x="0" y="426.66666666666663" width="42.666666666666664" height="42.666666666666664" rx="6" fill="hsl(258,60%,66%)"/><rect x="42.666666666666664" y="426.66666666666663" width="42.666666666666664" height="42.666666666666664" rx="0" fill="hsl(38,60%,56%)"/><rect x="85.33333333333333" y="426.66666666666663" width="42.666666666666664" height="42.666666666666664" rx="6" fill="hsl(38,60%,56%)"/><rect x="128" y="426.66666666666663" width="42.666666666666664" height="42.666666666666664" rx="0" fill="hsl(38,60%,56%)"/><rect x="170.66666666666666" y="426.66666666666663" width="42.666666666666664" height="42.666666666666664" rx="0" fill="hsl(258,60%,66%)"/><rect x="213.33333333333331" y="426.66666666666663" width="42.666666666666664" height="42.666666666666664" rx="0" fill="hsl(258,60%,66%)"/><rect x="256" y="426.66666666666663" width="42.666666666666664" height="42.666666666666664" rx="0" fill="hsl(118,50%,76%)"/><rect x="298.66666666666663" y="426.66666666666663" width="42.666666666666664" height="42.666666666666664" rx="0" fill="hsl(258,60%,66%)"/><rect x="341.3333333333333" y="426.66666666666663" width="42.666666666666664" height="42.666666666666664" rx="0" fill="hsl(118,50%,76%)"/><rect x="384" y="426.66666666666663" width="42.666666666666664" height="42.666666666666664" rx="0" fill="hsl(258,60%,66%)"/><rect x="426.66666666666663" y="426.66666666666663" width="42.666666666666664" height="42.666666666666664" rx="6" fill="hsl(38,60%,56%)"/><rect x="469.3333333333333" y="426.66666666666663" width="42.666666666666664" height="42.666666666666664" rx="0" fill="hsl(38,60%,56%)"/><rect x="0" y="469.3333333333333" width="42.666666666666664" height="42.666666666666664" rx="0" fill="hsl(258,60%,66%)"/><rect x="42.666666666666664" y="469.3333333333333" width="42.666666666666664" height="42.666666666666664" rx="0" fill="hsl(38,60%,56%)"/><rect x="85.33333333333333" y="469.3333333333333" width="42.666666666666664" height="42.666666666666664" rx="0" fill="hsl(38,60%,56%)"/><rect x="128" y="469.3333333333333" width="42.666666666666664" height="42.666666666666664" rx="0" fill="hsl(258,60%,66%)"/><rect x="170.66666666666666" y="469.3333333333333" width="42.666666666666664" height="42.666666666666664" rx="0" fill="hsl(118,50%,76%)"/><rect x="213.33333333333331" y="469.3333333333333" width="42.666666666666664" height="42.666666666666664" rx="0" fill="hsl(38,60%,56%)"/><rect x="256" y="469.3333333333333" width="42.666666666666664" height="42.666666666666664" rx="0" fill="hsl(38,60%,56%)"/><rect x="298.66666666666663" y="469.3333333333333" width="42.666666666666664" height="42.666666666666664" rx="6" fill="hsl(38,60%,56%)"/><rect x="341.3333333333333" y="469.3333333333333" width="42.666666666666664" height="42.666666666666664" rx="0" fill="hsl(258,60%,66%)"/><rect x="384" y="469.3333333333333" width="42.666666666666664" height="42.666666666666664" rx="0" fill="hsl(38,60%,56%)"/><rect x="426.66666666666663" y="469.3333333333333" width="42.666666666666664" height="42.666666666666664" rx="0" fill="hsl(258,60%,66%)"/><rect x="469.3333333333333" y="469.3333333333333" width="42.666666666666664" height="42.666666666666664" rx="0" fill="hsl(38,60%,56%)"/>
  </svg>