<svg xmlns="http://www.w3.org/2000/svg" width="512" height="512" viewBox="0 0 512 512">
  <defs>
    <filter id="gr"><feTurbulence type="fractalNoise" baseFrequency="0.035" numOctaves="1" result="n"/><feColorMatrix type="saturate" values="0.25"/></filter>
  </defs>
  <rect width="100%" height="100%" fill="white"/>
  <rect x="0" y="0" width="26.94736842105263" height="26.94736842105263" rx="0" fill="hsl(244,52%,68%)"/><rect x="26.94736842105263" y="0" width="26.94736842105263" height="26.94736842105263" rx="6" fill="hsl(244,52%,68%)"/><rect x="53.89473684210526" y="0" width="26.94736842105263" height="26.94736842105263" rx="0" fill="hsl(164,62%,48%)"/><rect x="80.84210526315789" y="0" width="26.94736842105263" height="26.94736842105263" rx="0" fill="hsl(244,52%,68%)"/><rect x="107.78947368421052" y="0" width="26.94736842105263" height="26.94736842105263" rx="0" fill="hsl(24,62%,58%)"/><rect x="134.73684210526315" y="0" width="26.94736842105263" height="26.94736842105263" rx="0" fill="hsl(24,62%,58%)"/><rect x="161.68421052631578" y="0" width="26.94736842105263" height="26.94736842105263" rx="0" fill="hsl(244,52%,68%)"/><rect x="188.6315789473684" y="0" width="26.94736842105263" height="26.94736842105263" rx="0" fill="hsl(24,62%,58%)"/><rect x="215.57894736842104" y="0" width="26.94736842105263" height="26.94736842105263" rx="0" fill="hsl(164,62%,48%)"/><rect x="242.52631578947367" y="0" width="26.94736842105263" height="26.94736842105263" rx="0" fill="hsl(244,52%,68%)"/><rect x="269.4736842105263" y="0" width="26.94736842105263" height="26.94736842105263" rx="0" fill="hsl(24,62%,58%)"/><rect x="296.42105263157896" y="0" width="26.94736842105263" height="26.94736842105263" rx="0" fill="hsl(244,52%,68%)"/><rect x="323.36842105263156" y="0" width="26.94736842105263" height="26.94736842105263" rx="0" fill="hsl(24,62%,58%)"/><rect x="350.31578947368416" y="0" width="26.94736842105263" height="26.94736842105263" rx="0" fill="hsl(244,52%,68%)"/><rect x="377.2631578947368" y="0" width="26.94736842105263" height="26.94736842105263" rx="0" fill="hsl(24,62%,58%)"/><rect x="404.2105263157895" y="0" width="26.94736842105263" height="26.94736842105263" rx="6" fill="hsl(24,62%,58%)"/><rect x="431.1578947368421" y="0" width="26.94736842105263" height="26.94736842105263" rx="0" fill="hsl(24,62%,58%)"/><rect x="458.1052631578947" y="0" width="26.94736842105263" height="26.94736842105263" rx="0" fill="hsl(24,62%,58%)"/><rect x="485.05263157894734" y="0" width="26.94736842105263" height="26.94736842105263" rx="0" fill="hsl(164,62%,48%)"/><rect x="0" y="26.94736842105263" width="26.94736842105263" height="26.94736842105263" rx="0" fill="hsl(24,62%,58%)"/><rect x="26.94736842105263" y="26.94736842105263" width="26.94736842105263" height="26.94736842105263" rx="0" fill="hsl(164,62%,48%)"/><rect x="53.89473684210526" y="26.94736842105263" width="26.94736842105263" height="26.94736842105263" rx="0" fill="hsl(164,62%,48%)"/><rect x="80.84210526315789" y="26.94736842105263" width="26.94736842105263" height="26.94736842105263" rx="0" fill="hsl(24,62%,58%)"/><rect x="107.78947368421052" y="26.94736842105263" width="26.94736842105263" height="26.94736842105263" rx="6" fill="hsl(164,62%,48%)"/><rect x="134.73684210526315" y="26.94736842105263" width="26.94736842105263" height="26.94736842105263" rx="0" fill="hsl(24,62%,58%)"/><rect x="161.68421052631578" y="26.94736842105263" width="26.94736842105263" height="26.94736842105263" rx="0" fill="hsl(164,62%,48%)"/><rect x="188.6315789473684" y="26.94736842105263" width="26.94736842105263" height="26.94736842105263" rx="6" fill="hsl(164,62%,48%)"/><rect x="215.57894736842104" y="26.94736842105263" width="26.94736842105263" height="26.94736842105263" rx="0" fill="hsl(244,52%,68%)"/><rect x="242.52631578947367" y="26.94736842105263" width="26.94736842105263" height="26.94736842105263" rx="0" fill="hsl(244,52%,68%)"/><rect x="269.4736842105263" y="26.94736842105263" width="26.94736842105263" height="26.94736842105263" rx="0" fill="hsl(24,62%,58%)"/><rect x="296.42105263157896" y="26.94736842105263" width="26.94736842105263" height="26.94736842105263" rx="0" fill="hsl(244,52%,68%)"/><rect x="323.36842105263156" y="26.94736842105263" width="26.94736842105263" height="26.94736842105263" rx="0" fill="hsl(24,62%,58%)"/><rect x="350.31578947368416" y="26.94736842105263" width="26.94736842105263" height="26.94736842105263" rx="0" fill="hsl(164,62%,48%)"/><rect x="377.2631578947368" y="26.94736842105263" width="26.94736842105263" height="26.94736842105263" rx="0" fill="hsl(244,52%,68%)"/><rect x="404.2105263157895" y="26.94736842105263" width="26.94736842105263" height="26.94736842105263" rx="0" fill="hsl(24,62%,58%)"/><rect x="431.1578947368421" y="26.94736842105263" width="26.94736842105263" height="26.94736842105263" rx="0" fill="hsl(244,52%,68%)"/><rect x="458.1052631578947" y="26.94736842105263" width="26.94736842105263" height="26.94736842105263" rx="0" fill="hsl(24,62%,58%)"/><rect x="485.05263157894734" y="26.94736842105263" width="26.94736842105263" height="26.94736842105263" rx="0" fill="hsl(24,62%,58%)"/><rect x="0" y="53.89473684210526" width="26.94736842105263" height="26.94736842105263" rx="6" fill="hsl(164,62%,48%)"/><rect x="26.94736842105263" y="53.89473684210526" width="26.94736842105263" height="26.94736842105263" rx="0" fill="hsl(244,52%,68%)"/><rect x="53.89473684210526" y="53.89473684210526" width="26.94736842105263" height="26.94736842105263" rx="0" fill="hsl(244,52%,68%)"/><rect x="80.84210526315789" y="53.89473684210526" width="26.94736842105263" height="26.94736842105263" rx="0" fill="hsl(244,52%,68%)"/><rect x="107.78947368421052" y="53.89473684210526" width="26.94736842105263" height="26.94736842105263" rx="0" fill="hsl(164,62%,48%)"/><rect x="134.73684210526315" y="53.89473684210526" width="26.94736842105263" height="26.94736842105263" rx="0" fill="hsl(24,62%,58%)"/><rect x="161.68421052631578" y="53.89473684210526" width="26.94736842105263" height="26.94736842105263" rx="0" fill="hsl(244,52%,68%)"/><rect x="188.6315789473684" y="53.89473684210526" width="26.94736842105263" height="26.94736842105263" rx="0" fill="hsl(244,52%,68%)"/><rect x="215.57894736842104" y="53.89473684210526" width="26.94736842105263" height="26.94736842105263" rx="0" fill="hsl(244,52%,68%)"/><rect x="242.52631578947367" y="53.89473684210526" width="26.94736842105263" height="26.94736842105263" rx="0" fill="hsl(24,62%,58%)"/><rect x="269.4736842105263" y="53.89473684210526" width="26.94736842105263" height="26.94736842105263" rx="0" fill="hsl(244,52%,68%)"/><rect x="296.42105263157896" y="53.89473684210526" width="26.94736842105263" height="26.94736842105263" rx="0" fill="hsl(164,62%,48%)"/><rect x="323.36842105263156" y="53.89473684210526" width="26.94736842105263" height="26.94736842105263" rx="0" fill="hsl(244,52%,68%)"/><rect x="350.31578947368416" y="53.89473684210526" width="26.94736842105263" height="26.94736842105263" rx="0" fill="hsl(24,62%,58%)"/><rect x="377.2631578947368" y="53.89473684210526" width="26.94736842105263" height="26.94736842105263" rx="0" fill="hsl(24,62%,58%)"/><rect x="404.2105263157895" y="53.89473684210526" width="26.94736842105263" height="26.94736842105263" rx="0" fill="hsl(24,62%,58%)"/><rect x="431.1578947368421" y="53.89473684210526" width="26.94736842105263" height="26.94736842105263" rx="0" fill="hsl(164,62%,48%)"/><rect x="458.1052631578947" y="53.89473684210526" width="26.94736842105263" height="26.94736842105263" rx="0" fill="hsl(244,52%,68%)"/><rect x="485.05263157894734" y="53.89473684210526" width="26.94736842105263" height="26.94736842105263" rx="0" fill="hsl(24,62%,58%)"/><rect x="0" y="80.84210526315789" width="26.94736842105263" height="26.94736842105263" rx="0" fill="hsl(24,62%,58%)"/><rect x="26.94736842105263" y="80.84210526315789" width="26.94736842105263" height="26.94736842105263" rx="0" fill="hsl(164,62%,48%)"/><rect x="53.89473684210526" y="80.84210526315789" width="26.94736842105263" height="26.94736842105263" rx="0" fill="hsl(164,62%,48%)"/><rect x="80.84210526315789" y="80.84210526315789" width="26.94736842105263" height="26.94736842105263" rx="0" fill="hsl(24,62%,58%)"/><rect x="107.78947368421052" y="80.84210526315789" width="26.94736842105263" height="26.94736842105263" rx="0" fill="hsl(164,62%,48%)"/><rect x="134.73684210526315" y="80.84210526315789" width="26.94736842105263" height="26.94736842105263" rx="0" fill="hsl(24,62%,58%)"/><rect x="161.68421052631578" y="80.84210526315789" width="26.94736842105263" height="26.94736842105263" rx="0" fill="hsl(244,52%,68%)"/><rect x="188.6315789473684" y="80.84210526315789" width="26.94736842105263" height="26.94736842105263" rx="6" fill="hsl(244,52%,68%)"/><rect x="215.57894736842104" y="80.84210526315789" width="26.94736842105263" height="26.94736842105263" rx="0" fill="hsl(24,62%,58%)"/><rect x="242.52631578947367" y="80.84210526315789" width="26.94736842105263" height="26.94736842105263" rx="6" fill="hsl(164,62%,48%)"/><rect x="269.4736842105263" y="80.84210526315789" width="26.94736842105263" height="26.94736842105263" rx="0" fill="hsl(164,62%,48%)"/><rect x="296.42105263157896" y="80.84210526315789" width="26.94736842105263" height="26.94736842105263" rx="0" fill="hsl(164,62%,48%)"/><rect x="323.36842105263156" y="80.84210526315789" width="26.94736842105263" height="26.94736842105263" rx="0" fill="hsl(164,62%,48%)"/><rect x="350.31578947368416" y="80.84210526315789" width="26.94736842105263" height="26.94736842105263" rx="0" fill="hsl(244,52%,68%)"/><rect x="377.2631578947368" y="80.84210526315789" width="26.94736842105263" height="26.94736842105263" rx="0" fill="hsl(244,52%,68%)"/><rect x="404.2105263157895" y="80.84210526315789" width="26.94736842105263" height="26.94736842105263" rx="0" fill="hsl(244,52%,68%)"/><rect x="431.1578947368421" y="80.84210526315789" width="26.94736842105263" height="26.94736842105263" rx="0" fill="hsl(164,62%,48%)"/><rect x="458.1052631578947" y="80.84210526315789" width="26.94736842105263" height="26.94736842105263" rx="0" fill="hsl(164,62%,48%)"/><rect x="485.05263157894734" y="80.84210526315789" width="26.94736842105263" height="26.94736842105263" rx="0" fill="hsl(164,62%,48%)"/><rect x="0" y="107.78947368421052" width="26.94736842105263" height="26.94736842105263" rx="0" fill="hsl(164,62%,48%)"/><rect x="26.94736842105263" y="107.78947368421052" width="26.94736842105263" height="26.94736842105263" rx="0" fill="hsl(164,62%,48%)"/><rect x="53.89473684210526" y="107.78947368421052" width="26.94736842105263" height="26.94736842105263" rx="0" fill="hsl(24,62%,58%)"/><rect x="80.84210526315789" y="107.78947368421052" width="26.94736842105263" height="26.94736842105263" rx="0" fill="hsl(24,62%,58%)"/><rect x="107.78947368421052" y="107.78947368421052" width="26.94736842105263" height="26.94736842105263" rx="0" fill="hsl(164,62%,48%)"/><rect x="134.73684210526315" y="107.78947368421052" width="26.94736842105263" height="26.94736842105263" rx="0" fill="hsl(24,62%,58%)"/><rect x="161.68421052631578" y="107.78947368421052" width="26.94736842105263" height="26.94736842105263" rx="0" fill="hsl(164,62%,48%)"/><rect x="188.6315789473684" y="107.78947368421052" width="26.94736842105263" height="26.94736842105263" rx="0" fill="hsl(244,52%,68%)"/><rect x="215.57894736842104" y="107.78947368421052" width="26.94736842105263" height="26.94736842105263" rx="0" fill="hsl(244,52%,68%)"/><rect x="242.52631578947367" y="107.78947368421052" width="26.94736842105263" height="26.94736842105263" rx="0" fill="hsl(24,62%,58%)"/><rect x="269.4736842105263" y="107.78947368421052" width="26.94736842105263" height="26.94736842105263" rx="0" fill="hsl(164,62%,48%)"/><rect x="296.42105263157896" y="107.78947368421052" width="26.94736842105263" height="26.94736842105263" rx="0" fill="hsl(244,52%,68%)"/><rect x="323.36842105263156" y="107.78947368421052" width="26.94736842105263" height="26.94736842105263" rx="0" fill="hsl(24,62%,58%)"/><rect x="350.31578947368416" y="107.78947368421052" width="26.94736842105263" height="26.94736842105263" rx="0" fill="hsl(244,52%,68%)"/><rect x="377.2631578947368" y="107.78947368421052" width="26.94736842105263" height="26.94736842105263" rx="0" fill="hsl(244,52%,68%)"/><rect x="404.2105263157895" y="107.78947368421052" width="26.94736842105263" height="26.94736842105263" rx="6" fill="hsl(244,52%,68%)"/><rect x="431.1578947368421" y="107.78947368421052" width="26.94736842105263" height="26.94736842105263" rx="0" fill="hsl(24,62%,58%)"/><rect x="458.1052631578947" y="107.78947368421052" width="26.94736842105263" height="26.94736842105263" rx="0" fill="hsl(164,62%,48%)"/><rect x="485.05263157894734" y="107.78947368421052" width="26.94736842105263" height="26.94736842105263" rx="0" fill="hsl(164,62%,48%)"/><rect x="0" y="134.73684210526315" width="26.94736842105263" height="26.94736842105263" rx="0" fill="hsl(244,52%,68%)"/><rect x="26.94736842105263" y="134.73684210526315" width="26.94736842105263" height="26.94736842105263" rx="0" fill="hsl(164,62%,48%)"/><rect x="53.89473684210526" y="134.73684210526315" width="26.94736842105263" height="26.94736842105263" rx="6" fill="hsl(244,52%,68%)"/><rect x="80.84210526315789" y="134.73684210526315" width="26.94736842105263" height="26.94736842105263" rx="0" fill="hsl(24,62%,58%)"/><rect x="107.78947368421052" y="134.73684210526315" width="26.94736842105263" height="26.94736842105263" rx="0" fill="hsl(244,52%,68%)"/><rect x="134.73684210526315" y="134.73684210526315" width="26.94736842105263" height="26.94736842105263" rx="0" fill="hsl(164,62%,48%)"/><rect x="161.68421052631578" y="134.73684210526315" width="26.94736842105263" height="26.94736842105263" rx="6" fill="hsl(164,62%,48%)"/><rect x="188.6315789473684" y="134.73684210526315" width="26.94736842105263" height="26.94736842105263" rx="0" fill="hsl(244,52%,68%)"/><rect x="215.57894736842104" y="134.73684210526315" width="26.94736842105263" height="26.94736842105263" rx="0" fill="hsl(164,62%,48%)"/><rect x="242.52631578947367" y="134.73684210526315" width="26.94736842105263" height="26.94736842105263" rx="0" fill="hsl(164,62%,48%)"/><rect x="269.4736842105263" y="134.73684210526315" width="26.94736842105263" height="26.94736842105263" rx="0" fill="hsl(244,52%,68%)"/><rect x="296.42105263157896" y="134.73684210526315" width="26.94736842105263" height="26.94736842105263" rx="0" fill="hsl(164,62%,48%)"/><rect x="323.36842105263156" y="134.73684210526315" width="26.94736842105263" height="26.94736842105263" rx="0" fill="hsl(164,62%,48%)"/><rect x="350.31578947368416" y="134.73684210526315" width="26.94736842105263" height="26.94736842105263" rx="0" fill="hsl(24,62%,58%)"/><rect x="377.2631578947368" y="134.73684210526315" width="26.94736842105263" height="26.94736842105263" rx="0" fill="hsl(164,62%,48%)"/><rect x="404.2105263157895" y="134.73684210526315" width="26.94736842105263" height="26.94736842105263" rx="0" fill="hsl(164,62%,48%)"/><rect x="431.1578947368421" y="134.73684210526315" width="26.94736842105263" height="26.94736842105263" rx="6" fill="hsl(244,52%,68%)"/><rect x="458.1052631578947" y="134.73684210526315" width="26.94736842105263" height="26.94736842105263" rx="0" fill="hsl(244,52%,68%)"/><rect x="485.05263157894734" y="134.73684210526315" width="26.94736842105263" height="26.94736842105263" rx="0" fill="hsl(164,62%,48%)"/><rect x="0" y="161.68421052631578" width="26.94736842105263" height="26.94736842105263" rx="0" fill="hsl(24,62%,58%)"/><rect x="26.94736842105263" y="161.68421052631578" width="26.94736842105263" height="26.94736842105263" rx="0" fill="hsl(24,62%,58%)"/><rect x="53.89473684210526" y="161.68421052631578" width="26.94736842105263" height="26.94736842105263" rx="0" fill="hsl(244,52%,68%)"/><rect x="80.84210526315789" y="161.68421052631578" width="26.94736842105263" height="26.94736842105263" rx="0" fill="hsl(244,52%,68%)"/><rect x="107.78947368421052" y="161.68421052631578" width="26.94736842105263" height="26.94736842105263" rx="0" fill="hsl(24,62%,58%)"/><rect x="134.73684210526315" y="161.68421052631578" width="26.94736842105263" height="26.94736842105263" rx="0" fill="hsl(244,52%,68%)"/><rect x="161.68421052631578" y="161.68421052631578" width="26.94736842105263" height="26.94736842105263" rx="0" fill="hsl(164,62%,48%)"/><rect x="188.6315789473684" y="161.68421052631578" width="26.94736842105263" height="26.94736842105263" rx="0" fill="hsl(164,62%,48%)"/><rect x="215.57894736842104" y="161.68421052631578" width="26.94736842105263" height="26.94736842105263" rx="0" fill="hsl(244,52%,68%)"/><rect x="242.52631578947367" y="161.68421052631578" width="26.94736842105263" height="26.94736842105263" rx="0" fill="hsl(244,52%,68%)"/><rect x="269.4736842105263" y="161.68421052631578" width="26.94736842105263" height="26.94736842105263" rx="0" fill="hsl(24,62%,58%)"/><rect x="296.42105263157896" y="161.68421052631578" width="26.94736842105263" height="26.94736842105263" rx="0" fill="hsl(24,62%,58%)"/><rect x="323.36842105263156" y="161.68421052631578" width="26.94736842105263" height="26.94736842105263" rx="0" fill="hsl(244,52%,68%)"/><rect x="350.31578947368416" y="161.68421052631578" width="26.94736842105263" height="26.94736842105263" rx="0" fill="hsl(24,62%,58%)"/><rect x="377.2631578947368" y="161.68421052631578" width="26.94736842105263" height="26.94736842105263" rx="0" fill="hsl(244,52%,68%)"/><rect x="404.2105263157895" y="161.68421052631578" width="26.94736842105263" height="26.94736842105263" rx="0" fill="hsl(24,62%,58%)"/><rect x="431.1578947368421" y="161.68421052631578" width="26.94736842105263" height="26.94736842105263" rx="0" fill="hsl(164,62%,48%)"/><rect x="458.1052631578947" y="161.68421052631578" width="26.94736842105263" height="26.94736842105263" rx="6" fill="hsl(164,62%,48%)"/><rect x="485.05263157894734" y="161.68421052631578" width="26.94736842105263" height="26.94736842105263" rx="0" fill="hsl(244,52%,68%)"/><rect x="0" y="188.6315789473684" width="26.94736842105263" height="26.94736842105263" rx="0" fill="hsl(244,52%,68%)"/><rect x="26.94736842105263" y="188.6315789473684" width="26.94736842105263" height="26.94736842105263" rx="0" fill="hsl(164,62%,48%)"/><rect x="53.89473684210526" y="188.6315789473684" width="26.94736842105263" height="26.94736842105263" rx="0" fill="hsl(164,62%,48%)"/><rect x="80.84210526315789" y="188.6315789473684" width="26.94736842105263" height="26.94736842105263" rx="0" fill="hsl(164,62%,48%)"/><rect x="107.78947368421052" y="188.6315789473684" width="26.94736842105263" height="26.94736842105263" rx="0" fill="hsl(164,62%,48%)"/><rect x="134.73684210526315" y="188.6315789473684" width="26.94736842105263" height="26.94736842105263" rx="0" fill="hsl(164,62%,48%)"/><rect x="161.68421052631578" y="188.6315789473684" width="26.94736842105263" height="26.94736842105263" rx="0" fill="hsl(164,62%,48%)"/><rect x="188.6315789473684" y="188.6315789473684" width="26.94736842105263" height="26.94736842105263" rx="0" fill="hsl(24,62%,58%)"/><rect x="215.57894736842104" y="188.6315789473684" width="26.94736842105263" height="26.94736842105263" rx="6" fill="hsl(164,62%,48%)"/><rect x="242.52631578947367" y="188.6315789473684" width="26.94736842105263" height="26.94736842105263" rx="0" fill="hsl(164,62%,48%)"/><rect x="269.4736842105263" y="188.6315789473684" width="26.94736842105263" height="26.94736842105263" rx="0" fill="hsl(244,52%,68%)"/><rect x="296.42105263157896" y="188.6315789473684" width="26.94736842105263" height="26.94736842105263" rx="0" fill="hsl(164,62%,48%)"/><rect x="323.36842105263156" y="188.6315789473684" width="26.94736842105263" height="26.94736842105263" rx="0" fill="hsl(244,52%,68%)"/><rect x="350.31578947368416" y="188.6315789473684" width="26.94736842105263" height="26.94736842105263" rx="0" fill="hsl(164,62%,48%)"/><rect x="377.2631578947368" y="188.6315789473684" width="26.94736842105263" height="26.94736842105263" rx="0" fill="hsl(244,52%,68%)"/><rect x="404.2105263157895" y="188.6315789473684" width="26.94736842105263" height="26.94736842105263" rx="0" fill="hsl(244,52%,68%)"/><rect x="431.1578947368421" y="188.6315789473684" width="26.94736842105263" height="26.94736842105263" rx="0" fill="hsl(164,62%,48%)"/><rect x="458.1052631578947" y="188.6315789473684" width="26.94736842105263" height="26.94736842105263" rx="0" fill="hsl(24,62%,58%)"/><rect x="485.05263157894734" y="188.6315789473684" width="26.94736842105263" height="26.94736842105263" rx="0" fill="hsl(24,62%,58%)"/><rect x="0" y="215.57894736842104" width="26.94736842105263" height="26.94736842105263" rx="0" fill="hsl(164,62%,48%)"/><rect x="26.94736842105263" y="215.57894736842104" width="26.94736842105263" height="26.94736842105263" rx="0" fill="hsl(164,62%,48%)"/><rect x="53.89473684210526" y="215.57894736842104" width="26.94736842105263" height="26.94736842105263" rx="0" fill="hsl(164,62%,48%)"/><rect x="80.84210526315789" y="215.57894736842104" width="26.94736842105263" height="26.94736842105263" rx="0" fill="hsl(164,62%,48%)"/><rect x="107.78947368421052" y="215.57894736842104" width="26.94736842105263" height="26.94736842105263" rx="0" fill="hsl(244,52%,68%)"/><rect x="134.73684210526315" y="215.57894736842104" width="26.94736842105263" height="26.94736842105263" rx="0" fill="hsl(244,52%,68%)"/><rect x="161.68421052631578" y="215.57894736842104" width="26.94736842105263" height="26.94736842105263" rx="6" fill="hsl(24,62%,58%)"/><rect x="188.6315789473684" y="215.57894736842104" width="26.94736842105263" height="26.94736842105263" rx="0" fill="hsl(244,52%,68%)"/><rect x="215.57894736842104" y="215.57894736842104" width="26.94736842105263" height="26.94736842105263" rx="0" fill="hsl(164,62%,48%)"/><rect x="242.52631578947367" y="215.57894736842104" width="26.94736842105263" height="26.94736842105263" rx="0" fill="hsl(24,62%,58%)"/><rect x="269.4736842105263" y="215.57894736842104" width="26.94736842105263" height="26.94736842105263" rx="0" fill="hsl(24,62%,58%)"/><rect x="296.42105263157896" y="215.57894736842104" width="26.94736842105263" height="26.94736842105263" rx="0" fill="hsl(24,62%,58%)"/><rect x="323.36842105263156" y="215.57894736842104" width="26.94736842105263" height="26.94736842105263" rx="0" fill="hsl(244,52%,68%)"/><rect x="350.31578947368416" y="215.57894736842104" width="26.94736842105263" height="26.94736842105263" rx="0" fill="hsl(24,62%,58%)"/><rect x="377.2631578947368" y="215.57894736842104" width="26.94736842105263" height="26.94736842105263" rx="0" fill="hsl(244,52%,68%)"/><rect x="404.2105263157895" y="215.57894736842104" width="26.94736842105263" height="26.94736842105263" rx="0" fill="hsl(24,62%,58%)"/><rect x="431.1578947368421" y="215.57894736842104" width="26.94736842105263" height="26.94736842105263" rx="0" fill="hsl(164,62%,48%)"/><rect x="458.1052631578947" y="215.57894736842104" width="26.94736842105263" height="26.94736842105263" rx="0" fill="hsl(164,62%,48%)"/><rect x="485.05263157894734" y="215.57894736842104" width="26.94736842105263" height="26.94736842105263" rx="0" fill="hsl(244,52%,68%)"/><rect x="0" y="242.52631578947367" width="26.94736842105263" height="26.94736842105263" rx="0" fill="hsl(24,62%,58%)"/><rect x="26.94736842105263" y="242.52631578947367" width="26.94736842105263" height="26.94736842105263" rx="0" fill="hsl(244,52%,68%)"/><rect x="53.89473684210526" y="242.52631578947367" width="26.94736842105263" height="26.94736842105263" rx="0" fill="hsl(24,62%,58%)"/><rect x="80.84210526315789" y="242.52631578947367" width="26.94736842105263" height="26.94736842105263" rx="0" fill="hsl(24,62%,58%)"/><rect x="107.78947368421052" y="242.52631578947367" width="26.94736842105263" height="26.94736842105263" rx="0" fill="hsl(244,52%,68%)"/><rect x="134.73684210526315" y="242.52631578947367" width="26.94736842105263" height="26.94736842105263" rx="0" fill="hsl(24,62%,58%)"/><rect x="161.68421052631578" y="242.52631578947367" width="26.94736842105263" height="26.94736842105263" rx="0" fill="hsl(244,52%,68%)"/><rect x="188.6315789473684" y="242.52631578947367" width="26.94736842105263" height="26.94736842105263" rx="0" fill="hsl(24,62%,58%)"/><rect x="215.57894736842104" y="242.52631578947367" width="26.94736842105263" height="26.94736842105263" rx="0" fill="hsl(244,52%,68%)"/><rect x="242.52631578947367" y="242.52631578947367" width="26.94736842105263" height="26.94736842105263" rx="0" fill="hsl(164,62%,48%)"/><rect x="269.4736842105263" y="242.52631578947367" width="26.94736842105263" height="26.94736842105263" rx="0" fill="hsl(244,52%,68%)"/><rect x="296.42105263157896" y="242.52631578947367" width="26.94736842105263" height="26.94736842105263" rx="0" fill="hsl(24,62%,58%)"/><rect x="323.36842105263156" y="242.52631578947367" width="26.94736842105263" height="26.94736842105263" rx="6" fill="hsl(164,62%,48%)"/><rect x="350.31578947368416" y="242.52631578947367" width="26.94736842105263" height="26.94736842105263" rx="6" fill="hsl(244,52%,68%)"/><rect x="377.2631578947368" y="242.52631578947367" width="26.94736842105263" height="26.94736842105263" rx="6" fill="hsl(164,62%,48%)"/><rect x="404.2105263157895" y="242.52631578947367" width="26.94736842105263" height="26.94736842105263" rx="0" fill="hsl(244,52%,68%)"/><rect x="431.1578947368421" y="242.52631578947367" width="26.94736842105263" height="26.94736842105263" rx="0" fill="hsl(164,62%,48%)"/><rect x="458.1052631578947" y="242.52631578947367" width="26.94736842105263" height="26.94736842105263" rx="0" fill="hsl(164,62%,48%)"/><rect x="485.05263157894734" y="242.52631578947367" width="26.94736842105263" height="26.94736842105263" rx="0" fill="hsl(244,52%,68%)"/><rect x="0" y="269.4736842105263" width="26.94736842105263" height="26.94736842105263" rx="0" fill="hsl(164,62%,48%)"/><rect x="26.94736842105263" y="269.4736842105263" width="26.94736842105263" height="26.94736842105263" rx="0" fill="hsl(24,62%,58%)"/><rect x="53.89473684210526" y="269.4736842105263" width="26.94736842105263" height="26.94736842105263" rx="0" fill="hsl(244,52%,68%)"/><rect x="80.84210526315789" y="269.4736842105263" width="26.94736842105263" height="26.94736842105263" rx="0" fill="hsl(244,52%,68%)"/><rect x="107.78947368421052" y="269.4736842105263" width="26.94736842105263" height="26.94736842105263" rx="0" fill="hsl(244,52%,68%)"/><rect x="134.73684210526315" y="269.4736842105263" width="26.94736842105263" height="26.94736842105263" rx="0" fill="hsl(164,62%,48%)"/><rect x="161.68421052631578" y="269.4736842105263" width="26.94736842105263" height="26.94736842105263" rx="0" fill="hsl(24,62%,58%)"/><rect x="188.6315789473684" y="269.4736842105263" width="26.94736842105263" height="26.94736842105263" rx="0" fill="hsl(164,62%,48%)"/><rect x="215.57894736842104" y="269.4736842105263" width="26.94736842105263" height="26.94736842105263" rx="0" fill="hsl(244,52%,68%)"/><rect x="242.52631578947367" y="269.4736842105263" width="26.94736842105263" height="26.94736842105263" rx="0" fill="hsl(244,52%,68%)"/><rect x="269.4736842105263" y="269.4736842105263" width="26.94736842105263" height="26.94736842105263" rx="0" fill="hsl(24,62%,58%)"/><rect x="296.42105263157896" y="269.4736842105263" width="26.94736842105263" height="26.94736842105263" rx="0" fill="hsl(24,62%,58%)"/><rect x="323.36842105263156" y="269.4736842105263" width="26.94736842105263" height="26.94736842105263" rx="0" fill="hsl(24,62%,58%)"/><rect x="350.31578947368416" y="269.4736842105263" width="26.94736842105263" height="26.94736842105263" rx="0" fill="hsl(244,52%,68%)"/><rect x="377.2631578947368" y="269.4736842105263" width="26.94736842105263" height="26.94736842105263" rx="0" fill="hsl(164,62%,48%)"/><rect x="404.2105263157895" y="269.4736842105263" width="26.94736842105263" height="26.94736842105263" rx="6" fill="hsl(164,62%,48%)"/><rect x="431.1578947368421" y="269.4736842105263" width="26.94736842105263" height="26.94736842105263" rx="0" fill="hsl(164,62%,48%)"/><rect x="458.1052631578947" y="269.4736842105263" width="26.94736842105263" height="26.94736842105263" rx="0" fill="hsl(24,62%,58%)"/><rect x="485.05263157894734" y="269.4736842105263" width="26.94736842105263" height="26.94736842105263" rx="0" fill="hsl(164,62%,48%)"/><rect x="0" y="296.42105263157896" width="26.94736842105263" height="26.94736842105263" rx="0" fill="hsl(164,62%,48%)"/><rect x="26.94736842105263" y="296.42105263157896" width="26.94736842105263" height="26.94736842105263" rx="0" fill="hsl(164,62%,48%)"/><rect x="53.89473684210526" y="296.42105263157896" width="26.94736842105263" height="26.94736842105263" rx="0" fill="hsl(244,52%,68%)"/><rect x="80.84210526315789" y="296.42105263157896" width="26.94736842105263" height="26.94736842105263" rx="0" fill="hsl(164,62%,48%)"/><rect x="107.78947368421052" y="296.42105263157896" width="26.94736842105263" height="26.94736842105263" rx="6" fill="hsl(244,52%,68%)"/><rect x="134.73684210526315" y="296.42105263157896" width="26.94736842105263" height="26.94736842105263" rx="0" fill="hsl(24,62%,58%)"/><rect x="161.68421052631578" y="296.42105263157896" width="26.94736842105263" height="26.94736842105263" rx="0" fill="hsl(164,62%,48%)"/><rect x="188.6315789473684" y="296.42105263157896" width="26.94736842105263" height="26.94736842105263" rx="0" fill="hsl(24,62%,58%)"/><rect x="215.57894736842104" y="296.42105263157896" width="26.94736842105263" height="26.94736842105263" rx="6" fill="hsl(24,62%,58%)"/><rect x="242.52631578947367" y="296.42105263157896" width="26.94736842105263" height="26.94736842105263" rx="0" fill="hsl(244,52%,68%)"/><rect x="269.4736842105263" y="296.42105263157896" width="26.94736842105263" height="26.94736842105263" rx="0" fill="hsl(24,62%,58%)"/><rect x="296.42105263157896" y="296.42105263157896" width="26.94736842105263" height="26.94736842105263" rx="0" fill="hsl(244,52%,68%)"/><rect x="323.36842105263156" y="296.42105263157896" width="26.94736842105263" height="26.94736842105263" rx="0" fill="hsl(244,52%,68%)"/><rect x="350.31578947368416" y="296.42105263157896" width="26.94736842105263" height="26.94736842105263" rx="0" fill="hsl(24,62%,58%)"/><rect x="377.2631578947368" y="296.42105263157896" width="26.94736842105263" height="26.94736842105263" rx="0" fill="hsl(164,62%,48%)"/><rect x="404.2105263157895" y="296.42105263157896" width="26.94736842105263" height="26.94736842105263" rx="0" fill="hsl(244,52%,68%)"/><rect x="431.1578947368421" y="296.42105263157896" width="26.94736842105263" height="26.94736842105263" rx="0" fill="hsl(244,52%,68%)"/><rect x="458.1052631578947" y="296.42105263157896" width="26.94736842105263" height="26.94736842105263" rx="0" fill="hsl(24,62%,58%)"/><rect x="485.05263157894734" y="296.42105263157896" width="26.94736842105263" height="26.94736842105263" rx="0" fill="hsl(244,52%,68%)"/><rect x="0" y="323.36842105263156" width="26.94736842105263" height="26.94736842105263" rx="0" fill="hsl(164,62%,48%)"/><rect x="26.94736842105263" y="323.36842105263156" width="26.94736842105263" height="26.94736842105263" rx="0" fill="hsl(244,52%,68%)"/><rect x="53.89473684210526" y="323.36842105263156" width="26.94736842105263" height="26.94736842105263" rx="0" fill="hsl(244,52%,68%)"/><rect x="80.84210526315789" y="323.36842105263156" width="26.94736842105263" height="26.94736842105263" rx="0" fill="hsl(24,62%,58%)"/><rect x="107.78947368421052" y="323.36842105263156" width="26.94736842105263" height="26.94736842105263" rx="0" fill="hsl(24,62%,58%)"/><rect x="134.73684210526315" y="323.36842105263156" width="26.94736842105263" height="26.94736842105263" rx="0" fill="hsl(24,62%,58%)"/><rect x="161.68421052631578" y="323.36842105263156" width="26.94736842105263" height="26.94736842105263" rx="0" fill="hsl(164,62%,48%)"/><rect x="188.6315789473684" y="323.36842105263156" width="26.94736842105263" height="26.94736842105263" rx="0" fill="hsl(164,62%,48%)"/><rect x="215.57894736842104" y="323.36842105263156" width="26.94736842105263" height="26.94736842105263" rx="0" fill="hsl(24,62%,58%)"/><rect x="242.52631578947367" y="323.36842105263156" width="26.94736842105263" height="26.94736842105263" rx="0" fill="hsl(244,52%,68%)"/><rect x="269.4736842105263" y="323.36842105263156" width="26.94736842105263" height="26.94736842105263" rx="0" fill="hsl(244,52%,68%)"/><rect x="296.42105263157896" y="323.36842105263156" width="26.94736842105263" height="26.94736842105263" rx="0" fill="hsl(164,62%,48%)"/><rect x="323.36842105263156" y="323.36842105263156" width="26.94736842105263" height="26.94736842105263" rx="0" fill="hsl(244,52%,68%)"/><rect x="350.31578947368416" y="323.36842105263156" width="26.94736842105263" height="26.94736842105263" rx="6" fill="hsl(244,52%,68%)"/><rect x="377.2631578947368" y="323.36842105263156" width="26.94736842105263" height="26.94736842105263" rx="0" fill="hsl(244,52%,68%)"/><rect x="404.2105263157895" y="323.36842105263156" width="26.94736842105263" height="26.94736842105263" rx="0" fill="hsl(24,62%,58%)"/><rect x="431.1578947368421" y="323.36842105263156" width="26.94736842105263" height="26.94736842105263" rx="0" fill="hsl(24,62%,58%)"/><rect x="458.1052631578947" y="323.36842105263156" width="26.94736842105263" height="26.94736842105263" rx="0" fill="hsl(24,62%,58%)"/><rect x="485.05263157894734" y="323.36842105263156" width="26.94736842105263" height="26.94736842105263" rx="0" fill="hsl(24,62%,58%)"/><rect x="0" y="350.31578947368416" width="26.94736842105263" height="26.94736842105263" rx="6" fill="hsl(164,62%,48%)"/><rect x="26.94736842105263" y="350.31578947368416" width="26.94736842105263" height="26.94736842105263" rx="0" fill="hsl(24,62%,58%)"/><rect x="53.89473684210526" y="350.31578947368416" width="26.94736842105263" height="26.94736842105263" rx="0" fill="hsl(244,52%,68%)"/><rect x="80.84210526315789" y="350.31578947368416" width="26.94736842105263" height="26.94736842105263" rx="0" fill="hsl(24,62%,58%)"/><rect x="107.78947368421052" y="350.31578947368416" width="26.94736842105263" height="26.94736842105263" rx="0" fill="hsl(24,62%,58%)"/><rect x="134.73684210526315" y="350.31578947368416" width="26.94736842105263" height="26.94736842105263" rx="0" fill="hsl(24,62%,58%)"/><rect x="161.68421052631578" y="350.31578947368416" width="26.94736842105263" height="26.94736842105263" rx="0" fill="hsl(164,62%,48%)"/><rect x="188.6315789473684" y="350.31578947368416" width="26.94736842105263" height="26.94736842105263" rx="0" fill="hsl(24,62%,58%)"/><rect x="215.57894736842104" y="350.31578947368416" width="26.94736842105263" height="26.94736842105263" rx="0" fill="hsl(24,62%,58%)"/><rect x="242.52631578947367" y="350.31578947368416" width="26.94736842105263" height="26.94736842105263" rx="0" fill="hsl(164,62%,48%)"/><rect x="269.4736842105263" y="350.31578947368416" width="26.94736842105263" height="26.94736842105263" rx="0" fill="hsl(244,52%,68%)"/><rect x="296.42105263157896" y="350.31578947368416" width="26.94736842105263" height="26.94736842105263" rx="0" fill="hsl(24,62%,58%)"/><rect x="323.36842105263156" y="350.31578947368416" width="26.94736842105263" height="26.94736842105263" rx="0" fill="hsl(244,52%,68%)"/><rect x="350.31578947368416" y="350.31578947368416" width="26.94736842105263" height="26.94736842105263" rx="0" fill="hsl(164,62%,48%)"/><rect x="377.2631578947368" y="350.31578947368416" width="26.94736842105263" height="26.94736842105263" rx="0" fill="hsl(164,62%,48%)"/><rect x="404.2105263157895" y="350.31578947368416" width="26.94736842105263" height="26.94736842105263" rx="0" fill="hsl(244,52%,68%)"/><rect x="431.1578947368421" y="350.31578947368416" width="26.94736842105263" height="26.94736842105263" rx="0" fill="hsl(164,62%,48%)"/><rect x="458.1052631578947" y="350.31578947368416" width="26.94736842105263" height="26.94736842105263" rx="0" fill="hsl(164,62%,48%)"/><rect x="485.05263157894734" y="350.31578947368416" width="26.94736842105263" height="26.94736842105263" rx="0" fill="hsl(24,62%,58%)"/><rect x="0" y="377.2631578947368" width="26.94736842105263" height="26.94736842105263" rx="6" fill="hsl(24,62%,58%)"/><rect x="26.94736842105263" y="377.2631578947368" width="26.94736842105263" height="26.94736842105263" rx="0" fill="hsl(24,62%,58%)"/><rect x="53.89473684210526" y="377.2631578947368" width="26.94736842105263" height="26.94736842105263" rx="0" fill="hsl(24,62%,58%)"/><rect x="80.84210526315789" y="377.2631578947368" width="26.94736842105263" height="26.94736842105263" rx="0" fill="hsl(244,52%,68%)"/><rect x="107.78947368421052" y="377.2631578947368" width="26.94736842105263" height="26.94736842105263" rx="0" fill="hsl(164,62%,48%)"/><rect x="134.73684210526315" y="377.2631578947368" width="26.94736842105263" height="26.94736842105263" rx="0" fill="hsl(24,62%,58%)"/><rect x="161.68421052631578" y="377.2631578947368" width="26.94736842105263" height="26.94736842105263" rx="0" fill="hsl(244,52%,68%)"/><rect x="188.6315789473684" y="377.2631578947368" width="26.94736842105263" height="26.94736842105263" rx="0" fill="hsl(164,62%,48%)"/><rect x="215.57894736842104" y="377.2631578947368" width="26.94736842105263" height="26.94736842105263" rx="0" fill="hsl(24,62%,58%)"/><rect x="242.52631578947367" y="377.2631578947368" width="26.94736842105263" height="26.94736842105263" rx="0" fill="hsl(244,52%,68%)"/><rect x="269.4736842105263" y="377.2631578947368" width="26.94736842105263" height="26.94736842105263" rx="0" fill="hsl(164,62%,48%)"/><rect x="296.42105263157896" y="377.2631578947368" width="26.94736842105263" height="26.94736842105263" rx="0" fill="hsl(24,62%,58%)"/><rect x="323.36842105263156" y="377.2631578947368" width="26.94736842105263" height="26.94736842105263" rx="0" fill="hsl(24,62%,58%)"/><rect x="350.31578947368416" y="377.2631578947368" width="26.94736842105263" height="26.94736842105263" rx="0" fill="hsl(164,62%,48%)"/><rect x="377.2631578947368" y="377.2631578947368" width="26.94736842105263" height="26.94736842105263" rx="0" fill="hsl(24,62%,58%)"/><rect x="404.2105263157895" y="377.2631578947368" width="26.94736842105263" height="26.94736842105263" rx="0" fill="hsl(244,52%,68%)"/><rect x="431.1578947368421" y="377.2631578947368" width="26.94736842105263" height="26.94736842105263" rx="6" fill="hsl(244,52%,68%)"/><rect x="458.1052631578947" y="377.2631578947368" width="26.94736842105263" height="26.94736842105263" rx="0" fill="hsl(24,62%,58%)"/><rect x="485.05263157894734" y="377.2631578947368" width="26.94736842105263" height="26.94736842105263" rx="0" fill="hsl(24,62%,58%)"/><rect x="0" y="404.2105263157895" width="26.94736842105263" height="26.94736842105263" rx="6" fill="hsl(24,62%,58%)"/><rect x="26.94736842105263" y="404.2105263157895" width="26.94736842105263" height="26.94736842105263" rx="6" fill="hsl(24,62%,58%)"/><rect x="53.89473684210526" y="404.2105263157895" width="26.94736842105263" height="26.94736842105263" rx="0" fill="hsl(164,62%,48%)"/><rect x="80.84210526315789" y="404.2105263157895" width="26.94736842105263" height="26.94736842105263" rx="0" fill="hsl(244,52%,68%)"/><rect x="107.78947368421052" y="404.2105263157895" width="26.94736842105263" height="26.94736842105263" rx="0" fill="hsl(24,62%,58%)"/><rect x="134.73684210526315" y="404.2105263157895" width="26.94736842105263" height="26.94736842105263" rx="0" fill="hsl(24,62%,58%)"/><rect x="161.68421052631578" y="404.2105263157895" width="26.94736842105263" height="26.94736842105263" rx="0" fill="hsl(244,52%,68%)"/><rect x="188.6315789473684" y="404.2105263157895" width="26.94736842105263" height="26.94736842105263" rx="0" fill="hsl(24,62%,58%)"/><rect x="215.57894736842104" y="404.2105263157895" width="26.94736842105263" height="26.94736842105263" rx="6" fill="hsl(164,62%,48%)"/><rect x="242.52631578947367" y="404.2105263157895" width="26.94736842105263" height="26.94736842105263" rx="0" fill="hsl(24,62%,58%)"/><rect x="269.4736842105263" y="404.2105263157895" width="26.94736842105263" height="26.94736842105263" rx="0" fill="hsl(24,62%,58%)"/><rect x="296.42105263157896" y="404.2105263157895" width="26.94736842105263" height="26.94736842105263" rx="6" fill="hsl(244,52%,68%)"/><rect x="323.36842105263156" y="404.2105263157895" width="26.94736842105263" height="26.94736842105263" rx="0" fill="hsl(24,62%,58%)"/><rect x="350.31578947368416" y="404.2105263157895" width="26.94736842105263" height="26.94736842105263" rx="0" fill="hsl(164,62%,48%)"/><rect x="377.2631578947368" y="404.2105263157895" width="26.94736842105263" height="26.94736842105263" rx="0" fill="hsl(164,62%,48%)"/><rect x="404.2105263157895" y="404.2105263157895" width="26.94736842105263" height="26.94736842105263" rx="0" fill="hsl(244,52%,68%)"/><rect x="431.1578947368421" y="404.2105263157895" width="26.94736842105263" height="26.94736842105263" rx="0" fill="hsl(164,62%,48%)"/><rect x="458.1052631578947" y="404.2105263157895" width="26.94736842105263" height="26.94736842105263" rx="0" fill="hsl(164,62%,48%)"/><rect x="485.05263157894734" y="404.2105263157895" width="26.94736842105263" height="26.94736842105263" rx="0" fill="hsl(244,52%,68%)"/><rect x="0" y="431.1578947368421" width="26.94736842105263" height="26.94736842105263" rx="0" fill="hsl(164,62%,48%)"/><rect x="26.94736842105263" y="431.1578947368421" width="26.94736842105263" height="26.94736842105263" rx="6" fill="hsl(244,52%,68%)"/><rect x="53.89473684210526" y="431.1578947368421" width="26.94736842105263" height="26.94736842105263" rx="0" fill="hsl(24,62%,58%)"/><rect x="80.84210526315789" y="431.1578947368421" width="26.94736842105263" height="26.94736842105263" rx="0" fill="hsl(164,62%,48%)"/><rect x="107.78947368421052" y="431.1578947368421" width="26.94736842105263" height="26.94736842105263" rx="0" fill="hsl(164,62%,48%)"/><rect x="134.73684210526315" y="431.1578947368421" width="26.94736842105263" height="26.94736842105263" rx="0" fill="hsl(24,62%,58%)"/><rect x="161.68421052631578" y="431.1578947368421" width="26.94736842105263" height="26.94736842105263" rx="0" fill="hsl(164,62%,48%)"/><rect x="188.6315789473684" y="431.1578947368421" width="26.94736842105263" height="26.94736842105263" rx="0" fill="hsl(24,62%,58%)"/><rect x="215.57894736842104" y="431.1578947368421" width="26.94736842105263" height="26.94736842105263" rx="0" fill="hsl(164,62%,48%)"/><rect x="242.52631578947367" y="431.1578947368421" width="26.94736842105263" height="26.94736842105263" rx="0" fill="hsl(244,52%,68%)"/><rect x="269.4736842105263" y="431.1578947368421" width="26.94736842105263" height="26.94736842105263" rx="0" fill="hsl(164,62%,48%)"/><rect x="296.42105263157896" y="431.1578947368421" width="26.94736842105263" height="26.94736842105263" rx="0" fill="hsl(164,62%,48%)"/><rect x="323.36842105263156" y="431.1578947368421" width="26.94736842105263" height="26.94736842105263" rx="0" fill="hsl(24,62%,58%)"/><rect x="350.31578947368416" y="431.1578947368421" width="26.94736842105263" height="26.94736842105263" rx="0" fill="hsl(244,52%,68%)"/><rect x="377.2631578947368" y="431.1578947368421" width="26.94736842105263" height="26.94736842105263" rx="0" fill="hsl(244,52%,68%)"/><rect x="404.2105263157895" y="431.1578947368421" width="26.94736842105263" height="26.94736842105263" rx="0" fill="hsl(244,52%,68%)"/><rect x="431.1578947368421" y="431.1578947368421" width="26.94736842105263" height="26.94736842105263" rx="0" fill="hsl(244,52%,68%)"/><rect x="458.1052631578947" y="431.1578947368421" width="26.94736842105263" height="26.94736842105263" rx="0" fill="hsl(24,62%,58%)"/><rect x="485.05263157894734" y="431.1578947368421" width="26.94736842105263" height="26.94736842105263" rx="0" fill="hsl(164,62%,48%)"/><rect x="0" y="458.1052631578947" width="26.94736842105263" height="26.94736842105263" rx="6" fill="hsl(164,62%,48%)"/><rect x="26.94736842105263" y="458.1052631578947" width="26.94736842105263" height="26.94736842105263" rx="0" fill="hsl(164,62%,48%)"/><rect x="53.89473684210526" y="458.1052631578947" width="26.94736842105263" height="26.94736842105263" rx="0" fill="hsl(164,62%,48%)"/><rect x="80.84210526315789" y="458.1052631578947" width="26.94736842105263" height="26.94736842105263" rx="0" fill="hsl(244,52%,68%)"/><rect x="107.78947368421052" y="458.1052631578947" width="26.94736842105263" height="26.94736842105263" rx="6" fill="hsl(164,62%,48%)"/><rect x="134.73684210526315" y="458.1052631578947" width="26.94736842105263" height="26.94736842105263" rx="0" fill="hsl(24,62%,58%)"/><rect x="161.68421052631578" y="458.1052631578947" width="26.94736842105263" height="26.94736842105263" rx="0" fill="hsl(24,62%,58%)"/><rect x="188.6315789473684" y="458.1052631578947" width="26.94736842105263" height="26.94736842105263" rx="0" fill="hsl(24,62%,58%)"/><rect x="215.57894736842104" y="458.1052631578947" width="26.94736842105263" height="26.94736842105263" rx="0" fill="hsl(24,62%,58%)"/><rect x="242.52631578947367" y="458.1052631578947" width="26.94736842105263" height="26.94736842105263" rx="0" fill="hsl(244,52%,68%)"/><rect x="269.4736842105263" y="458.1052631578947" width="26.94736842105263" height="26.94736842105263" rx="0" fill="hsl(244,52%,68%)"/><rect x="296.42105263157896" y="458.1052631578947" width="26.94736842105263" height="26.94736842105263" rx="6" fill="hsl(164,62%,48%)"/><rect x="323.36842105263156" y="458.1052631578947" width="26.94736842105263" height="26.94736842105263" rx="0" fill="hsl(164,62%,48%)"/><rect x="350.31578947368416" y="458.1052631578947" width="26.94736842105263" height="26.94736842105263" rx="6" fill="hsl(24,62%,58%)"/><rect x="377.2631578947368" y="458.1052631578947" width="26.94736842105263" height="26.94736842105263" rx="0" fill="hsl(244,52%,68%)"/><rect x="404.2105263157895" y="458.1052631578947" width="26.94736842105263" height="26.94736842105263" rx="0" fill="hsl(24,62%,58%)"/><rect x="431.1578947368421" y="458.1052631578947" width="26.94736842105263" height="26.94736842105263" rx="6" fill="hsl(164,62%,48%)"/><rect x="458.1052631578947" y="458.1052631578947" width="26.94736842105263" height="26.94736842105263" rx="6" fill="hsl(244,52%,68%)"/><rect x="485.05263157894734" y="458.1052631578947" width="26.94736842105263" height="26.94736842105263" rx="0" fill="hsl(164,62%,48%)"/><rect x="0" y="485.05263157894734" width="26.94736842105263" height="26.94736842105263" rx="0" fill="hsl(244,52%,68%)"/><rect x="26.94736842105263" y="485.05263157894734" width="26.94736842105263" height="26.94736842105263" rx="0" fill="hsl(244,52%,68%)"/><rect x="53.89473684210526" y="485.05263157894734" width="26.94736842105263" height="26.94736842105263" rx="0" fill="hsl(24,62%,58%)"/><rect x="80.84210526315789" y="485.05263157894734" width="26.94736842105263" height="26.94736842105263" rx="0" fill="hsl(24,62%,58%)"/><rect x="107.78947368421052" y="485.05263157894734" width="26.94736842105263" height="26.94736842105263" rx="0" fill="hsl(164,62%,48%)"/><rect x="134.73684210526315" y="485.05263157894734" width="26.94736842105263" height="26.94736842105263" rx="6" fill="hsl(244,52%,68%)"/><rect x="161.68421052631578" y="485.05263157894734" width="26.94736842105263" height="26.94736842105263" rx="0" fill="hsl(24,62%,58%)"/><rect x="188.6315789473684" y="485.05263157894734" width="26.94736842105263" height="26.94736842105263" rx="0" fill="hsl(24,62%,58%)"/><rect x="215.57894736842104" y="485.05263157894734" width="26.94736842105263" height="26.94736842105263" rx="0" fill="hsl(24,62%,58%)"/><rect x="242.52631578947367" y="485.05263157894734" width="26.94736842105263" height="26.94736842105263" rx="0" fill="hsl(244,52%,68%)"/><rect x="269.4736842105263" y="485.05263157894734" width="26.94736842105263" height="26.94736842105263" rx="0" fill="hsl(164,62%,48%)"/><rect x="296.42105263157896" y="485.05263157894734" width="26.94736842105263" height="26.94736842105263" rx="0" fill="hsl(24,62%,58%)"/><rect x="323.36842105263156" y="485.05263157894734" width="26.94736842105263" height="26.94736842105263" rx="0" fill="hsl(244,52%,68%)"/><rect x="350.31578947368416" y="485.05263157894734" width="26.94736842105263" height="26.94736842105263" rx="0" fill="hsl(244,52%,68%)"/><rect x="377.2631578947368" y="485.05263157894734" width="26.94736842105263" height="26.94736842105263" rx="0" fill="hsl(24,62%,58%)"/><rect x="404.2105263157895" y="485.05263157894734" width="26.94736842105263" height="26.94736842105263" rx="0" fill="hsl(244,52%,68%)"/><rect x="431.1578947368421" y="485.05263157894734" width="26.94736842105263" height="26.94736842105263" rx="0" fill="hsl(24,62%,58%)"/><rect x="458.1052631578947" y="485.05263157894734" width="26.94736842105263" height="26.94736842105263" rx="0" fill="hsl(164,62%,48%)"/><rect x="485.05263157894734" y="485.05263157894734" width="26.94736842105263" height="26.94736842105263" rx="0" fill="hsl(24,62%,58%)"/>
  </svg>