<svg xmlns="http://www.w3.org/2000/svg" width="512" height="512" viewBox="0 0 512 512">
  <defs>
    <filter id="gr"><feTurbulence type="fractalNoise" baseFrequency="0.14" numOctaves="1" result="n"/><feColorMatrix type="saturate" values="0.25"/></filter>
  </defs>
  <rect width="100%" height="100%" fill="white"/>
  <rect x="0" y="0" width="46.54545454545455" height="46.54545454545455" rx="0" fill="hsl(38,58%,45%)"/><rect x="46.54545454545455" y="0" width="46.54545454545455" height="46.54545454545455" rx="0" fill="hsl(258,48%,55%)"/><rect x="93.0909090909091" y="0" width="46.54545454545455" height="46.54545454545455" rx="0" fill="hsl(258,48%,55%)"/><rect x="139.63636363636363" y="0" width="46.54545454545455" height="46.54545454545455" rx="0" fill="hsl(258,48%,55%)"/><rect x="186.1818181818182" y="0" width="46.54545454545455" height="46.54545454545455" rx="0" fill="hsl(178,58%,35%)"/><rect x="232.72727272727275" y="0" width="46.54545454545455" height="46.54545454545455" rx="0" fill="hsl(38,58%,45%)"/><rect x="279.27272727272725" y="0" width="46.54545454545455" height="46.54545454545455" rx="0" fill="hsl(258,48%,55%)"/><rect x="325.8181818181818" y="0" width="46.54545454545455" height="46.54545454545455" rx="0" fill="hsl(258,48%,55%)"/><rect x="372.3636363636364" y="0" width="46.54545454545455" height="46.54545454545455" rx="0" fill="hsl(38,58%,45%)"/><rect x="418.90909090909093" y="0" width="46.54545454545455" height="46.54545454545455" rx="0" fill="hsl(38,58%,45%)"/><rect x="465.4545454545455" y="0" width="46.54545454545455" height="46.54545454545455" rx="0" fill="hsl(178,58%,35%)"/><rect x="0" y="46.54545454545455" width="46.54545454545455" height="46.54545454545455" rx="0" fill="hsl(38,58%,45%)"/><rect x="46.54545454545455" y="46.54545454545455" width="46.54545454545455" height="46.54545454545455" rx="0" fill="hsl(178,58%,35%)"/><rect x="93.0909090909091" y="46.54545454545455" width="46.54545454545455" height="46.54545454545455" rx="0" fill="hsl(178,58%,35%)"/><rect x="139.63636363636363" y="46.54545454545455" width="46.54545454545455" height="46.54545454545455" rx="0" fill="hsl(38,58%,45%)"/><rect x="186.1818181818182" y="46.54545454545455" width="46.54545454545455" height="46.54545454545455" rx="0" fill="hsl(178,58%,35%)"/><rect x="232.72727272727275" y="46.54545454545455" width="46.54545454545455" height="46.54545454545455" rx="0" fill="hsl(178,58%,35%)"/><rect x="279.27272727272725" y="46.54545454545455" width="46.54545454545455" height="46.54545454545455" rx="0" fill="hsl(258,48%,55%)"/><rect x="325.8181818181818" y="46.54545454545455" width="46.54545454545455" height="46.54545454545455" rx="0" fill="hsl(38,58%,45%)"/><rect x="372.3636363636364" y="46.54545454545455" width="46.54545454545455" height="46.54545454545455" rx="0" fill="hsl(178,58%,35%)"/><rect x="418.90909090909093" y="46.54545454545455" width="46.54545454545455" height="46.54545454545455" rx="0" fill="hsl(258,48%,55%)"/><rect x="465.4545454545455" y="46.54545454545455" width="46.54545454545455" height="46.54545454545455" rx="0" fill="hsl(38,58%,45%)"/><rect x="0" y="93.0909090909091" width="46.54545454545455" height="46.54545454545455" rx="0" fill="hsl(178,58%,35%)"/><rect x="46.54545454545455" y="93.0909090909091" width="46.54545454545455" height="46.54545454545455" rx="0" fill="hsl(178,58%,35%)"/><rect x="93.0909090909091" y="93.0909090909091" width="46.54545454545455" height="46.54545454545455" rx="0" fill="hsl(178,58%,35%)"/><rect x="139.63636363636363" y="93.0909090909091" width="46.54545454545455" height="46.54545454545455" rx="6" fill="hsl(38,58%,45%)"/><rect x="186.1818181818182" y="93.0909090909091" width="46.54545454545455" height="46.54545454545455" rx="0" fill="hsl(38,58%,45%)"/><rect x="232.72727272727275" y="93.0909090909091" width="46.54545454545455" height="46.54545454545455" rx="0" fill="hsl(178,58%,35%)"/><rect x="279.27272727272725" y="93.0909090909091" width="46.54545454545455" height="46.54545454545455" rx="0" fill="hsl(258,48%,55%)"/><rect x="325.8181818181818" y="93.0909090909091" width="46.54545454545455" height="46.54545454545455" rx="0" fill="hsl(258,48%,55%)"/><rect x="372.3636363636364" y="93.0909090909091" width="46.54545454545455" height="46.54545454545455" rx="0" fill="hsl(258,48%,55%)"/><rect x="418.90909090909093" y="93.0909090909091" width="46.54545454545455" height="46.54545454545455" rx="6" fill="hsl(258,48%,55%)"/><rect x="465.4545454545455" y="93.0909090909091" width="46.54545454545455" height="46.54545454545455" rx="0" fill="hsl(178,58%,35%)"/><rect x="0" y="139.63636363636363" width="46.54545454545455" height="46.54545454545455" rx="0" fill="hsl(258,48%,55%)"/><rect x="46.54545454545455" y="139.63636363636363" width="46.54545454545455" height="46.54545454545455" rx="0" fill="hsl(38,58%,45%)"/><rect x="93.0909090909091" y="139.63636363636363" width="46.54545454545455" height="46.54545454545455" rx="0" fill="hsl(178,58%,35%)"/><rect x="139.63636363636363" y="139.63636363636363" width="46.54545454545455" height="46.54545454545455" rx="0" fill="hsl(258,48%,55%)"/><rect x="186.1818181818182" y="139.63636363636363" width="46.54545454545455" height="46.54545454545455" rx="0" fill="hsl(38,58%,45%)"/><rect x="232.72727272727275" y="139.63636363636363" width="46.54545454545455" height="46.54545454545455" rx="0" fill="hsl(38,58%,45%)"/><rect x="279.27272727272725" y="139.63636363636363" width="46.54545454545455" height="46.54545454545455" rx="6" fill="hsl(258,48%,55%)"/><rect x="325.8181818181818" y="139.63636363636363" width="46.54545454545455" height="46.54545454545455" rx="0" fill="hsl(38,58%,45%)"/><rect x="372.3636363636364" y="139.63636363636363" width="46.54545454545455" height="46.54545454545455" rx="0" fill="hsl(258,48%,55%)"/><rect x="418.90909090909093" y="139.63636363636363" width="46.54545454545455" height="46.54545454545455" rx="6" fill="hsl(258,48%,55%)"/><rect x="465.4545454545455" y="139.63636363636363" width="46.54545454545455" height="46.54545454545455" rx="0" fill="hsl(258,48%,55%)"/><rect x="0" y="186.1818181818182" width="46.54545454545455" height="46.54545454545455" rx="0" fill="hsl(38,58%,45%)"/><rect x="46.54545454545455" y="186.1818181818182" width="46.54545454545455" height="46.54545454545455" rx="0" fill="hsl(178,58%,35%)"/><rect x="93.0909090909091" y="186.1818181818182" width="46.54545454545455" height="46.54545454545455" rx="0" fill="hsl(258,48%,55%)"/><rect x="139.63636363636363" y="186.1818181818182" width="46.54545454545455" height="46.54545454545455" rx="0" fill="hsl(38,58%,45%)"/><rect x="186.1818181818182" y="186.1818181818182" width="46.54545454545455" height="46.54545454545455" rx="0" fill="hsl(178,58%,35%)"/><rect x="232.72727272727275" y="186.1818181818182" width="46.54545454545455" height="46.54545454545455" rx="0" fill="hsl(38,58%,45%)"/><rect x="279.27272727272725" y="186.1818181818182" width="46.54545454545455" height="46.54545454545455" rx="0" fill="hsl(38,58%,45%)"/><rect x="325.8181818181818" y="186.1818181818182" width="46.54545454545455" height="46.54545454545455" rx="0" fill="hsl(38,58%,45%)"/><rect x="372.3636363636364" y="186.1818181818182" width="46.54545454545455" height="46.54545454545455" rx="0" fill="hsl(178,58%,35%)"/><rect x="418.90909090909093" y="186.1818181818182" width="46.54545454545455" height="46.54545454545455" rx="0" fill="hsl(38,58%,45%)"/><rect x="465.4545454545455" y="186.1818181818182" width="46.54545454545455" height="46.54545454545455" rx="0" fill="hsl(178,58%,35%)"/><rect x="0" y="232.72727272727275" width="46.54545454545455" height="46.54545454545455" rx="0" fill="hsl(38,58%,45%)"/><rect x="46.54545454545455" y="232.72727272727275" width="46.54545454545455" height="46.54545454545455" rx="0" fill="hsl(258,48%,55%)"/><rect x="93.0909090909091" y="232.72727272727275" width="46.54545454545455" height="46.54545454545455" rx="0" fill="hsl(38,58%,45%)"/><rect x="139.63636363636363" y="232.72727272727275" width="46.54545454545455" height="46.54545454545455" rx="0" fill="hsl(258,48%,55%)"/><rect x="186.1818181818182" y="232.72727272727275" width="46.54545454545455" height="46.54545454545455" rx="6" fill="hsl(258,48%,55%)"/><rect x="232.72727272727275" y="232.72727272727275" width="46.54545454545455" height="46.54545454545455" rx="6" fill="hsl(258,48%,55%)"/><rect x="279.27272727272725" y="232.72727272727275" width="46.54545454545455" height="46.54545454545455" rx="0" fill="hsl(258,48%,55%)"/><rect x="325.8181818181818" y="232.72727272727275" width="46.54545454545455" height="46.54545454545455" rx="0" fill="hsl(178,58%,35%)"/><rect x="372.3636363636364" y="232.72727272727275" width="46.54545454545455" height="46.54545454545455" rx="0" fill="hsl(258,48%,55%)"/><rect x="418.90909090909093" y="232.72727272727275" width="46.54545454545455" height="46.54545454545455" rx="0" fill="hsl(258,48%,55%)"/><rect x="465.4545454545455" y="232.72727272727275" width="46.54545454545455" height="46.54545454545455" rx="0" fill="hsl(258,48%,55%)"/><rect x="0" y="279.27272727272725" width="46.54545454545455" height="46.54545454545455" rx="6" fill="hsl(258,48%,55%)"/><rect x="46.54545454545455" y="279.27272727272725" width="46.54545454545455" height="46.54545454545455" rx="0" fill="hsl(38,58%,45%)"/><rect x="93.0909090909091" y="279.27272727272725" width="46.54545454545455" height="46.54545454545455" rx="0" fill="hsl(178,58%,35%)"/><rect x="139.63636363636363" y="279.27272727272725" width="46.54545454545455" height="46.54545454545455" rx="0" fill="hsl(258,48%,55%)"/><rect x="186.1818181818182" y="279.27272727272725" width="46.54545454545455" height="46.54545454545455" rx="0" fill="hsl(38,58%,45%)"/><rect x="232.72727272727275" y="279.27272727272725" width="46.54545454545455" height="46.54545454545455" rx="0" fill="hsl(178,58%,35%)"/><rect x="279.27272727272725" y="279.27272727272725" width="46.54545454545455" height="46.54545454545455" rx="0" fill="hsl(258,48%,55%)"/><rect x="325.8181818181818" y="279.27272727272725" width="46.54545454545455" height="46.54545454545455" rx="0" fill="hsl(178,58%,35%)"/><rect x="372.3636363636364" y="279.27272727272725" width="46.54545454545455" height="46.54545454545455" rx="0" fill="hsl(38,58%,45%)"/><rect x="418.90909090909093" y="279.27272727272725" width="46.54545454545455" height="46.54545454545455" rx="6" fill="hsl(38,58%,45%)"/><rect x="465.4545454545455" y="279.27272727272725" width="46.54545454545455" height="46.54545454545455" rx="0" fill="hsl(178,58%,35%)"/><rect x="0" y="325.8181818181818" width="46.54545454545455" height="46.54545454545455" rx="0" fill="hsl(258,48%,55%)"/><rect x="46.54545454545455" y="325.8181818181818" width="46.54545454545455" height="46.54545454545455" rx="0" fill="hsl(38,58%,45%)"/><rect x="93.0909090909091" y="325.8181818181818" width="46.54545454545455" height="46.54545454545455" rx="0" fill="hsl(38,58%,45%)"/><rect x="139.63636363636363" y="325.8181818181818" width="46.54545454545455" height="46.54545454545455" rx="0" fill="hsl(258,48%,55%)"/><rect x="186.1818181818182" y="325.8181818181818" width="46.54545454545455" height="46.54545454545455" rx="0" fill="hsl(178,58%,35%)"/><rect x="232.72727272727275" y="325.8181818181818" width="46.54545454545455" height="46.54545454545455" rx="0" fill="hsl(258,48%,55%)"/><rect x="279.27272727272725" y="325.8181818181818" width="46.54545454545455" height="46.54545454545455" rx="0" fill="hsl(38,58%,45%)"/><rect x="325.8181818181818" y="325.8181818181818" width="46.54545454545455" height="46.54545454545455" rx="0" fill="hsl(178,58%,35%)"/><rect x="372.3636363636364" y="325.8181818181818" width="46.54545454545455" height="46.54545454545455" rx="0" fill="hsl(258,48%,55%)"/><rect x="418.90909090909093" y="325.8181818181818" width="46.54545454545455" height="46.54545454545455" rx="0" fill="hsl(178,58%,35%)"/><rect x="465.4545454545455" y="325.8181818181818" width="46.54545454545455" height="46.54545454545455" rx="0" fill="hsl(178,58%,35%)"/><rect x="0" y="372.3636363636364" width="46.54545454545455" height="46.54545454545455" rx="0" fill="hsl(38,58%,45%)"/><rect x="46.54545454545455" y="372.3636363636364" width="46.54545454545455" height="46.54545454545455" rx="0" fill="hsl(38,58%,45%)"/><rect x="93.0909090909091" y="372.3636363636364" width="46.54545454545455" height="46.54545454545455" rx="0" fill="hsl(38,58%,45%)"/><rect x="139.63636363636363" y="372.3636363636364" width="46.54545454545455" height="46.54545454545455" rx="0" fill="hsl(178,58%,35%)"/><rect x="186.1818181818182" y="372.3636363636364" width="46.54545454545455" height="46.54545454545455" rx="0" fill="hsl(178,58%,35%)"/><rect x="232.72727272727275" y="372.3636363636364" width="46.54545454545455" height="46.54545454545455" rx="0" fill="hsl(258,48%,55%)"/><rect x="279.27272727272725" y="372.3636363636364" width="46.54545454545455" height="46.54545454545455" rx="0" fill="hsl(258,48%,55%)"/><rect x="325.8181818181818" y="372.3636363636364" width="46.54545454545455" height="46.54545454545455" rx="6" fill="hsl(258,48%,55%)"/><rect x="372.3636363636364" y="372.3636363636364" width="46.54545454545455" height="46.54545454545455" rx="0" fill="hsl(178,58%,35%)"/><rect x="418.90909090909093" y="372.3636363636364" width="46.54545454545455" height="46.54545454545455" rx="0" fill="hsl(38,58%,45%)"/><rect x="465.4545454545455" y="372.3636363636364" width="46.54545454545455" height="46.54545454545455" rx="0" fill="hsl(38,58%,45%)"/><rect x="0" y="418.90909090909093" width="46.54545454545455" height="46.54545454545455" rx="0" fill="hsl(38,58%,45%)"/><rect x="46.54545454545455" y="418.90909090909093" width="46.54545454545455" height="46.54545454545455" rx="0" fill="hsl(38,58%,45%)"/><rect x="93.0909090909091" y="418.90909090909093" width="46.54545454545455" height="46.54545454545455" rx="6" fill="hsl(178,58%,35%)"/><rect x="139.63636363636363" y="418.90909090909093" width="46.54545454545455" height="46.54545454545455" rx="0" fill="hsl(258,48%,55%)"/><rect x="186.1818181818182" y="418.90909090909093" width="46.54545454545455" height="46.54545454545455" rx="6" fill="hsl(178,58%,35%)"/><rect x="232.72727272727275" y="418.90909090909093" width="46.54545454545455" height="46.54545454545455" rx="0" fill="hsl(38,58%,45%)"/><rect x="279.27272727272725" y="418.90909090909093" width="46.54545454545455" height="46.54545454545455" rx="6" fill="hsl(178,58%,35%)"/><rect x="325.8181818181818" y="418.90909090909093" width="46.54545454545455" height="46.54545454545455" rx="0" fill="hsl(258,48%,55%)"/><rect x="372.3636363636364" y="418.90909090909093" width="46.54545454545455" height="46.54545454545455" rx="0" fill="hsl(38,58%,45%)"/><rect x="418.90909090909093" y="418.90909090909093" width="46.54545454545455" height="46.54545454545455" rx="0" fill="hsl(258,48%,55%)"/><rect x="465.4545454545455" y="418.90909090909093" width="46.54545454545455" height="46.54545454545455" rx="6" fill="hsl(178,58%,35%)"/><rect x="0" y="465.4545454545455" width="46.54545454545455" height="46.54545454545455" rx="0" fill="hsl(38,58%,45%)"/><rect x="46.54545454545455" y="465.4545454545455" width="46.54545454545455" height="46.54545454545455" rx="0" fill="hsl(38,58%,45%)"/><rect x="93.0909090909091" y="465.4545454545455" width="46.54545454545455" height="46.54545454545455" rx="0" fill="hsl(258,48%,55%)"/><rect x="139.63636363636363" y="465.4545454545455" width="46.54545454545455" height="46.54545454545455" rx="0" fill="hsl(38,58%,45%)"/><rect x="186.1818181818182" y="465.4545454545455" width="46.54545454545455" height="46.54545454545455" rx="0" fill="hsl(178,58%,35%)"/><rect x="232.72727272727275" y="465.4545454545455" width="46.54545454545455" height="46.54545454545455" rx="0" fill="hsl(258,48%,55%)"/><rect x="279.27272727272725" y="465.4545454545455" width="46.54545454545455" height="46.54545454545455" rx="0" fill="hsl(38,58%,45%)"/><rect x="325.8181818181818" y="465.4545454545455" width="46.54545454545455" height="46.54545454545455" rx="6" fill="hsl(38,58%,45%)"/><rect x="372.3636363636364" y="465.4545454545455" width="46.54545454545455" height="46.54545454545455" rx="0" fill="hsl(258,48%,55%)"/><rect x="418.90909090909093" y="465.4545454545455" width="46.54545454545455" height="46.54545454545455" rx="0" fill="hsl(178,58%,35%)"/><rect x="465.4545454545455" y="465.4545454545455" width="46.54545454545455" height="46.54545454545455" rx="0" fill="hsl(178,58%,35%)"/>
  </svg>