<svg xmlns="http://www.w3.org/2000/svg" width="512" height="512" viewBox="0 0 512 512">
  <defs>
    <filter id="gr"><feTurbulence type="fractalNoise" baseFrequency="0.005" numOctaves="1" result="n"/><feColorMatrix type="saturate" values="0.25"/></filter>
  </defs>
  <rect width="100%" height="100%" fill="white"/>
  <rect x="0" y="0" width="51.2" height="51.2" rx="6" fill="hsl(206,63%,51%)"/><rect x="51.2" y="0" width="51.2" height="51.2" rx="0" fill="hsl(286,53%,71%)"/><rect x="102.4" y="0" width="51.2" height="51.2" rx="6" fill="hsl(286,53%,71%)"/><rect x="153.60000000000002" y="0" width="51.2" height="51.2" rx="0" fill="hsl(286,53%,71%)"/><rect x="204.8" y="0" width="51.2" height="51.2" rx="0" fill="hsl(286,53%,71%)"/><rect x="256" y="0" width="51.2" height="51.2" rx="0" fill="hsl(286,53%,71%)"/><rect x="307.20000000000005" y="0" width="51.2" height="51.2" rx="0" fill="hsl(66,63%,61%)"/><rect x="358.40000000000003" y="0" width="51.2" height="51.2" rx="0" fill="hsl(66,63%,61%)"/><rect x="409.6" y="0" width="51.2" height="51.2" rx="0" fill="hsl(66,63%,61%)"/><rect x="460.8" y="0" width="51.2" height="51.2" rx="0" fill="hsl(206,63%,51%)"/><rect x="0" y="51.2" width="51.2" height="51.2" rx="0" fill="hsl(66,63%,61%)"/><rect x="51.2" y="51.2" width="51.2" height="51.2" rx="0" fill="hsl(286,53%,71%)"/><rect x="102.4" y="51.2" width="51.2" height="51.2" rx="0" fill="hsl(66,63%,61%)"/><rect x="153.60000000000002" y="51.2" width="51.2" height="51.2" rx="6" fill="hsl(206,63%,51%)"/><rect x="204.8" y="51.2" width="51.2" height="51.2" rx="0" fill="hsl(206,63%,51%)"/><rect x="256" y="51.2" width="51.2" height="51.2" rx="0" fill="hsl(66,63%,61%)"/><rect x="307.20000000000005" y="51.2" width="51.2" height="51.2" rx="0" fill="hsl(286,53%,71%)"/><rect x="358.40000000000003" y="51.2" width="51.2" height="51.2" rx="0" fill="hsl(66,63%,61%)"/><rect x="409.6" y="51.2" width="51.2" height="51.2" rx="0" fill="hsl(286,53%,71%)"/><rect x="460.8" y="51.2" width="51.2" height="51.2" rx="0" fill="hsl(286,53%,71%)"/><rect x="0" y="102.4" width="51.2" height="51.2" rx="0" fill="hsl(206,63%,51%)"/><rect x="51.2" y="102.4" width="51.2" height="51.2" rx="0" fill="hsl(66,63%,61%)"/><rect x="102.4" y="102.4" width="51.2" height="51.2" rx="6" fill="hsl(206,63%,51%)"/><rect x="153.60000000000002" y="102.4" width="51.2" height="51.2" rx="0" fill="hsl(66,63%,61%)"/><rect x="204.8" y="102.4" width="51.2" height="51.2" rx="0" fill="hsl(66,63%,61%)"/><rect x="256" y="102.4" width="51.2" height="51.2" rx="0" fill="hsl(66,63%,61%)"/><rect x="307.20000000000005" y="102.4" width="51.2" height="51.2" rx="0" fill="hsl(206,63%,51%)"/><rect x="358.40000000000003" y="102.4" width="51.2" height="51.2" rx="0" fill="hsl(286,53%,71%)"/><rect x="409.6" y="102.4" width="51.2" height="51.2" rx="0" fill="hsl(286,53%,71%)"/><rect x="460.8" y="102.4" width="51.2" height="51.2" rx="0" fill="hsl(66,63%,61%)"/><rect x="0" y="153.60000000000002" width="51.2" height="51.2" rx="0" fill="hsl(206,63%,51%)"/><rect x="51.2" y="153.60000000000002" width="51.2" height="51.2" rx="0" fill="hsl(66,63%,61%)"/><rect x="102.4" y="153.60000000000002" width="51.2" height="51.2" rx="0" fill="hsl(66,63%,61%)"/><rect x="153.60000000000002" y="153.60000000000002" width="51.2" height="51.2" rx="0" fill="hsl(66,63%,61%)"/><rect x="204.8" y="153.60000000000002" width="51.2" height="51.2" rx="0" fill="hsl(206,63%,51%)"/><rect x="256" y="153.60000000000002" width="51.2" height="51.2" rx="0" fill="hsl(66,63%,61%)"/><rect x="307.20000000000005" y="153.60000000000002" width="51.2" height="51.2" rx="0" fill="hsl(206,63%,51%)"/><rect x="358.40000000000003" y="153.60000000000002" width="51.2" height="51.2" rx="0" fill="hsl(66,63%,61%)"/><rect x="409.6" y="153.60000000000002" width="51.2" height="51.2" rx="0" fill="hsl(206,63%,51%)"/><rect x="460.8" y="153.60000000000002" width="51.2" height="51.2" rx="0" fill="hsl(206,63%,51%)"/><rect x="0" y="204.8" width="51.2" height="51.2" rx="0" fill="hsl(286,53%,71%)"/><rect x="51.2" y="204.8" width="51.2" height="51.2" rx="0" fill="hsl(206,63%,51%)"/><rect x="102.4" y="204.8" width="51.2" height="51.2" rx="0" fill="hsl(286,53%,71%)"/><rect x="153.60000000000002" y="204.8" width="51.2" height="51.2" rx="0" fill="hsl(206,63%,51%)"/><rect x="204.8" y="204.8" width="51.2" height="51.2" rx="0" fill="hsl(206,63%,51%)"/><rect x="256" y="204.8" width="51.2" height="51.2" rx="0" fill="hsl(66,63%,61%)"/><rect x="307.20000000000005" y="204.8" width="51.2" height="51.2" rx="0" fill="hsl(206,63%,51%)"/><rect x="358.40000000000003" y="204.8" width="51.2" height="51.2" rx="0" fill="hsl(286,53%,71%)"/><rect x="409.6" y="204.8" width="51.2" height="51.2" rx="0" fill="hsl(66,63%,61%)"/><rect x="460.8" y="204.8" width="51.2" height="51.2" rx="0" fill="hsl(66,63%,61%)"/><rect x="0" y="256" width="51.2" height="51.2" rx="0" fill="hsl(286,53%,71%)"/><rect x="51.2" y="256" width="51.2" height="51.2" rx="0" fill="hsl(206,63%,51%)"/><rect x="102.4" y="256" width="51.2" height="51.2" rx="0" fill="hsl(66,63%,61%)"/><rect x="153.60000000000002" y="256" width="51.2" height="51.2" rx="0" fill="hsl(206,63%,51%)"/><rect x="204.8" y="256" width="51.2" height="51.2" rx="0" fill="hsl(66,63%,61%)"/><rect x="256" y="256" width="51.2" height="51.2" rx="0" fill="hsl(206,63%,51%)"/><rect x="307.20000000000005" y="256" width="51.2" height="51.2" rx="0" fill="hsl(206,63%,51%)"/><rect x="358.40000000000003" y="256" width="51.2" height="51.2" rx="0" fill="hsl(206,63%,51%)"/><rect x="409.6" y="256" width="51.2" height="51.2" rx="0" fill="hsl(286,53%,71%)"/><rect x="460.8" y="256" width="51.2" height="51.2" rx="0" fill="hsl(206,63%,51%)"/><rect x="0" y="307.20000000000005" width="51.2" height="51.2" rx="6" fill="hsl(66,63%,61%)"/><rect x="51.2" y="307.20000000000005" width="51.2" height="51.2" rx="0" fill="hsl(206,63%,51%)"/><rect x="102.4" y="307.20000000000005" width="51.2" height="51.2" rx="0" fill="hsl(206,63%,51%)"/><rect x="153.60000000000002" y="307.20000000000005" width="51.2" height="51.2" rx="0" fill="hsl(66,63%,61%)"/><rect x="204.8" y="307.20000000000005" width="51.2" height="51.2" rx="0" fill="hsl(286,53%,71%)"/><rect x="256" y="307.20000000000005" width="51.2" height="51.2" rx="6" fill="hsl(286,53%,71%)"/><rect x="307.20000000000005" y="307.20000000000005" width="51.2" height="51.2" rx="0" fill="hsl(66,63%,61%)"/><rect x="358.40000000000003" y="307.20000000000005" width="51.2" height="51.2" rx="0" fill="hsl(286,53%,71%)"/><rect x="409.6" y="307.20000000000005" width="51.2" height="51.2" rx="0" fill="hsl(286,53%,71%)"/><rect x="460.8" y="307.20000000000005" width="51.2" height="51.2" rx="0" fill="hsl(66,63%,61%)"/><rect x="0" y="358.40000000000003" width="51.2" height="51.2" rx="0" fill="hsl(66,63%,61%)"/><rect x="51.2" y="358.40000000000003" width="51.2" height="51.2" rx="0" fill="hsl(206,63%,51%)"/><rect x="102.4" y="358.40000000000003" width="51.2" height="51.2" rx="0" fill="hsl(286,53%,71%)"/><rect x="153.60000000000002" y="358.40000000000003" width="51.2" height="51.2" rx="0" fill="hsl(206,63%,51%)"/><rect x="204.8" y="358.40000000000003" width="51.2" height="51.2" rx="0" fill="hsl(286,53%,71%)"/><rect x="256" y="358.40000000000003" width="51.2" height="51.2" rx="0" fill="hsl(286,53%,71%)"/><rect x="307.20000000000005" y="358.40000000000003" width="51.2" height="51.2" rx="0" fill="hsl(66,63%,61%)"/><rect x="358.40000000000003" y="358.40000000000003" width="51.2" height="51.2" rx="0" fill="hsl(286,53%,71%)"/><rect x="409.6" y="358.40000000000003" width="51.2" height="51.2" rx="0" fill="hsl(66,63%,61%)"/><rect x="460.8" y="358.40000000000003" width="51.2" height="51.2" rx="0" fill="hsl(206,63%,51%)"/><rect x="0" y="409.6" width="51.2" height="51.2" rx="0" fill="hsl(286,53%,71%)"/><rect x="51.2" y="409.6" width="51.2" height="51.2" rx="0" fill="hsl(66,63%,61%)"/><rect x="102.4" y="409.6" width="51.2" height="51.2" rx="0" fill="hsl(206,63%,51%)"/><rect x="153.60000000000002" y="409.6" width="51.2" height="51.2" rx="0" fill="hsl(286,53%,71%)"/><rect x="204.8" y="409.6" width="51.2" height="51.2" rx="0" fill="hsl(286,53%,71%)"/><rect x="256" y="409.6" width="51.2" height="51.2" rx="6" fill="hsl(286,53%,71%)"/><rect x="307.20000000000005" y="409.6" width="51.2" height="51.2" rx="0" fill="hsl(206,63%,51%)"/><rect x="358.40000000000003" y="409.6" width="51.2" height="51.2" rx="0" fill="hsl(286,53%,71%)"/><rect x="409.6" y="409.6" width="51.2" height="51.2" rx="0" fill="hsl(286,53%,71%)"/><rect x="460.8" y="409.6" width="51.2" height="51.2" rx="0" fill="hsl(286,53%,71%)"/><rect x="0" y="460.8" width="51.2" height="51.2" rx="0" fill="hsl(286,53%,71%)"/><rect x="51.2" y="460.8" width="51.2" height="51.2" rx="0" fill="hsl(206,63%,51%)"/><rect x="102.4" y="460.8" width="51.2" height="51.2" rx="0" fill="hsl(206,63%,51%)"/><rect x="153.60000000000002" y="460.8" width="51.2" height="51.2" rx="6" fill="hsl(286,53%,71%)"/><rect x="204.8" y="460.8" width="51.2" height="51.2" rx="0" fill="hsl(206,63%,51%)"/><rect x="256" y="460.8" width="51.2" height="51.2" rx="0" fill="hsl(66,63%,61%)"/><rect x="307.20000000000005" y="460.8" width="51.2" height="51.2" rx="0" fill="hsl(286,53%,71%)"/><rect x="358.40000000000003" y="460.8" width="51.2" height="51.2" rx="0" fill="hsl(66,63%,61%)"/><rect x="409.6" y="460.8" width="51.2" height="51.2" rx="0" fill="hsl(206,63%,51%)"/><rect x="460.8" y="460.8" width="51.2" height="51.2" rx="0" fill="hsl(66,63%,61%)"/>
  </svg>